<svg viewBox="0 0 185.228 15.937" height="60.233" width="700.076" xmlns="http://www.w3.org/2000/svg" fill="currentColor" stroke="none" >
    <g stroke-width="1">
        <path
            d="M162.248 15.47v-.89a1.791 1.791 0 01-1.529-.322 1.779 1.779 0 01-.554-.724 1.765 1.765 0 01.28-1.83 1.79 1.79 0 01.634-.484 1.75 1.75 0 01.883-.147 1.82 1.82 0 01.286.05V9.058a.224.224 0 00-.179-.218.225.225 0 00-.045-.005h-2.603a.226.226 0 01-.155-.062.225.225 0 01-.047-.256 1.404 1.404 0 00.124-.438 1.307 1.307 0 00-.14-.744 1.357 1.357 0 00-.828-.682 1.314 1.314 0 00-.54-.037 1.362 1.362 0 00-.543.195 1.32 1.32 0 00-.475.523 1.357 1.357 0 00-.137.776 1.319 1.319 0 00.12.407.23.23 0 01.02.112.22.22 0 01-.068.144.222.222 0 01-.154.062h-2.604a.224.224 0 00-.205.136l-.01.03v5.824a.644.644 0 00.645.644z" />
        <path
            d="M159.83.004a.644.644 0 00-.386.187l-7.088 7.088a.644.644 0 00-.136.703c.1.24.333.398.593.4h.806l2.662.008-.017-.071a1.78 1.78 0 01.21-1.283 1.787 1.787 0 013.321.864 1.743 1.743 0 01-.057.49h2.287a.679.679 0 01.425.153.673.673 0 01.244.516v2.381a.236.236 0 01-.017.086.22.22 0 01-.136.126.223.223 0 01-.166-.01 1.39 1.39 0 00-.488-.128 1.311 1.311 0 00-.695.145 1.36 1.36 0 00-.6.616 1.313 1.313 0 00-.13.584 1.368 1.368 0 00.108.521 1.311 1.311 0 00.412.529 1.366 1.366 0 00.782.282 1.315 1.315 0 00.61-.13.224.224 0 01.216.013.223.223 0 01.104.188v1.208h2.686a.644.644 0 00.644-.644V8.542c0-.088.072-.16.161-.16h.806a.644.644 0 00.592-.4.644.644 0 00-.135-.703l-2.023-2.017a.187.187 0 01-.045-.103V1.293a.644.644 0 00-.645-.645h-1.933a.644.644 0 00-.644.645v.309a.161.161 0 01-.097.148.168.168 0 01-.18 0L160.36.19a.644.644 0 00-.53-.186z" />
    </g>
    <path
        d="M14.441 14.356l-.158-1.916c-.02-.138-.138-.257-.276-.257-.06 0-.139.02-.178.079-.672.573-1.363 1.146-2.193 1.462-.83.316-1.719.356-2.608.356-1.52 0-3.022-.534-4.168-1.561-1.047-.968-1.7-2.312-1.7-3.754 0-1.442.653-2.785 1.7-3.753C6.006 3.984 7.507 3.45 9.028 3.45c.81 0 1.6.119 2.331.435.731.316 1.364.83 1.897 1.422.04.06.119.099.198.099a.277.277 0 00.276-.237l.415-2.37c0-.179-.079-.277-.198-.317-.79-.217-1.6-.415-2.43-.533-.83-.1-1.659-.139-2.489-.139-2.272 0-4.543.613-6.361 2.015C1.107 5.012 0 6.79 0 8.766c0 1.975 1.106 3.753 2.667 4.938 1.818 1.403 4.09 2.015 6.361 2.015.91 0 1.818-.02 2.707-.197.889-.198 1.719-.534 2.548-.89a.315.315 0 00.158-.276zM35.264 8.825c0-3.813-3.793-7.231-8.95-7.231-5.156 0-8.949 3.418-8.949 7.23 0 3.794 3.833 7.113 8.95 7.113 5.116 0 8.949-3.32 8.949-7.112zm-3.161-.297c0 3.616-2.529 5.808-5.789 5.808s-5.788-2.192-5.788-5.808c0-3.457 2.608-5.373 5.788-5.373 3.181 0 5.789 1.916 5.789 5.373zM56.837 14.652V2.878c0-.672-.158-.87-.87-.87h-2.014c-.435 0-.91 0-1.265.732l-4.76 9.76-4.782-9.76c-.355-.731-.83-.731-1.264-.731h-2.015c-.672 0-.87.158-.87.87v11.773c0 .672.159.87.87.87h.75c.672 0 .87-.158.87-.87V4.597h.02l4.78 9.779c.356.73.83.73 1.265.73h.592c.435 0 .91 0 1.265-.73l4.82-9.858h.02v10.134c0 .672.158.87.87.87h.849c.671 0 .869-.158.869-.87zM74.656 6.414c0-2.43-2.904-4.405-6.321-4.405h-6.381c-.672 0-.87.158-.87.87v11.773c0 .672.158.87.87.87h1.422c.672 0 .87-.158.87-.87v-4.109h4.108c3.359 0 6.302-1.817 6.302-4.129zm-3.062 0c0 1.877-1.699 2.351-3.655 2.351h-3.733V4.063h3.773c1.995 0 3.615.475 3.615 2.351zM90.46 15.067a.84.84 0 00-.098-.336L85.028 2.523c-.316-.712-.83-.712-1.205-.712h-2.292c-.375 0-.889 0-1.205.712l-5.314 12.169c-.04.099-.119.257-.119.375 0 .455.415.455.712.455h1.205c.889 0 1.027-.336 1.284-.929l.691-1.6h7.389l.711 1.6c.257.613.415.929 1.284.929h1.58c.297 0 .712 0 .712-.455zm-5.175-4.129h-5.59l2.785-6.4zM108.004 15.028l-4.722-5.749c1.344-.296 4.406-1.245 4.406-3.26 0-2.232-3.3-4.01-6.954-4.01h-6.401c-.672 0-.87.158-.87.87v11.773c0 .672.159.87.87.87h1.383c.672 0 .87-.158.87-.87V9.516h3.812l4.563 5.63c.297.376.573.376.949.376h1.462c.395 0 .632 0 .632-.494zm-3.378-8.989c0 1.976-3.102 1.976-3.833 1.976h-4.208V4.063h4.248c1.461 0 3.793.159 3.793 1.976zM127.621 2.898c0-.79-.375-.83-.87-.83h-15.685c-.415 0-.87 0-.87.81 0 .79.376.83.87.83h6.263v10.944c0 .672.158.87.869.87h1.422c.672 0 .87-.158.87-.87V3.708h6.262c.415 0 .87 0 .87-.81zM133.765 14.672V2.84c0-.79-.375-.83-.87-.83h-1.421c-.415 0-.87 0-.87.81v11.853c0 .75.277.85.87.85h1.422c.573 0 .87-.08.87-.85zM149.985 14.712c0-.79-.376-.83-.87-.83h-8.198V2.878c0-.672-.158-.87-.87-.87h-1.422c-.672 0-.87.159-.87.87v11.774c0 .672.159.87.87.87h10.49c.415 0 .87 0 .87-.81zM185.229 15.028l-4.722-5.749c1.343-.296 4.405-1.245 4.405-3.26 0-2.232-3.299-4.01-6.954-4.01h-6.4c-.672 0-.87.158-.87.87v11.773c0 .672.158.87.87.87h1.383c.671 0 .869-.158.869-.87V9.516h3.813l4.563 5.63c.296.376.573.376.948.376h1.462c.395 0 .633 0 .633-.494zm-3.379-8.989c0 1.976-3.101 1.976-3.832 1.976h-4.208V4.063h4.247c1.462 0 3.793.159 3.793 1.976z"
        />
</svg>