<?xml version="1.0" encoding="UTF-8" standalone="no"?>
<!-- Created with Inkscape (http://www.inkscape.org/) -->

<svg xml:space="preserve" id="svg7255" version="1.1" viewBox="0 0 185.22849 15.936584" height="15.936584mm"
  width="185.22849mm" xmlns="http://www.w3.org/2000/svg" xmlns:svg="http://www.w3.org/2000/svg">
  <defs id="defs7252" />
  <g id="layer4" transform="translate(-12.385749,-96.234698)">
    <path style="display:none;fill:#ffd900;stroke-width:1" id="path506"
      d="m 105.35182,86.249594 -20.002943,-10e-7 -10.001471,-17.323057 10.001473,-17.323057 20.002941,10e-7 10.00147,17.323058 z"
      transform="matrix(0.99985287,0,0,0.99985287,9.1345128,16.962198)" />
    <path style="display:none;fill:#ffd900;stroke-width:1" id="path506-3"
      d="m 105.35182,86.249594 -20.002943,-10e-7 -10.001471,-17.323057 10.001473,-17.323057 20.002941,10e-7 10.00147,17.323058 z"
      transform="matrix(0.99985287,0,0,0.99985287,39.134512,34.282708)" />
    <g id="g6983" transform="matrix(0.07731969,0,0,0.07731969,164.16898,95.851225)"
      style="fill:#000000;stroke:none;stroke-width:1.33334;stroke-dasharray:none">
      <path id="path6817"
        d="m 135.33851,205.0402 -5.2e-4,-11.5161 c -0.58344,0.14601 -1.16848,0.26814 -1.75441,0.36742 -0.58594,0.0993 -1.17247,0.17548 -1.75855,0.22893 -0.58609,0.0534 -1.17157,0.0845 -1.75545,0.093 -0.58388,0.008 -1.1663,-0.005 -1.74563,-0.0408 -0.57933,-0.0356 -1.15563,-0.0928 -1.72806,-0.17156 -0.57243,-0.0787 -1.14111,-0.17923 -1.70429,-0.30024 -0.56317,-0.12102 -1.12119,-0.26289 -1.67276,-0.4253 -0.55158,-0.16241 -1.09639,-0.34536 -1.63401,-0.54829 -0.53763,-0.20292 -1.06773,-0.42562 -1.58905,-0.66817 -0.52133,-0.24256 -1.03418,-0.50471 -1.53686,-0.786 -0.50268,-0.28129 -0.99524,-0.58157 -1.47691,-0.90072 -0.48168,-0.31915 -0.95244,-0.65726 -1.41077,-1.01338 -0.45833,-0.35611 -0.90424,-0.73021 -1.33687,-1.12241 -0.43263,-0.39219 -0.85167,-0.80251 -1.25625,-1.2299 -0.40459,-0.42739 -0.79474,-0.87207 -1.16892,-1.33377 -0.37419,-0.46169 -0.7324,-0.94045 -1.07384,-1.43557 -0.31519,-0.45706 -0.6116,-0.91953 -0.88883,-1.38648 -0.27724,-0.46694 -0.5357,-0.93799 -0.77567,-1.41335 -0.23997,-0.47535 -0.46116,-0.95482 -0.66456,-1.43712 -0.2034,-0.4823 -0.38902,-0.96744 -0.55655,-1.45521 -0.16754,-0.48777 -0.31722,-0.9779 -0.44959,-1.46967 -0.13236,-0.49178 -0.24731,-0.98519 -0.3452,-1.4795 -0.0979,-0.49431 -0.17876,-0.98981 -0.24288,-1.48518 -0.0641,-0.49537 -0.11158,-0.99073 -0.14262,-1.4857 -0.031,-0.49497 -0.0453,-0.9895 -0.0439,-1.48259 0.001,-0.4931 0.0187,-0.9851 0.0517,-1.47485 0.033,-0.48975 0.0817,-0.97699 0.14573,-1.46193 0.064,-0.48493 0.1429,-0.96725 0.23719,-1.4459 0.0943,-0.47866 0.20375,-0.95382 0.32763,-1.42472 0.12388,-0.4709 0.2622,-0.93772 0.41496,-1.3994 0.15277,-0.46168 0.31979,-0.91844 0.50075,-1.36943 0.18095,-0.45098 0.37601,-0.89597 0.58446,-1.3348 0.20845,-0.43882 0.43034,-0.87136 0.66559,-1.29656 0.23525,-0.42519 0.48383,-0.84306 0.74517,-1.25315 0.26135,-0.4101 0.53543,-0.81261 0.82218,-1.20613 0.28674,-0.39353 0.58617,-0.77845 0.89762,-1.15394 0.31144,-0.37548 0.63503,-0.74111 0.97048,-1.09709 0.33545,-0.35597 0.68253,-0.70214 1.04128,-1.03714 0.35875,-0.335 0.72916,-0.65897 1.11053,-0.97152 0.38136,-0.31255 0.77391,-0.61363 1.17718,-0.90227 0.40328,-0.28863 0.81731,-0.56512 1.24179,-0.82837 0.42448,-0.26325 0.85932,-0.51344 1.30431,-0.74983 0.445,-0.23639 0.89996,-0.45856 1.36478,-0.66662 0.46481,-0.20807 0.93975,-0.40206 1.42368,-0.58033 0.48393,-0.17827 0.97715,-0.34082 1.4795,-0.48783 0.50235,-0.147 1.01368,-0.27846 1.53376,-0.39274 0.52007,-0.11427 1.04885,-0.21138 1.58595,-0.29145 0.53709,-0.0801 1.08265,-0.14267 1.63607,-0.18707 0.31297,-0.0217 0.62585,-0.0374 0.93896,-0.0465 0.31311,-0.009 0.62607,-0.0118 0.93896,-0.008 0.31289,0.004 0.62561,0.0134 0.93793,0.0295 0.31232,0.016 0.62447,0.0382 0.93586,0.0667 0.62278,0.0569 1.24343,0.13853 1.86035,0.24495 0.61693,0.10641 1.22991,0.23781 1.83813,0.39325 v -26.68622 c 0,-0.19928 -0.02,-0.3935 -0.0584,-0.58136 -0.0384,-0.18786 -0.095,-0.3695 -0.16795,-0.54209 -0.0729,-0.17259 -0.16249,-0.33643 -0.26613,-0.48989 -0.10365,-0.15346 -0.22144,-0.29637 -0.35192,-0.42685 -0.13048,-0.13048 -0.27339,-0.24827 -0.42685,-0.35191 -0.15346,-0.10365 -0.3173,-0.19319 -0.48989,-0.26614 -0.17259,-0.073 -0.35371,-0.12954 -0.54157,-0.16795 -0.18786,-0.0384 -0.3826,-0.0584 -0.58188,-0.0584 H 98.778984 c -0.132399,1.3e-4 -0.262216,-0.008 -0.388607,-0.0248 -0.126392,-0.0165 -0.249361,-0.041 -0.36897,-0.0729 -0.119609,-0.0319 -0.235731,-0.0712 -0.347782,-0.1173 -0.112052,-0.0461 -0.220292,-0.0991 -0.324012,-0.15813 -0.103719,-0.0591 -0.203043,-0.12451 -0.297656,-0.19534 -0.09461,-0.0708 -0.184504,-0.14704 -0.269234,-0.22841 -0.08473,-0.0814 -0.164155,-0.16769 -0.238228,-0.25838 -0.07407,-0.0907 -0.142514,-0.18595 -0.205156,-0.28474 -0.06264,-0.0988 -0.119581,-0.20128 -0.170015,-0.30696 -0.05044,-0.10567 -0.09432,-0.21474 -0.131775,-0.32608 -0.03745,-0.11134 -0.06829,-0.22476 -0.09198,-0.34054 -0.0237,-0.11579 -0.04045,-0.23394 -0.04961,-0.35295 -0.0092,-0.11902 -0.01079,-0.23916 -0.0046,-0.36019 0.0061,-0.12102 0.02015,-0.2425 0.04237,-0.36432 0.02222,-0.12182 0.05239,-0.24396 0.09147,-0.36535 0.03908,-0.12139 0.08695,-0.24199 0.143661,-0.36174 0.177011,-0.37292 0.339613,-0.74771 0.487825,-1.12344 0.148213,-0.37573 0.281958,-0.75261 0.402043,-1.13016 0.120085,-0.37756 0.226215,-0.75591 0.318844,-1.1343 0.09263,-0.3784 0.171869,-0.75709 0.237711,-1.13533 0.06584,-0.37824 0.118404,-0.75616 0.15813,-1.13327 0.03973,-0.3771 0.06633,-0.75312 0.08062,-1.12809 0.01428,-0.37498 0.01618,-0.74849 0.0057,-1.12035 -0.01049,-0.37186 -0.0331,-0.74225 -0.0677,-1.11001 -0.0346,-0.36776 -0.08098,-0.73287 -0.13901,-1.09554 -0.05803,-0.36267 -0.12798,-0.72293 -0.208773,-1.07952 -0.08079,-0.35659 -0.17255,-0.70984 -0.275435,-1.05937 -0.102885,-0.34952 -0.216758,-0.69515 -0.341065,-1.03663 -0.124306,-0.34147 -0.259051,-0.67887 -0.404109,-1.0113 -0.145058,-0.33243 -0.300467,-0.65997 -0.465605,-0.982373 C 95.792829,99.518015 95.618,99.200957 95.433451,98.889571 95.248903,98.578185 95.054862,98.27273 94.851575,97.973348 94.648287,97.673965 94.435761,97.380723 94.214404,97.094332 93.993048,96.807941 93.762762,96.528035 93.524007,96.255623 93.285253,95.983211 93.037933,95.718285 92.78245,95.46084 92.526968,95.203395 92.26334,94.953539 91.991801,94.712048 91.720262,94.470557 91.441052,94.237415 91.154126,94.012866 90.8672,93.788317 90.572617,93.572496 90.270976,93.365877 89.969334,93.159258 89.660621,92.961884 89.344934,92.774182 89.029247,92.58648 88.706613,92.408161 88.377551,92.240365 88.04849,92.072568 87.71266,91.914946 87.370894,91.768042 87.029129,91.621138 86.681347,91.485338 86.327547,91.360315 85.973748,91.235291 85.614222,91.121406 85.24906,91.01925 c -0.365162,-0.102155 -0.736222,-0.193001 -1.112077,-0.271301 -0.375855,-0.0783 -0.756689,-0.143947 -1.142566,-0.197404 -0.385876,-0.05346 -0.776793,-0.09433 -1.172021,-0.121956 -0.395228,-0.02763 -0.794985,-0.04209 -1.198893,-0.04289 -0.403909,-8.06e-4 -0.81178,0.01176 -1.223698,0.03876 -0.381406,0.02471 -0.758084,0.06119 -1.130164,0.109037 -0.37208,0.04785 -0.739485,0.107109 -1.101741,0.17725 -0.362257,0.07014 -0.719318,0.151291 -1.071253,0.242879 -0.351935,0.09159 -0.698613,0.193736 -1.03973,0.305925 -0.341116,0.112189 -0.676857,0.234442 -1.006657,0.366386 -0.329799,0.131943 -0.654048,0.273412 -0.972033,0.424263 -0.317986,0.150851 -0.62967,0.311162 -0.935344,0.480074 -0.305673,0.168913 -0.605272,0.346658 -0.898136,0.532784 -0.292864,0.186127 -0.578789,0.380416 -0.858346,0.582911 -0.279556,0.202494 -0.552803,0.412953 -0.818554,0.630969 -0.265752,0.218015 -0.524215,0.443754 -0.775664,0.676444 -0.251448,0.232691 -0.495606,0.472301 -0.732255,0.718819 -0.236648,0.246519 -0.465946,0.500144 -0.687296,0.759644 -0.22135,0.2595 -0.434717,0.525216 -0.640271,0.796851 -0.205554,0.271634 -0.402951,0.549068 -0.592212,0.83199 -0.189261,0.282923 -0.37065,0.571183 -0.543119,0.864547 -0.17247,0.293364 -0.336262,0.59156 -0.491443,0.894519 -0.155181,0.302959 -0.301339,0.610709 -0.438733,0.922419 -0.137395,0.31171 -0.265879,0.62762 -0.38499,0.94723 -0.11911,0.31961 -0.22885,0.64279 -0.329178,0.96945 -0.100329,0.32666 -0.191286,0.65673 -0.272335,0.9896 -0.08105,0.33288 -0.152669,0.66843 -0.213941,1.00666 -0.06127,0.33824 -0.112482,0.67941 -0.153479,1.02216 -0.041,0.34275 -0.07176,0.68711 -0.09198,1.03353 -0.02022,0.34642 -0.02947,0.69462 -0.02842,1.04386 10e-4,0.34924 0.01284,0.69989 0.03566,1.0511 0.02281,0.35122 0.05621,0.70289 0.101286,1.05523 0.04508,0.35235 0.101656,0.70519 0.169498,1.05782 0.06784,0.35263 0.147125,0.70524 0.238229,1.0573 0.0911,0.35206 0.194162,0.70355 0.309025,1.0542 0.114862,0.35065 0.241736,0.70064 0.380855,1.04903 0.139119,0.3484 0.290363,0.69547 0.454236,1.04076 0.05671,0.1198 0.104581,0.24032 0.143661,0.36174 0.03908,0.12142 0.06924,0.24351 0.09147,0.36535 0.02222,0.12184 0.03623,0.2438 0.04237,0.36484 0.0061,0.12104 0.0045,0.24116 -0.0046,0.36018 -0.0092,0.11902 -0.02591,0.23665 -0.04961,0.35244 -0.0237,0.11578 -0.05453,0.22973 -0.09198,0.34106 -0.03745,0.11133 -0.08134,0.2199 -0.131775,0.32556 -0.05043,0.10567 -0.107374,0.20818 -0.170015,0.30696 -0.06264,0.0988 -0.131082,0.19406 -0.205156,0.28474 -0.07407,0.0907 -0.153498,0.17703 -0.238228,0.25838 -0.08473,0.0814 -0.174622,0.15759 -0.269234,0.22841 -0.09461,0.0708 -0.193937,0.13627 -0.297656,0.19534 -0.10372,0.0591 -0.21196,0.11203 -0.324012,0.15813 -0.112051,0.0461 -0.228173,0.0854 -0.347782,0.1173 -0.119609,0.0319 -0.242578,0.0564 -0.36897,0.0729 -0.126391,0.0165 -0.256207,0.0249 -0.388607,0.0248 H 28.596187 c -0.199277,0 -0.393499,0.02 -0.58136,0.0584 -0.18786,0.0384 -0.369497,0.095 -0.542085,0.16795 -0.172589,0.073 -0.336432,0.16249 -0.489893,0.26614 -0.153461,0.10364 -0.296368,0.22143 -0.426847,0.35191 -0.130479,0.13048 -0.248275,0.27339 -0.351917,0.42685 -0.103642,0.15346 -0.193184,0.3173 -0.266133,0.48989 -0.05118,0.12109 -0.08336,0.25145 -0.117823,0.38034 v 75.32564 a 8.3347463,8.3347463 0 0 0 8.334375,8.33489 z"
        style="fill:#000000;stroke:none;stroke-width:1.33334;stroke-dasharray:none" />
      <path id="path6976"
        d="m 104.06445,5.0126139 c -1.88611,0.2136034 -3.6428,1.0646065 -4.979542,2.4122559 L 7.4026489,99.107129 c -2.3652258,2.396491 -3.0561803,5.980731 -1.7513143,9.084721 1.2785915,3.11255 4.3033799,5.15095 7.6682654,5.16764 h 10.418486 l 34.42994,0.10749 c 0,0 -0.148862,-0.60973 -0.213941,-0.91623 -0.06508,-0.30649 -0.123744,-0.61388 -0.176216,-0.92242 -0.05247,-0.30854 -0.0986,-0.61843 -0.138493,-0.92863 -0.03989,-0.31019 -0.07395,-0.62077 -0.101286,-0.93224 -0.02734,-0.31147 -0.04823,-0.62351 -0.06304,-0.93586 -0.01482,-0.31235 -0.02352,-0.62507 -0.02584,-0.93793 -0.0046,-0.62571 0.01579,-1.252 0.06098,-1.8774 0.04534,-0.60547 0.114355,-1.205 0.205672,-1.79783 0.09132,-0.59282 0.204894,-1.17881 0.340548,-1.75699 0.135653,-0.57819 0.292933,-1.14895 0.471289,-1.71049 0.178355,-0.56155 0.377957,-1.114356 0.597379,-1.657267 0.219423,-0.542911 0.458931,-1.075556 0.717786,-1.597835 0.258854,-0.52228 0.536889,-1.034104 0.833541,-1.533757 0.296651,-0.499652 0.611831,-0.987414 0.944645,-1.462443 0.332814,-0.475028 0.68324,-0.937036 1.050582,-1.385445 0.367341,-0.448408 0.751634,-0.882971 1.151867,-1.302763 0.400234,-0.419792 0.816495,-0.825217 1.247986,-1.214396 0.431492,-0.389179 0.878339,-0.762225 1.339453,-1.118795 0.461115,-0.35657 0.936651,-0.696578 1.425753,-1.018542 0.489102,-0.321965 0.99143,-0.62621 1.506885,-0.911572 0.515455,-0.285363 1.043709,-0.551637 1.583883,-0.798401 0.540173,-0.246765 1.092456,-0.473893 1.655713,-0.680062 0.563256,-0.20617 1.13767,-0.391426 1.722375,-0.555005 0.53466,-0.149628 1.068231,-0.279642 1.599902,-0.390157 0.531671,-0.110515 1.061531,-0.201345 1.589051,-0.273885 0.52752,-0.07254 1.052375,-0.126562 1.574581,-0.162264 0.522205,-0.0357 1.041798,-0.05322 1.557527,-0.05323 0.515729,-2e-6 1.027735,0.01763 1.535824,0.05219 0.508089,0.03456 1.012249,0.08601 1.511535,0.153996 0.499286,0.06799 0.993794,0.152422 1.483114,0.252698 0.48932,0.100275 0.973399,0.216355 1.451591,0.347782 0.478192,0.131427 0.95055,0.278326 1.416451,0.439767 0.465901,0.16144 0.925247,0.337299 1.377694,0.527616 0.452446,0.190317 0.898006,0.394826 1.335835,0.612882 0.43783,0.218057 0.867795,0.449874 1.289844,0.694532 0.422049,0.244658 0.836162,0.50244 1.241268,0.772562 0.405106,0.270123 0.801558,0.552527 1.188558,0.846977 0.387001,0.29445 0.764499,0.60065 1.132231,0.91829 0.367732,0.31764 0.725502,0.646811 1.072802,0.986503 0.347301,0.339693 0.684052,0.689974 1.009758,1.050582 0.325706,0.360608 0.640663,0.731691 0.943612,1.112077 0.302948,0.380386 0.593786,0.769895 0.872815,1.168921 0.279028,0.399026 0.54601,0.807168 0.79996,1.223698 0.25394,0.41653 0.49525,0.841445 0.72295,1.274341 0.22769,0.432895 0.44204,0.873758 0.64234,1.321883 0.20029,0.448124 0.38638,0.903592 0.5581,1.365808 0.17171,0.462214 0.32878,0.931454 0.47077,1.406624 0.14199,0.47517 0.26873,0.95634 0.37983,1.44333 0.11108,0.48698 0.20673,0.97976 0.28577,1.47743 0.079,0.49766 0.14177,1.00019 0.18757,1.5074 0.0458,0.50721 0.0744,1.01918 0.0858,1.53479 0.0114,0.51561 0.006,1.03516 -0.0186,1.55804 -0.0241,0.52288 -0.0663,1.04919 -0.12712,1.5782 -0.0608,0.52901 -0.14055,1.06073 -0.23926,1.59474 -0.0987,0.534 -0.21675,1.07031 -0.3545,1.60817 h 29.5708 c 0.29876,0 0.59426,0.0149 0.88522,0.0444 0.29096,0.0296 0.57766,0.0736 0.85938,0.13126 0.28171,0.0576 0.55839,0.12861 0.8294,0.2129 0.27102,0.0843 0.53643,0.18197 0.7953,0.29146 0.25887,0.10949 0.51127,0.23108 0.75655,0.36432 0.24527,0.13323 0.48342,0.27803 0.71365,0.43356 0.23022,0.15553 0.45238,0.32178 0.66611,0.49816 0.21373,0.17638 0.41865,0.36285 0.61443,0.55862 0.19578,0.19578 0.38224,0.40072 0.55862,0.61444 0.17639,0.21372 0.34314,0.43641 0.49868,0.66662 0.15554,0.23022 0.29981,0.46788 0.43305,0.71314 0.13324,0.24526 0.25534,0.49768 0.36483,0.75654 0.1095,0.25886 0.20665,0.5243 0.29094,0.7953 0.0843,0.271 0.15578,0.54771 0.21343,0.82941 0.0576,0.2817 0.10119,0.56844 0.13074,0.85938 0.0296,0.29094 0.045,0.58596 0.045,0.8847 v 30.79708 c -5e-5,0.1324 -0.009,0.26225 -0.0253,0.38861 -0.0167,0.12637 -0.0413,0.24941 -0.0734,0.36897 -0.0321,0.11956 -0.072,0.23529 -0.11833,0.34727 -0.0463,0.11197 -0.0994,0.22039 -0.15865,0.32401 -0.0593,0.10362 -0.12482,0.20264 -0.19586,0.29714 -0.071,0.0945 -0.14735,0.18412 -0.22891,0.26871 -0.0816,0.0846 -0.16803,0.16431 -0.25891,0.23823 -0.0909,0.0739 -0.18628,0.14217 -0.28525,0.20464 -0.099,0.0625 -0.20163,0.11873 -0.30747,0.16898 -0.10585,0.0503 -0.21459,0.0945 -0.32608,0.13178 -0.11149,0.0373 -0.22566,0.068 -0.34158,0.0915 -0.11592,0.0235 -0.23382,0.0396 -0.35295,0.0486 -0.11913,0.009 -0.23959,0.0105 -0.3607,0.004 -0.12112,-0.006 -0.24296,-0.0204 -0.36484,-0.0429 -0.12188,-0.0224 -0.24392,-0.0532 -0.36535,-0.0925 -0.12142,-0.0393 -0.24199,-0.0872 -0.36173,-0.14417 -0.34524,-0.16366 -0.69244,-0.3148 -1.04077,-0.45372 -0.34833,-0.13892 -0.69793,-0.26566 -1.04851,-0.38034 -0.35058,-0.11468 -0.70222,-0.21757 -1.0542,-0.30851 -0.35198,-0.0909 -0.70424,-0.17002 -1.05678,-0.23771 -0.35254,-0.0677 -0.70505,-0.12403 -1.0573,-0.16898 -0.35226,-0.045 -0.70412,-0.0786 -1.05524,-0.10129 -0.35111,-0.0227 -0.70144,-0.0342 -1.05058,-0.0351 -0.34914,-9.4e-4 -0.69755,0.009 -1.04386,0.0289 -0.34631,0.0203 -0.69089,0.0514 -1.03353,0.0925 -0.34264,0.0411 -0.683,0.0922 -1.02113,0.15348 -0.33812,0.0613 -0.67389,0.13285 -1.00665,0.21394 -0.33276,0.0811 -0.66254,0.17198 -0.98909,0.27234 -0.32655,0.10035 -0.64995,0.21005 -0.96945,0.32917 -0.3195,0.11913 -0.63512,0.24759 -0.94671,0.38499 -0.3116,0.1374 -0.61906,0.28356 -0.92191,0.43874 -0.30285,0.15517 -0.60126,0.31951 -0.89452,0.49196 -0.29326,0.17245 -0.58121,0.35337 -0.86403,0.5426 -0.28282,0.18923 -0.56046,0.3867 -0.83199,0.59221 -0.27153,0.20551 -0.53693,0.41897 -0.79633,0.64027 -0.25941,0.2213 -0.5127,0.4502 -0.75913,0.68678 -0.24643,0.23659 -0.48621,0.48088 -0.71882,0.73226 -0.23261,0.25137 -0.45799,0.50999 -0.67593,0.77566 -0.21794,0.26567 -0.42854,0.53857 -0.63097,0.81804 -0.20242,0.27946 -0.39684,0.56558 -0.58291,0.85834 -0.18606,0.29277 -0.3634,0.59206 -0.53226,0.89762 -0.16886,0.30557 -0.32927,0.61748 -0.48008,0.93535 -0.15081,0.31786 -0.29235,0.64132 -0.42426,0.971 -0.13191,0.32967 -0.25422,0.66515 -0.36639,1.00614 -0.11217,0.34098 -0.21434,0.68793 -0.30592,1.03973 -0.0916,0.35179 -0.17222,0.70862 -0.24236,1.07073 -0.0701,0.36211 -0.12939,0.7293 -0.17725,1.10123 -0.0479,0.37192 -0.0848,0.7484 -0.10956,1.12964 -0.0269,0.41174 -0.0396,0.81997 -0.0388,1.2237 9e-4,0.40374 0.0157,0.80332 0.0434,1.19838 0.0277,0.39506 0.0685,0.78578 0.12196,1.1715 0.0535,0.38572 0.1196,0.76635 0.19792,1.14205 0.0783,0.37571 0.16914,0.74602 0.2713,1.11104 0.10216,0.36503 0.21554,0.72482 0.34055,1.07849 0.12501,0.35367 0.26137,0.70119 0.40824,1.04283 0.14688,0.34165 0.30457,0.67719 0.47232,1.00614 0.16776,0.32895 0.34566,0.6518 0.53331,0.96739 0.18764,0.31558 0.38515,0.62397 0.59169,0.92552 0.20655,0.30155 0.42201,0.59579 0.64647,0.88263 0.22447,0.28685 0.45779,0.56621 0.69918,0.83768 0.2414,0.27147 0.49094,0.53522 0.74828,0.79065 0.25734,0.25543 0.52249,0.50284 0.79478,0.74155 0.2723,0.23872 0.55193,0.46856 0.83819,0.68989 0.28627,0.22132 0.57925,0.43389 0.8785,0.63717 0.29926,0.20327 0.60446,0.39733 0.91571,0.58187 0.31125,0.18455 0.62858,0.35989 0.95085,0.52503 0.32226,0.16515 0.64956,0.32053 0.98185,0.46561 0.33229,0.14508 0.66946,0.27976 1.01079,0.40411 0.34133,0.12435 0.68673,0.23812 1.03611,0.34106 0.34939,0.10294 0.70292,0.19509 1.05937,0.27596 0.35645,0.0809 0.71595,0.15065 1.07849,0.20877 0.36253,0.0581 0.72791,0.10431 1.09554,0.13901 0.36762,0.0347 0.73776,0.0576 1.10949,0.0682 0.37173,0.0106 0.74497,0.009 1.11983,-0.005 0.37485,-0.0141 0.75111,-0.0405 1.12809,-0.0801 0.37699,-0.0396 0.75461,-0.0925 1.13275,-0.15813 0.37814,-0.0657 0.75702,-0.14425 1.13533,-0.23668 0.3783,-0.0924 0.75631,-0.19845 1.13378,-0.31833 0.37748,-0.11988 0.75399,-0.25354 1.12965,-0.40153 0.37566,-0.14798 0.75058,-0.31054 1.12345,-0.4873 0.11206,-0.052 0.22642,-0.0964 0.34261,-0.13333 0.1162,-0.037 0.23408,-0.0663 0.35295,-0.0884 0.11886,-0.022 0.23854,-0.0368 0.35864,-0.0439 0.12009,-0.007 0.24084,-0.007 0.3607,0.001 0.11986,0.008 0.23891,0.0225 0.35708,0.045 0.11817,0.0225 0.23534,0.0528 0.35037,0.0899 0.11503,0.0372 0.22804,0.0815 0.33848,0.13332 0.11043,0.0518 0.21808,0.11083 0.32246,0.17725 l 0.003,-0.007 c 0.10439,0.066 0.2039,0.13793 0.29766,0.21549 0.0938,0.0776 0.18163,0.16067 0.26407,0.24856 0.0824,0.0879 0.15901,0.18052 0.22944,0.2775 0.0704,0.097 0.13503,0.19851 0.19275,0.30334 0.0577,0.10484 0.10863,0.21309 0.15296,0.32453 0.0443,0.11144 0.0819,0.22581 0.11214,0.34262 0.0302,0.11681 0.0533,0.23615 0.0687,0.35708 0.0155,0.12093 0.0233,0.24361 0.0233,0.36742 v 15.62127 h 34.73483 c 4.60306,-2.1e-4 8.33445,-3.73183 8.33437,-8.33489 v -81.26326 c 6.2e-4,-1.14991 0.93265,-2.08194 2.08256,-2.08256 h 10.41797 c 3.36489,-0.0167 6.38968,-2.05509 7.66827,-5.16764 1.30473,-3.1041 0.61357,-6.68835 -1.75183,-9.084717 l 0.006,-0.0026 -26.17101,-26.087296 c -0.32636,-0.373916 -0.5297,-0.839233 -0.5824,-1.332736 V 21.676196 c 8e-5,-4.603465 -3.73193,-8.335252 -8.3354,-8.334891 h -25.00416 c -4.60307,2.02e-4 -8.33446,3.731824 -8.33438,8.334891 v 4.000273 c 0.004,0.831876 -0.48807,1.586143 -1.25057,1.918746 -0.7116,0.454853 -1.62262,0.454853 -2.33422,0 L 110.92036,7.4248698 c -1.79591,-1.810606 -4.32191,-2.6993796 -6.85591,-2.4122559 z"
        style="fill:#000000;stroke:none;stroke-width:1.33334;stroke-dasharray:none" />
    </g>
    <path
      d="m 26.827093,110.59084 -0.158045,-1.9163 c -0.01975,-0.13829 -0.138289,-0.25682 -0.276578,-0.25682 -0.05927,0 -0.138289,0.0198 -0.1778,0.079 -0.671691,0.57291 -1.363137,1.14583 -2.192872,1.46192 -0.829735,0.31609 -1.718737,0.3556 -2.607739,0.3556 -1.521181,0 -3.022607,-0.5334 -4.168432,-1.56069 -1.047047,-0.96803 -1.698981,-2.31141 -1.698981,-3.75357 0,-1.44216 0.651934,-2.78554 1.698981,-3.75356 1.145825,-1.02729 2.647251,-1.560695 4.168432,-1.560695 0.809979,0 1.600203,0.118533 2.331161,0.434625 0.730957,0.31609 1.363136,0.82973 1.896537,1.4224 0.03951,0.0593 0.118534,0.0988 0.197556,0.0988 0.138289,0 0.256823,-0.0988 0.276579,-0.23707 l 0.414867,-2.37067 c 0,-0.1778 -0.07902,-0.276578 -0.197556,-0.31609 -0.790224,-0.217311 -1.600203,-0.414867 -2.429939,-0.533401 -0.829735,-0.09878 -1.65947,-0.138289 -2.489205,-0.138289 -2.271894,0 -4.543788,0.612424 -6.361303,2.01507 -1.560693,1.18534 -2.667006,2.96334 -2.667006,4.9389 0,1.97556 1.106313,3.75357 2.667006,4.9389 1.817515,1.40265 4.089409,2.01507 6.361303,2.01507 0.908757,0 1.817515,-0.0198 2.706517,-0.19755 0.889002,-0.19756 1.718737,-0.5334 2.548472,-0.88901 0.09878,-0.0593 0.158045,-0.15804 0.158045,-0.27657 z"
      style="font-weight:bold;font-size:19.7556px;font-family:'Latin Modern Sans Quotation';-inkscape-font-specification:'Latin Modern Sans Quotation Bold';stroke-width:2"
      id="path8971" />
    <path
      d="m 47.649489,105.05927 c 0,-3.81283 -3.793075,-7.230552 -8.949287,-7.230552 -5.156211,0 -8.949287,3.417722 -8.949287,7.230552 0,3.79307 3.832587,7.11201 8.949287,7.11201 5.116701,0 8.949287,-3.31894 8.949287,-7.11201 z m -3.160896,-0.29634 c 0,3.61528 -2.528717,5.80815 -5.788391,5.80815 -3.259674,0 -5.788391,-2.19287 -5.788391,-5.80815 0,-3.45723 2.60774,-5.373519 5.788391,-5.373519 3.180652,0 5.788391,1.916289 5.788391,5.373519 z"
      style="font-weight:bold;font-size:19.7556px;font-family:'Latin Modern Sans Quotation';-inkscape-font-specification:'Latin Modern Sans Quotation Bold';stroke-width:2"
      id="path8968" />
    <path
      d="M 69.222604,110.88717 V 99.112832 c 0,-0.67169 -0.158044,-0.869246 -0.869246,-0.869246 h -2.015071 c -0.434623,0 -0.908758,0 -1.264359,0.730957 l -4.761099,9.759267 -4.780855,-9.759267 c -0.355601,-0.730957 -0.829735,-0.730957 -1.264359,-0.730957 h -2.015071 c -0.67169,0 -0.869246,0.158045 -0.869246,0.869246 v 11.774338 c 0,0.67169 0.158045,0.86925 0.869246,0.86925 h 0.750713 c 0.67169,0 0.869246,-0.15805 0.869246,-0.86925 v -10.0556 h 0.01976 l 4.780855,9.77902 c 0.355601,0.73096 0.829735,0.73096 1.264358,0.73096 h 0.592668 c 0.434624,0 0.908758,0 1.264359,-0.73096 l 4.820366,-9.85804 h 0.01976 v 10.13462 c 0,0.67169 0.158045,0.86925 0.869246,0.86925 h 0.849491 c 0.67169,0 0.869246,-0.15805 0.869246,-0.86925 z"
      style="font-weight:bold;font-size:19.7556px;font-family:'Latin Modern Sans Quotation';-inkscape-font-specification:'Latin Modern Sans Quotation Bold';stroke-width:2"
      id="path8965" />
    <path
      d="m 87.042149,102.64908 c 0,-2.42993 -2.904073,-4.405494 -6.321792,-4.405494 h -6.381059 c -0.67169,0 -0.869246,0.158045 -0.869246,0.869246 v 11.774338 c 0,0.67169 0.158045,0.86925 0.869246,0.86925 h 1.422403 c 0.671691,0 0.869247,-0.15805 0.869247,-0.86925 v -4.10916 h 4.109165 c 3.358452,0 6.302036,-1.81752 6.302036,-4.12893 z m -3.062118,0 c 0,1.87679 -1.698982,2.35092 -3.654786,2.35092 h -3.733808 v -4.70183 h 3.773319 c 1.995316,0 3.615275,0.47413 3.615275,2.35091 z"
      style="font-weight:bold;font-size:19.7556px;font-family:'Latin Modern Sans Quotation';-inkscape-font-specification:'Latin Modern Sans Quotation Bold';stroke-width:2"
      id="path8962" />
    <path
      d="m 102.84663,111.30204 c 0,-0.11854 -0.0593,-0.25683 -0.0988,-0.33585 L 97.413839,98.757232 C 97.097749,98.04603 96.584104,98.04603 96.208747,98.04603 h -2.291649 c -0.375357,0 -0.889002,0 -1.205092,0.711202 L 87.39775,110.92668 c -0.03951,0.0988 -0.118534,0.25682 -0.118534,0.37536 0,0.45438 0.414868,0.45438 0.711202,0.45438 h 1.205091 c 0.889002,0 1.027292,-0.33585 1.284114,-0.92852 l 0.691446,-1.6002 h 7.388595 l 0.711201,1.6002 c 0.256823,0.61243 0.414868,0.92852 1.284115,0.92852 h 1.58045 c 0.29633,0 0.7112,0 0.7112,-0.45438 z m -5.175968,-4.12892 h -5.590835 l 2.78554,-6.40082 z"
      style="font-weight:bold;font-size:19.7556px;font-family:'Latin Modern Sans Quotation';-inkscape-font-specification:'Latin Modern Sans Quotation Bold';stroke-width:2"
      id="path8959" />
    <path
      d="m 120.3896,111.26253 -4.72159,-5.74888 c 1.34338,-0.29634 4.4055,-1.24461 4.4055,-3.25968 0,-2.23238 -3.29918,-4.010384 -6.95397,-4.010384 h -6.40081 c -0.67169,0 -0.86925,0.158045 -0.86925,0.869246 v 11.774338 c 0,0.67169 0.15805,0.86925 0.86925,0.86925 h 1.38289 c 0.67169,0 0.86925,-0.15805 0.86925,-0.86925 v -5.13646 h 3.81283 l 4.56354,5.63035 c 0.29633,0.37536 0.57291,0.37536 0.94827,0.37536 h 1.46191 c 0.39512,0 0.63218,0 0.63218,-0.49389 z m -3.37821,-8.9888 c 0,1.97556 -3.10162,1.97556 -3.83258,1.97556 h -4.20794 v -3.95112 h 4.24745 c 1.46191,0 3.79307,0.15804 3.79307,1.97556 z"
      style="font-weight:bold;font-size:19.7556px;font-family:'Latin Modern Sans Quotation';-inkscape-font-specification:'Latin Modern Sans Quotation Bold';stroke-width:2"
      id="path8956" />
    <path
      d="m 140.00692,99.132588 c 0,-0.790224 -0.37535,-0.829735 -0.86924,-0.829735 h -15.68595 c -0.41487,0 -0.86925,0 -0.86925,0.809979 0,0.790224 0.37536,0.829736 0.86925,0.829736 h 6.26253 v 10.944602 c 0,0.67169 0.15804,0.86925 0.86924,0.86925 h 1.42241 c 0.67169,0 0.86924,-0.15805 0.86924,-0.86925 V 99.942568 h 6.26253 c 0.41487,0 0.86924,0 0.86924,-0.80998 z"
      style="font-weight:bold;font-size:19.7556px;font-family:'Latin Modern Sans Quotation';-inkscape-font-specification:'Latin Modern Sans Quotation Bold';stroke-width:2"
      id="path8953" />
    <path
      d="M 146.15091,110.90693 V 99.073321 c 0,-0.790224 -0.37536,-0.829735 -0.86925,-0.829735 h -1.4224 c -0.41487,0 -0.86925,0 -0.86925,0.80998 v 11.853364 c 0,0.75071 0.27658,0.84949 0.86925,0.84949 h 1.4224 c 0.57291,0 0.86925,-0.079 0.86925,-0.84949 z"
      style="font-weight:bold;font-size:19.7556px;font-family:'Latin Modern Sans Quotation';-inkscape-font-specification:'Latin Modern Sans Quotation Bold';stroke-width:2"
      id="path8950" />
    <path
      d="m 162.37026,110.94644 c 0,-0.79023 -0.37536,-0.82974 -0.86925,-0.82974 h -8.19857 V 99.112832 c 0,-0.67169 -0.15805,-0.869246 -0.86925,-0.869246 h -1.4224 c -0.67169,0 -0.86925,0.158045 -0.86925,0.869246 v 11.774338 c 0,0.67169 0.15805,0.86925 0.86925,0.86925 h 10.49022 c 0.41487,0 0.86925,0 0.86925,-0.80998 z"
      style="font-weight:bold;font-size:19.7556px;font-family:'Latin Modern Sans Quotation';-inkscape-font-specification:'Latin Modern Sans Quotation Bold';stroke-width:2"
      id="path8947" />
    <path
      d="m 197.61425,111.26253 -4.72159,-5.74888 c 1.34338,-0.29634 4.4055,-1.24461 4.4055,-3.25968 0,-2.23238 -3.29919,-4.010384 -6.95397,-4.010384 h -6.40082 c -0.67169,0 -0.86924,0.158045 -0.86924,0.869246 v 11.774338 c 0,0.67169 0.15804,0.86925 0.86924,0.86925 h 1.3829 c 0.67169,0 0.86924,-0.15805 0.86924,-0.86925 v -5.13646 h 3.81283 l 4.56355,5.63035 c 0.29633,0.37536 0.57291,0.37536 0.94827,0.37536 h 1.46191 c 0.39511,0 0.63218,0 0.63218,-0.49389 z m -3.37821,-8.9888 c 0,1.97556 -3.10163,1.97556 -3.83258,1.97556 h -4.20795 v -3.95112 h 4.24746 c 1.46191,0 3.79307,0.15804 3.79307,1.97556 z"
      style="font-weight:bold;font-size:19.7556px;font-family:'Latin Modern Sans Quotation';-inkscape-font-specification:'Latin Modern Sans Quotation Bold';stroke-width:2"
      id="path8941" />
  </g>
</svg>