<svg xmlns="http://www.w3.org/2000/svg" viewBox="0 0 210 210" fill="currentColor">
    <defs id="defs7252">
        <path id="rect11237" d="M-53.418 680.875h687.305v105.898H-53.418z"></path>
    </defs>
    <g id="layer1">
        <defs id="defs7252">
            <path id="rect11237" d="M-53.418 680.875h687.305v105.898H-53.418z"></path>
        </defs>
        <g id="layer1">
            <g id="g6983">
                <path id="path6817"
                    d="m135.339 205.04-.001-11.516a23.2 23.2 0 0 1-7.014.649 23 23 0 0 1-8.328-2.114 23.1 23.1 0 0 1-5.762-3.822 23 23 0 0 1-3.499-4 24 24 0 0 1-1.664-2.8 23 23 0 0 1-1.67-4.361 22.5 22.5 0 0 1-.724-7.408 23 23 0 0 1 .383-2.908 23.3 23.3 0 0 1 1.244-4.194 23.6 23.6 0 0 1 4.685-7.341 23 23 0 0 1 2.152-2.009 22.7 22.7 0 0 1 3.723-2.48 22.5 22.5 0 0 1 4.268-1.735 23 23 0 0 1 3.12-.684q.805-.12 1.636-.188a23.4 23.4 0 0 1 7.45.68v-26.686a2.9 2.9 0 0 0-.226-1.123 2.87 2.87 0 0 0-1.045-1.269 2.88 2.88 0 0 0-1.614-.492H98.78a2.9 2.9 0 0 1-1.105-.215 2.84 2.84 0 0 1-1.13-.84 2.94 2.94 0 0 1-.648-1.612 2.8 2.8 0 0 1 .13-1.09q.057-.182.143-.362a18 18 0 0 0 .89-2.253 17.4 17.4 0 0 0 .714-3.403 16.9 16.9 0 0 0-.329-5.534 17.3 17.3 0 0 0-1.486-4.09 17.6 17.6 0 0 0-2.434-3.584 17.6 17.6 0 0 0-3.253-2.89 17 17 0 0 0-2.9-1.598 17 17 0 0 0-4.377-1.217 17 17 0 0 0-2.37-.165 18 18 0 0 0-3.456.325 17.3 17.3 0 0 0-3.118.915 17 17 0 0 0-5.258 3.327 17.4 17.4 0 0 0-2.652 3.108 17.6 17.6 0 0 0-1.858 3.628 17.4 17.4 0 0 0-.97 3.988 17 17 0 0 0 .187 5.242 17 17 0 0 0 .928 3.16q.209.523.454 1.041a3 3 0 0 1 .235.727 2.84 2.84 0 0 1-.235 1.744 2.93 2.93 0 0 1-1.18 1.274 2.8 2.8 0 0 1-1.041.348 3 3 0 0 1-.389.025H28.596a2.9 2.9 0 0 0-1.123.227 2.9 2.9 0 0 0-1.269 1.044 3 3 0 0 0-.266.49c-.051.121-.083.252-.118.38v75.326a8.335 8.335 0 0 0 8.335 8.335z">
                </path>
                <path id="path6976"
                    d="M104.064 5.013a8.34 8.34 0 0 0-4.98 2.412L7.404 99.107a8.335 8.335 0 0 0-1.752 9.085 8.335 8.335 0 0 0 7.669 5.167h10.418l34.43.108s-.149-.61-.214-.916a23 23 0 0 1-.479-3.72 24 24 0 0 1 .035-2.815 23.2 23.2 0 0 1 1.615-6.922 23 23 0 0 1 3.547-5.98 23.1 23.1 0 0 1 6.672-5.566 23 23 0 0 1 4.962-2.033 24 24 0 0 1 3.189-.664 23 23 0 0 1 3.132-.216 22.6 22.6 0 0 1 11.401 3.082 23.3 23.3 0 0 1 3.563 2.537 23.6 23.6 0 0 1 4.699 5.542 23 23 0 0 1 1.923 3.962 22.7 22.7 0 0 1 1.324 5.835 23 23 0 0 1 .067 3.093 23 23 0 0 1-.366 3.173q-.149.801-.355 1.608h29.57a8.8 8.8 0 0 1 1.746.176 8.6 8.6 0 0 1 3.76 1.8 8.7 8.7 0 0 1 2.761 4.105 8.6 8.6 0 0 1 .39 2.573v30.797a3 3 0 0 1-.1.758 2.8 2.8 0 0 1-.472.968 2.9 2.9 0 0 1-.773.712 2.9 2.9 0 0 1-1.328.44 2.8 2.8 0 0 1-1.091-.13 3 3 0 0 1-.362-.145 18 18 0 0 0-2.09-.834 17.4 17.4 0 0 0-3.168-.715 17 17 0 0 0-4.183-.015 17.2 17.2 0 0 0-4.933 1.354 17.5 17.5 0 0 0-5.787 4.125 17.3 17.3 0 0 0-2.422 3.35 17 17 0 0 0-1.819 5.022 18 18 0 0 0-.286 2.231 18 18 0 0 0 .004 2.422 17 17 0 0 0 .32 2.314 17 17 0 0 0 2.617 6.131 17.3 17.3 0 0 0 2.094 2.511 17.6 17.6 0 0 0 4.378 3.176 17.6 17.6 0 0 0 3.03 1.21 17.3 17.3 0 0 0 3.233.624 16.95 16.95 0 0 0 6.759-.73 18 18 0 0 0 2.253-.889 2.9 2.9 0 0 1 1.415-.264 3 3 0 0 1 .707.135 3 3 0 0 1 .661.31l.003-.007a2.9 2.9 0 0 1 .984 1.045 2.9 2.9 0 0 1 .357 1.392v15.62h34.735a8.335 8.335 0 0 0 8.334-8.334v-81.263c.001-1.15.933-2.082 2.083-2.083h10.418a8.335 8.335 0 0 0 7.668-5.167 8.335 8.335 0 0 0-1.752-9.085l.006-.003-26.17-26.087a2.4 2.4 0 0 1-.583-1.333V21.676a8.335 8.335 0 0 0-8.335-8.335H142.51a8.335 8.335 0 0 0-8.334 8.335v4a2.08 2.08 0 0 1-1.25 1.92 2.17 2.17 0 0 1-2.335 0l-19.67-20.171a8.34 8.34 0 0 0-6.857-2.412">
                </path>
            </g>
        </g>
    </g>
</svg>