<svg xmlns="http://www.w3.org/2000/svg" viewBox="0 0 210 210">
    <g id="layer4" fill="currentColor">
        <g id="g11114" fillOpacity="1" stroke="none"
            transform="matrix(1.61726 0 0 1.61726 -303.705 28.261)">
            <path id="path3410"
                d="M198.202 36.258c.51-.149 1.403-.533 1.985-.853 1.437-.79 10.86-6.1 18.124-10.211a5380 5380 0 0 1 12.303-6.938c3.492-1.962 9.826-5.548 14.075-7.97 8.763-4.993 7.916-4.702 10.002-3.442.873.528 4.862 2.806 8.864 5.064 4.001 2.257 13.526 7.646 21.166 11.974 21.122 11.967 21.873 12.373 23.483 12.708 6.118 1.27 11.272-5.049 8.802-10.79-.98-2.28-1.056-2.331-15.043-10.117-6.424-3.576-5.648-1.756-5.694-13.35-.05-12.408.09-12.133-6.208-12.27-6.51-.142-6.927.377-6.927 8.607 0 4.882-.054 5.626-.406 5.626-.224 0-6.385-3.375-13.693-7.501a4044 4044 0 0 0-14.893-8.384c-1.845-1.013 1.792-2.858-29.481 14.959-9.24 5.264-20.551 11.699-25.135 14.3-10.744 6.095-11.73 7.04-11.737 11.233-.008 5.419 4.98 8.942 10.413 7.355">
            </path>
            <path id="path3408"
                d="M196.129 58.112c26.36-11.387 86.127-11.696 111.876-.577 1.673.723 3.191 1.375 3.373 1.45.92.38-.159-5.073-1.634-8.266-6.17-13.354-21.034-18.2-55.847-18.205-41.202-.006-60.192 8.131-60.192 25.791 0 .93-.217.948 2.424-.193">
            </path>
            <path id="path3406"
                d="M208.264 88.948c11.481-6.794 24.097-9.51 44.178-9.51 20.938 0 33.456 2.695 45.43 9.78 3.29 1.947 3.169 1.945 4.624.076 6.332-8.132 9.559-17.752 6.7-19.971-10.813-8.392-43.47-12.25-79.135-9.348-15.574 1.266-33.638 6.714-35.127 10.594-.825 2.15 4.94 14.46 8.956 19.122 1.183 1.374.642 1.466 4.374-.743">
            </path>
            <path id="path3404"
                d="M227.728 106.682c10.013-3.445 39.006-3.496 50.172-.088 2.69.82 2.715.815 7.483-1.556 6.226-3.096 9.403-5.983 8.003-7.27-11.08-10.182-60.146-11.977-76.927-2.814-5.805 3.17-5.565 4.357 1.77 8.742 5.278 3.155 7.227 3.768 9.499 2.986">
            </path>
        </g>
    </g>
</svg>