<svg xmlns="http://www.w3.org/2000/svg" viewBox="0 0 32 32" id="Home-Chimney-2--Streamline-Freehand" fill="currentColor" stroke="none">
    <desc>{"Receipt View Pricing Streamline Icon: https://streamlinehq.com"}</desc>
    <path fillRule="evenodd"
        d="m19.60373333333333 1.362 3.219333333333333 0.31928c0.17293333333333333 0 0.6252 0.2527466666666667 0.7981333333333334 0.15962666666666664 0.0022666666666666664 0.4446933333333333 -0.024399999999999998 0.8890666666666666 -0.07973333333333332 1.3302933333333333l-0.13306666666666667 6.172546666666666c-0.00013333333333333334 0.12957333333333332 0.049466666666666666 0.25427999999999995 0.13853333333333334 0.34836 0.08906666666666666 0.09406666666666666 0.21093333333333333 0.15032 0.34040000000000004 0.15714666666666666 0.13533333333333333 0.00004 0.2653333333333333 -0.05278666666666666 0.3622666666666666 -0.14722666666666667 0.0968 -0.09444 0.15306666666666666 -0.223 0.15653333333333333 -0.35828 0.11973333333333333 -1.46332 0.4789333333333333 -2.886733333333333 0.6784 -4.3367466666666665 0.07746666666666666 -0.6536266666666666 0.12186666666666665 -1.3107333333333333 0.13306666666666667 -1.9688266666666667 0.0092 -0.6397866666666666 -0.05773333333333333 -1.2783733333333331 -0.1996 -1.9023173333333334 -0.08826666666666666 -0.31910666666666665 -0.286 -0.5969573333333333 -0.5586666666666666 -0.784872 -0.15 -0.09423733333333334 -0.3173333333333333 -0.15755599999999997 -0.49226666666666663 -0.18624h-0.9975999999999999l-3.3524 0.2527546666666667c-0.11666666666666665 0.0031479999999999998 -0.228 0.05001866666666666 -0.3117333333333333 0.13132666666666665 -0.08373333333333333 0.08130666666666667 -0.13386666666666666 0.19111599999999998 -0.14053333333333332 0.30766933333333335 -0.0054666666666666665 0.062233333333333335 0.0017333333333333333 0.12492666666666666 0.02093333333333333 0.1843453333333333 0.019333333333333334 0.05941733333333333 0.0504 0.11434666666666667 0.09133333333333334 0.16151466666666664 0.040933333333333335 0.047167999999999995 0.09093333333333332 0.08561066666666667 0.14706666666666665 0.11303866666666665 0.05613333333333333 0.02743333333333333 0.1172 0.04327333333333333 0.17959999999999998 0.046606666666666664Z"
        clipRule="evenodd" />
    <path fillRule="evenodd"
        d="M31.6296 28.3536c-0.37986666666666663 -0.8572 -0.9016 -1.6442666666666668 -1.5432 -2.328 -0.8394666666666667 -0.8784000000000001 -1.7277333333333333 -1.7089333333333334 -2.6605333333333334 -2.487733333333333 0.6753333333333332 -0.5294666666666666 1.2265333333333333 -1.2005333333333332 1.6149333333333333 -1.965733333333333 0.38839999999999997 -0.7653333333333332 0.6045333333333334 -1.6064 0.6332 -2.4641333333333333 0.07319999999999999 -1.8503999999999998 -0.5058666666666667 -3.667866666666667 -1.6361333333333334 -5.1348 -0.8914666666666666 -1.2167866666666667 -2.134933333333333 -2.1306933333333333 -3.5622666666666665 -2.6183733333333334 -1.4273333333333333 -0.48767999999999995 -2.9698666666666664 -0.52564 -4.419466666666667 -0.10877333333333333 -1.2733333333333332 0.3677066666666667 -2.4350666666666667 1.0467066666666667 -3.3802666666666665 1.9756933333333333 -0.9453333333333332 0.9290533333333333 -1.6442666666666668 2.078786666666667 -2.034133333333333 3.3454533333333334 -0.41159999999999997 1.2451999999999999 -0.49426666666666663 2.5755999999999997 -0.24026666666666666 3.8622666666666667 0.254 1.2865333333333333 0.8363999999999999 2.4856 1.6904 3.480933333333333 1.2698666666666667 1.3374666666666668 3.012533333333333 2.1252 4.855466666666667 2.194933333333333 1.3710666666666667 0.104 2.7458666666666667 -0.148 3.990933333333333 -0.7315999999999999 0.5054666666666666 1.1174666666666666 0.8646666666666666 2.3546666666666667 1.3302666666666667 3.5119999999999996 0.22999999999999998 0.5844 0.5150666666666666 1.1456 0.8513333333333333 1.6761333333333335 0.4537333333333333 0.6172 1.0849333333333333 1.0812 1.8092 1.3302666666666667 0.5711999999999999 0.17746666666666666 1.1881333333333333 0.13479999999999998 1.7294666666666665 -0.11973333333333333 0.2612 -0.12533333333333332 0.49466666666666664 -0.3017333333333333 0.6866666666666666 -0.5187999999999999 0.19186666666666666 -0.21706666666666666 0.33840000000000003 -0.47026666666666667 0.43066666666666664 -0.7449333333333332 0.21239999999999998 -0.7125333333333332 0.1605333333333333 -1.4778666666666667 -0.14626666666666666 -2.1550666666666665Zm-1.7293333333333332 1.8490666666666666c-0.11253333333333333 0.0524 -0.2352 0.07946666666666666 -0.35919999999999996 0.07946666666666666 -0.12413333333333333 0 -0.24666666666666665 -0.027066666666666662 -0.35919999999999996 -0.07946666666666666 -0.3221333333333333 -0.13786666666666667 -0.6086666666666667 -0.3472 -0.8381333333333334 -0.6118666666666666 -0.3372 -0.4152 -0.6355999999999999 -0.8605333333333333 -0.8912 -1.3304 -0.6253333333333333 -1.1173333333333333 -1.1441333333333332 -2.3411999999999997 -1.7959999999999998 -3.4054666666666664 -0.6517333333333333 -1.0642666666666667 -2.7669333333333332 0.3192 -4.616 0.09306666666666666 -1.5049333333333332 -0.10666666666666666 -2.9064 -0.8050666666666666 -3.8978666666666664 -1.942133333333333 -0.6462666666666667 -0.8335999999999999 -1.0717333333333332 -1.8169333333333333 -1.2368 -2.8586666666666667 -0.16519999999999999 -1.0418666666666665 -0.06453333333333333 -2.108533333333333 0.2924 -3.1010666666666666 0.32786666666666664 -0.9902666666666666 0.8896 -1.8869333333333334 1.6376 -2.614 0.7478666666666666 -0.7272 1.6601333333333335 -1.2633066666666666 2.6592 -1.5631333333333333 1.1452 -0.3454933333333333 2.3667999999999996 -0.3454933333333333 3.5119999999999996 0 1.1601333333333332 0.36535999999999996 2.1872 1.0639333333333334 2.9532 2.0087333333333333 0.9905333333333333 1.1878666666666666 1.5362666666666664 2.683733333333333 1.5432 4.230266666666666 0.011866666666666666 0.7470666666666667 -0.15159999999999998 1.4864 -0.4773333333333333 2.1588 -0.32586666666666664 0.6722666666666666 -0.8048 1.2588 -1.3983999999999999 1.7124 -0.35919999999999996 0.25279999999999997 -0.14639999999999997 0.9710666666666665 0 1.0908 0.7714666666666666 0.8381333333333334 1.7293333333333332 1.7826666666666666 2.5009333333333332 2.8069333333333333 0.47506666666666664 0.6028 0.8438666666666667 1.2821333333333333 1.0908 2.0088 0.10319999999999999 0.2852 0.13066666666666665 0.5922666666666666 0.07986666666666667 0.8912 -0.022266666666666664 0.10026666666666667 -0.07093333333333332 0.19266666666666665 -0.1412 0.26759999999999995s-0.15933333333333333 0.1296 -0.25786666666666663 0.15813333333333332Z"
        clipRule="evenodd" />
    <path fillRule="evenodd"
        d="M24.219866666666665 17.538266666666665c-0.35253333333333337 -0.08533333333333333 -0.7152 -0.12119999999999999 -1.0774666666666666 -0.1064 0.006533333333333333 -0.09293333333333333 0.006533333333333333 -0.18626666666666664 0 -0.2793333333333333v-1.0242666666666667c0.32426666666666665 0.028133333333333333 0.6425333333333333 0.10439999999999999 0.9444 0.22613333333333333 0.05146666666666667 0.0276 0.10786666666666667 0.04479999999999999 0.16599999999999998 0.0504 0.05813333333333333 0.005599999999999999 0.11666666666666665 -0.0005333333333333334 0.17253333333333332 -0.017866666666666666 0.05573333333333333 -0.017333333333333333 0.10746666666666667 -0.0456 0.15213333333333331 -0.0832 0.04466666666666667 -0.037599999999999995 0.08133333333333333 -0.08360000000000001 0.108 -0.1356 0.027466666666666667 -0.0504 0.04426666666666666 -0.10586666666666666 0.04973333333333333 -0.16293333333333332 0.0054666666666666665 -0.0572 -0.0006666666666666666 -0.11479999999999999 -0.01813333333333333 -0.16946666666666665 -0.017333333333333333 -0.05466666666666667 -0.0456 -0.10519999999999999 -0.08306666666666666 -0.14866666666666667 -0.03746666666666666 -0.04346666666666666 -0.08333333333333333 -0.07893333333333333 -0.13479999999999998 -0.10426666666666667 -0.4356 -0.2392 -0.9074666666666666 -0.40546666666666664 -1.3968 -0.49226666666666663v-1.3302666666666667c-0.009999999999999998 -0.1164 -0.06346666666666667 -0.2248 -0.14973333333333333 -0.3037333333333333 -0.08626666666666666 -0.0788 -0.19893333333333332 -0.12240000000000001 -0.31586666666666663 -0.12186666666666665 -0.11573333333333333 -0.007653333333333333 -0.22999999999999998 0.02946666666666667 -0.3192 0.10386666666666666 -0.08906666666666666 0.07426666666666666 -0.14626666666666666 0.17986666666666665 -0.15973333333333334 0.2952 -0.09306666666666666 0.4124 -0.14626666666666666 0.8379999999999999 -0.22613333333333333 1.2504 -0.36733333333333335 -0.0092 -0.7341333333333333 0.031066666666666666 -1.0908 0.11973333333333333 -0.26666666666666666 0.0476 -0.5209333333333332 0.14839999999999998 -0.7478666666666666 0.2961333333333333 -0.22693333333333332 0.14786666666666665 -0.42186666666666667 0.33973333333333333 -0.5733333333333333 0.5642666666666667 -0.15133333333333332 0.2245333333333333 -0.256 0.4773333333333333 -0.3078666666666666 0.7430666666666667 -0.05186666666666666 0.26586666666666664 -0.04973333333333333 0.5393333333333333 0.006133333333333333 0.8043999999999999 0.0304 0.32253333333333334 0.15146666666666667 0.6298666666666666 0.3492 0.8863999999999999 0.19773333333333332 0.25666666666666665 0.46413333333333334 0.452 0.7682666666666667 0.5636 0.3628 0.12866666666666665 0.7457333333333334 0.19173333333333334 1.1306666666666665 0.18626666666666664v0.8646666666666666c0 0.29266666666666663 0.07986666666666667 0.5986666666666667 0.1064 0.9045333333333333 -0.698 0.05639999999999999 -1.3940000000000001 -0.1317333333333333 -1.9687999999999999 -0.532 -0.09986666666666666 -0.06639999999999999 -0.22013333333333332 -0.09493333333333333 -0.3393333333333333 -0.0808 -0.11906666666666667 0.014266666666666665 -0.2292 0.07026666666666666 -0.31079999999999997 0.15826666666666667 -0.08159999999999999 0.088 -0.12919999999999998 0.20199999999999999 -0.1344 0.32186666666666663 -0.0052 0.11986666666666665 0.0324 0.23759999999999998 0.10613333333333333 0.33226666666666665 0.7716 0.6709333333333333 1.7577333333333334 1.0437333333333334 2.7802666666666664 1.0509333333333333 0 0.4124 0.07986666666666667 0.8248 0.13306666666666667 1.2371999999999999 0.010133333333333333 0.12933333333333333 0.06973333333333333 0.24986666666666668 0.16626666666666667 0.33653333333333335 0.09666666666666665 0.08666666666666667 0.2228 0.13279999999999997 0.35253333333333337 0.12906666666666666 0.06586666666666666 -0.0017333333333333333 0.13066666666666665 -0.01653333333333333 0.19053333333333333 -0.04373333333333333 0.06 -0.027200000000000002 0.11386666666666667 -0.06613333333333332 0.15853333333333333 -0.11453333333333333 0.04466666666666667 -0.048266666666666666 0.07919999999999999 -0.10519999999999999 0.10146666666666666 -0.16706666666666664 0.022266666666666664 -0.062 0.032 -0.1277333333333333 0.028399999999999998 -0.19346666666666668 0 -0.4124 0 -0.8248 0.07973333333333332 -1.2371999999999999 0.23826666666666665 -0.018266666666666667 0.47426666666666667 -0.05826666666666667 0.7050666666666667 -0.11973333333333333 0.3328 -0.06933333333333333 0.6478666666666666 -0.20639999999999997 0.9253333333333332 -0.40279999999999994 0.27746666666666664 -0.19626666666666664 0.5114666666666666 -0.4477333333333333 0.6874666666666666 -0.7385333333333333 0.176 -0.2909333333333333 0.2901333333333333 -0.6148 0.3353333333333333 -0.9517333333333333 0.04533333333333334 -0.3369333333333333 0.020666666666666667 -0.6796 -0.07239999999999999 -1.0065333333333333 -0.06973333333333333 -0.32066666666666666 -0.22546666666666665 -0.6164 -0.45039999999999997 -0.8554666666666666 -0.22493333333333332 -0.23906666666666665 -0.5106666666666666 -0.4124 -0.8266666666666667 -0.5014666666666666Zm-3.5252 -0.3192c-0.15973333333333334 -0.6518666666666666 0.35906666666666665 -0.9445333333333333 0.9577333333333333 -1.0776 0 0.3193333333333333 -0.14626666666666666 0.6253333333333333 -0.17293333333333333 0.9445333333333333 -0.026533333333333332 0.3193333333333333 0 0.26613333333333333 0 0.3990666666666667 -0.16373333333333334 0.013733333333333334 -0.32839999999999997 0.013733333333333334 -0.4921333333333333 0 -0.06893333333333333 -0.012399999999999998 -0.13293333333333332 -0.043866666666666665 -0.18466666666666667 -0.09093333333333332 -0.05173333333333333 -0.04706666666666666 -0.0892 -0.10773333333333332 -0.108 -0.17506666666666665Zm2.328 3.498666666666667v-1.6229333333333333c0.1681333333333333 -0.013600000000000001 0.3372 -0.013600000000000001 0.5054666666666666 0 0.07093333333333332 -0.0048 0.14146666666666666 0.013333333333333332 0.2013333333333333 0.05173333333333333 0.05973333333333333 0.038266666666666664 0.10586666666666666 0.09466666666666665 0.13119999999999998 0.16106666666666666 0.3193333333333333 0.7449333333333332 -0.18626666666666664 1.1706666666666665 -0.8379999999999999 1.4101333333333335Z"
        clipRule="evenodd" />
    <path fillRule="evenodd"
        d="M17.555066666666665 25.746266666666664c-1.1306666666666665 0.4656 -2.248133333333333 0.9045333333333333 -3.3922666666666665 1.3302666666666667 -0.7494666666666667 0.24333333333333332 -1.5137466666666666 0.43879999999999997 -2.288053333333333 0.5853333333333333 -0.49104 -0.03866666666666667 -0.9850933333333334 0.0017333333333333333 -1.46332 0.11973333333333333 -0.20717333333333332 -0.3092 -0.39810666666666666 -0.6289333333333333 -0.5720266666666667 -0.9578666666666666 -0.6385333333333333 -1.2238666666666667 -1.1307466666666666 -2.6605333333333334 -1.7027733333333332 -3.738133333333333 -0.7981733333333333 -1.5031999999999999 -1.5564399999999998 -2.966533333333333 -2.328 -4.429866666666666 -0.7715733333333332 -1.4633333333333332 -1.5564399999999998 -2.9265333333333334 -2.2748 -4.416533333333333C2.6824399999999997 12.416706666666666 1.8044533333333332 10.541 1.046188 8.638693333333332 2.680813333333333 7.454359999999999 4.377093333333333 6.357546666666666 6.127893333333333 5.35288 7.992719999999999 4.278266666666666 9.957466666666665 3.3872400000000003 11.994466666666668 2.6922933333333328 13.043333333333333 2.2017333333333333 14.1528 1.8527999999999998 15.2936 1.6546666666666667c1.0345333333333333 0.7933999999999999 1.8683999999999998 1.8186266666666664 2.4344 2.99316 1.0908 2.035333333333333 1.7826666666666666 4.23032 2.6206666666666667 6.0262 0.025333333333333333 0.06289333333333333 0.0628 0.12018666666666666 0.11026666666666665 0.16858666666666666 0.047466666666666664 0.048413333333333336 0.104 0.087 0.1664 0.11356 0.0624 0.02656 0.12946666666666667 0.04057333333333333 0.1972 0.04124 0.06773333333333333 0.0006533333333333332 0.13506666666666667 -0.012039999999999999 0.19799999999999998 -0.03737333333333333 0.0628 -0.02532 0.12013333333333333 -0.0628 0.16853333333333334 -0.11026666666666665 0.0484 -0.047466666666666664 0.08706666666666665 -0.10401333333333332 0.11359999999999999 -0.16638666666666665 0.026533333333333332 -0.06238666666666666 0.04053333333333333 -0.12938666666666665 0.0412 -0.19718666666666665 0.0006666666666666666 -0.0678 -0.011999999999999999 -0.13505333333333333 -0.03733333333333333 -0.19794666666666666 -0.7558666666666666 -2.481333333333333 -1.6802666666666666 -4.90812 -2.7670666666666666 -7.263386666666666 -0.5805333333333333 -1.0668799999999998 -1.3781333333333334 -2.00038 -2.341333333333333 -2.740394666666666 -0.4250666666666666 -0.24896053333333334 -0.9249333333333333 -0.338554 -1.4100000000000001 -0.25275479999999995C13.646533333333332 0.2898653333333333 12.529413333333332 0.645928 11.449053333333334 1.0959493333333332 9.756453333333333 1.74836 8.123053333333333 2.5450399999999997 6.566893333333333 3.4771733333333334 -1.8671466666666667 8.51896 -0.9093373333333333 7.468039999999999 2.9618 16.341066666666666c0.5454266666666666 1.3302666666666667 1.1307466666666666 2.554133333333333 1.7559866666666668 3.8046666666666664 0.62524 1.2504 1.2903866666666666 2.5009333333333332 1.95552 3.6981333333333333 0.6651466666666667 1.1973333333333334 1.1440533333333334 2.4610666666666665 1.8225066666666667 3.6582666666666666 0.3191866666666666 0.5625333333333333 0.6983199999999999 1.0889333333333333 1.1307466666666666 1.5698666666666665 0.09798666666666667 0.09813333333333332 0.21756 0.1721333333333333 0.34921333333333326 0.21613333333333332 0.13163999999999998 0.043866666666666665 0.27170666666666665 0.05639999999999999 0.40903999999999996 0.036533333333333334 0.5975866666666666 -0.10146666666666666 1.18844 -0.2392 1.7692933333333332 -0.4124 0.8172799999999999 -0.20893333333333333 1.6213600000000001 -0.4665333333333333 2.4077599999999997 -0.7716 1.1574666666666666 -0.4389333333333333 2.2748 -0.9577333333333333 3.3922666666666665 -1.4898666666666665 0.06133333333333333 -0.025866666666666666 0.11666666666666665 -0.06386666666666665 0.1628 -0.11173333333333332 0.04613333333333333 -0.04786666666666667 0.08213333333333334 -0.10466666666666666 0.10573333333333332 -0.16679999999999998 0.0236 -0.06213333333333333 0.0344 -0.12853333333333333 0.031733333333333336 -0.19493333333333332 -0.0026666666666666666 -0.06639999999999999 -0.018933333333333333 -0.1316 -0.047466666666666664 -0.19173333333333334 -0.054933333333333334 -0.11786666666666668 -0.15439999999999998 -0.20933333333333332 -0.2765333333333333 -0.25426666666666664 -0.12213333333333333 -0.04479999999999999 -0.25706666666666667 -0.039466666666666664 -0.3753333333333333 0.014933333333333333Z"
        clipRule="evenodd" />
    <path fillRule="evenodd"
        d="m8.52244 9.011173333333332 1.4899333333333333 -0.74496c1.48992 -0.7981733333333333 2.9665466666666664 -1.6096533333333334 4.522959999999999 -2.36792 0.10759999999999999 -0.05973333333333333 0.1896 -0.15664 0.2308 -0.27254666666666666 0.0412 -0.11592 0.0388 -0.24287999999999998 -0.006933333333333333 -0.3571066666666667 -0.0456 -0.11421333333333333 -0.13146666666666665 -0.20785333333333333 -0.2412 -0.26337333333333335 -0.10973333333333332 -0.05550666666666666 -0.236 -0.06908 -0.35506666666666664 -0.03817333333333333 -1.2239333333333333 0.39908 -2.4211866666666664 0.7582666666666666 -3.59184 1.2238666666666667 -0.5188133333333333 0.19954666666666665 -1.0110266666666665 0.4256933333333333 -1.5032266666666667 0.6651466666666667 -0.4958666666666667 0.23930666666666667 -0.9757733333333333 0.5103599999999999 -1.4367199999999998 0.8114666666666667 -1.06548 0.7145199999999999 -2.06696 1.52016 -2.9931466666666666 2.407826666666667 -0.08471999999999999 0.07242666666666667 -0.13973333333333332 0.1735733333333333 -0.15445333333333333 0.28403999999999996 -0.014733333333333334 0.11048 0.01184 0.22250666666666666 0.07464 0.3146 0.07097333333333333 0.09113333333333332 0.1750133333333333 0.15062666666666666 0.28957333333333335 0.16557333333333332 0.11454666666666666 0.014933333333333333 0.23037333333333332 -0.01588 0.32236 -0.08576 0.6119333333333333 -0.3857866666666666 1.2105599999999999 -0.7183599999999999 1.8357999999999999 -1.0376266666666667 0.6252266666666666 -0.31926666666666664 0.9977066666666665 -0.4522933333333333 1.5165199999999999 -0.7050533333333333Z"
        clipRule="evenodd" />
    <path fillRule="evenodd"
        d="M17.501866666666665 8.95796c-0.028399999999999998 -0.05893333333333334 -0.06813333333333332 -0.11163999999999999 -0.11706666666666667 -0.15502666666666665 -0.04906666666666666 -0.04337333333333333 -0.10613333333333333 -0.07655999999999999 -0.16799999999999998 -0.09761333333333333 -0.062 -0.02105333333333333 -0.12746666666666667 -0.029559999999999996 -0.19266666666666665 -0.025013333333333332 -0.06533333333333333 0.00456 -0.12893333333333332 0.022066666666666665 -0.18746666666666667 0.05150666666666666 -1.2370666666666665 0.5055066666666667 -2.4742666666666664 0.9844133333333334 -3.6981466666666667 1.52984 -0.5188133333333333 0.22614666666666666 -1.0376266666666667 0.4788933333333333 -1.5431333333333335 0.7316533333333333 -0.5055066666666667 0.25276 -1.0110133333333333 0.5454266666666666 -1.48992 0.8513866666666666 -1.1440533333333334 0.7050533333333333 -2.20828 1.4899733333333334 -3.2991200000000003 2.2881066666666667 -0.056639999999999996 0.025599999999999998 -0.10719999999999999 0.06293333333333333 -0.14833333333333332 0.10946666666666667 -0.041146666666666665 0.04653333333333333 -0.07193333333333332 0.10133333333333333 -0.09033333333333333 0.16066666666666665 -0.018386666666666666 0.05933333333333333 -0.023973333333333333 0.122 -0.01637333333333333 0.18359999999999999 0.0076 0.061733333333333335 0.028199999999999996 0.12106666666666667 0.06045333333333333 0.1741333333333333 0.03225333333333333 0.0532 0.07541333333333333 0.0988 0.12662666666666667 0.134 0.05121333333333333 0.035199999999999995 0.10931999999999999 0.0592 0.17046666666666666 0.07026666666666666 0.06114666666666666 0.010933333333333333 0.12394666666666666 0.008933333333333333 0.18425333333333332 -0.005999999999999999 0.06029333333333334 -0.015066666666666666 0.11672 -0.042666666666666665 0.1655333333333333 -0.0812 1.1972666666666667 -0.572 2.407826666666667 -1.0642666666666667 3.605093333333333 -1.6229333333333333l1.5165199999999999 -0.7715733333333332c0.50552 -0.2660533333333333 0.9977466666666667 -0.5454133333333333 1.47668 -0.8247733333333334 1.1573333333333333 -0.6651466666666667 2.2748 -1.3302933333333333 3.4187999999999996 -2.0353466666666664 0.05893333333333334 -0.028346666666666666 0.11159999999999999 -0.06817333333333334 0.15506666666666666 -0.11712 0.043333333333333335 -0.048960000000000004 0.07653333333333333 -0.10606666666666666 0.09759999999999999 -0.16799999999999998 0.021066666666666668 -0.06192 0.02946666666666667 -0.12742666666666666 0.024933333333333335 -0.19268 -0.004533333333333333 -0.06523999999999999 -0.022 -0.12893333333333332 -0.05146666666666667 -0.18734666666666666Z"
        clipRule="evenodd" />
    <path fillRule="evenodd"
        d="M11.648613333333332 16.500666666666667c-0.2624666666666666 0.09813333333333332 -0.5161333333333333 0.21826666666666666 -0.7582666666666666 0.35919999999999996 -0.24216 0.13053333333333333 -0.4696 0.2865333333333333 -0.6784533333333332 0.4656 -0.48059999999999997 0.4046666666666666 -0.9256533333333332 0.8497333333333332 -1.33028 1.3302666666666667 -0.052719999999999996 0.03213333333333333 -0.09809333333333332 0.07493333333333332 -0.13316 0.1256 -0.03506666666666666 0.0508 -0.059039999999999995 0.1084 -0.07034666666666667 0.16906666666666664 -0.011319999999999998 0.06066666666666666 -0.00972 0.12293333333333334 0.00468 0.1829333333333333 0.0144 0.06 0.041293333333333335 0.11626666666666666 0.07890666666666667 0.16519999999999999 0.03761333333333333 0.048933333333333336 0.08511999999999999 0.08933333333333333 0.13941333333333333 0.11866666666666666 0.05428 0.02933333333333333 0.11414666666666667 0.046799999999999994 0.17566666666666667 0.05146666666666667 0.06152 0.004666666666666666 0.12333333333333332 -0.0037333333333333333 0.18138666666666664 -0.024666666666666663 0.05805333333333333 -0.02093333333333333 0.11106666666666666 -0.053733333333333334 0.15555999999999998 -0.09653333333333333 0.62524 -0.3192 1.3302933333333333 -0.5187999999999999 1.9023199999999998 -0.8379999999999999 0.35917333333333334 -0.18626666666666664 0.6917466666666666 -0.4124 1.02432 -0.6252 0.33257333333333333 -0.21293333333333334 0.9977733333333334 -0.7183999999999999 1.5297733333333332 -1.0110666666666666 0.1236 -0.04413333333333333 0.2244 -0.13546666666666665 0.2805333333333333 -0.254s0.06293333333333333 -0.25439999999999996 0.018799999999999997 -0.37786666666666663c-0.044 -0.12346666666666667 -0.13546666666666665 -0.2244 -0.2538666666666667 -0.2805333333333333 -0.11853333333333334 -0.05613333333333333 -0.2545333333333333 -0.06293333333333333 -0.37799999999999995 -0.018799999999999997 -0.6464933333333334 0.1236 -1.2792266666666667 0.31079999999999997 -1.8889866666666668 0.5586666666666666Z"
        clipRule="evenodd" />
</svg>