<svg xmlns="http://www.w3.org/2000/svg" viewBox="0 0 32 32" id="Home-Chimney-2--Streamline-Freehand" fill="currentColor" stroke="none">
    <desc>{"Calendar Grid Streamline Icon: https://streamlinehq.com"}</desc>
    <path
        d="M15.318666666666667 15.148399999999999c-0.5198666666666667 -0.4398666666666667 -0.5198666666666667 -0.7597333333333333 -1.9726666666666666 -0.7464 -0.54036 0.07999999999999999 -1.0445866666666666 0.3192 -1.4482266666666668 0.6871999999999999 -0.40364 0.368 -0.6883466666666667 0.8481333333333333 -0.8176933333333333 1.3788 -0.12051999999999999 0.39893333333333336 -0.11754666666666666 0.8250666666666666 0.008533333333333334 1.2224 0.12608 0.3972 0.36935999999999997 0.7470666666666667 0.6978933333333333 1.0034666666666667 0.45963999999999994 0.2601333333333333 0.98452 0.38199999999999995 1.5117066666666665 0.35133333333333333 0.5272533333333334 -0.030799999999999998 1.03432 -0.21293333333333334 1.4605866666666665 -0.5245333333333333 0.4537333333333333 -0.2581333333333333 0.8070666666666666 -0.6616 1.0030666666666666 -1.1453333333333333 0.19586666666666666 -0.48373333333333335 0.22293333333333332 -1.0194666666666665 0.07666666666666666 -1.5205333333333333 -0.11293333333333333 -0.2744 -0.29133333333333333 -0.5169333333333332 -0.5198666666666667 -0.7064Zm-1.3329333333333333 2.279333333333333c-0.20293333333333333 0.15133333333333332 -0.4449333333333333 0.24186666666666667 -0.6975333333333333 0.2608 -0.2525866666666666 0.018799999999999997 -0.50532 -0.034666666666666665 -0.7286133333333332 -0.15426666666666666 -0.33322666666666667 -0.21319999999999997 -0.27990666666666664 -0.6664 -0.14661333333333332 -1.0662666666666665 0.13329333333333332 -0.39986666666666665 0.4931733333333333 -1.0395999999999999 0.94636 -1.1196 0.2112 -0.025599999999999998 0.42546666666666666 -0.0002666666666666667 0.6249333333333333 0.074 0.19946666666666668 0.07413333333333333 0.3781333333333333 0.19506666666666667 0.5213333333333333 0.35253333333333337 0.13266666666666665 0.11506666666666666 0.22586666666666666 0.2689333333333333 0.2665333333333333 0.4398666666666667 0.18666666666666668 0.5197333333333333 -0.2532 0.9462666666666666 -0.7330666666666665 1.2129333333333332h-0.05333333333333333Z"
         />
    <path
        d="M7.427973333333332 22.132799999999996c-0.51984 -0.4398666666666667 -0.51984 -0.7597333333333333 -1.9860133333333332 -0.7464 -0.5379466666666666 0.0824 -1.03928 0.32266666666666666 -1.4403466666666667 0.6905333333333333 -0.4010666666666667 0.3678666666666666 -0.6837733333333333 0.8466666666666667 -0.8122400000000001 1.3754666666666666 -0.1324533333333333 0.40626666666666666 -0.13563999999999998 0.8437333333333333 -0.00912 1.2518666666666665 0.12652 0.40826666666666667 0.37651999999999997 0.7672 0.7155466666666667 1.0273333333333332 0.45963999999999994 0.26 0.98452 0.38199999999999995 1.5117066666666665 0.3512 0.5271866666666667 -0.030666666666666665 1.0343333333333333 -0.2128 1.46064 -0.5244 0.45366666666666666 -0.2581333333333333 0.8070266666666666 -0.6616 1.0029466666666667 -1.1453333333333333 0.19591999999999998 -0.48386666666666667 0.22294666666666665 -1.0194666666666665 0.07670666666666666 -1.5205333333333333 -0.10501333333333332 -0.2937333333333333 -0.28406666666666663 -0.5554666666666667 -0.5198266666666667 -0.7597333333333333Zm-1.3328933333333333 2.2792c-0.20302666666666663 0.15146666666666667 -0.44499999999999995 0.242 -0.6975866666666667 0.2608 -0.2525866666666666 0.018933333333333333 -0.50532 -0.03453333333333333 -0.7286133333333332 -0.15413333333333332 -0.33322666666666667 -0.21319999999999997 -0.27990666666666664 -0.6664 -0.14661333333333332 -1.0662666666666665 0.13327999999999998 -0.39986666666666665 0.47983999999999993 -1.0397333333333334 0.9463466666666666 -1.1196 0.20910666666666666 -0.023466666666666667 0.42078666666666664 0.0030666666666666663 0.6176933333333333 0.07719999999999999 0.19691999999999998 0.07413333333333333 0.3734933333333333 0.19373333333333334 0.5152666666666667 0.3492 0.13625333333333334 0.1144 0.23398666666666668 0.268 0.27990666666666664 0.4398666666666667 0.1866 0.5198666666666667 -0.21326666666666666 0.9463999999999999 -0.7330933333333333 1.2129333333333332h-0.05330666666666667Z"
         />
    <path
        d="M22.356266666666663 14.975200000000001c-0.5464 -0.4665333333333333 -0.5464 -0.7597333333333333 -1.986 -0.7597333333333333 -0.5396 0.0832 -1.0421333333333331 0.3256 -1.4434666666666667 0.696 -0.4012 0.37039999999999995 -0.6829333333333333 0.852 -0.8090666666666666 1.3832 -0.13146666666666665 0.4044 -0.134 0.8396 -0.007466666666666667 1.2454666666666667 0.12653333333333333 0.40586666666666665 0.37599999999999995 0.7625333333333333 0.7138666666666666 1.0205333333333333 0.4565333333333333 0.27 0.9832000000000001 0.39786666666666665 1.5126666666666666 0.36693333333333333 0.5294666666666666 -0.030799999999999998 1.0377333333333332 -0.21893333333333334 1.4597333333333333 -0.5402666666666667 0.4536 -0.258 0.8070666666666666 -0.6616 1.0029333333333332 -1.1453333333333333 0.19586666666666666 -0.48373333333333335 0.22293333333333332 -1.0194666666666665 0.07666666666666666 -1.5204 -0.1048 -0.2901333333333333 -0.28413333333333335 -0.5474666666666667 -0.5198666666666667 -0.7464Zm-1.3328 2.2792c-0.20306666666666665 0.15146666666666667 -0.4450666666666666 0.24186666666666667 -0.6976 0.2608 -0.25266666666666665 0.018933333333333333 -0.5053333333333333 -0.03453333333333333 -0.7286666666666666 -0.15413333333333332 -0.3332 -0.21333333333333332 -0.27986666666666665 -0.6798666666666666 -0.14653333333333332 -1.0797333333333332 0.13319999999999999 -0.39986666666666665 0.47973333333333334 -1.0395999999999999 0.9462666666666666 -1.1062666666666665 0.30546666666666666 -0.050133333333333335 0.6188 0.0076 0.8863999999999999 0.16319999999999998 0.26746666666666663 0.15573333333333333 0.4725333333333333 0.3996 0.5798666666666666 0.6898666666666666 0.13319999999999999 0.5331999999999999 -0.30666666666666664 0.9463999999999999 -0.7864 1.2262666666666666h-0.05333333333333333Z"
         />
    <path
        d="M14.465599999999998 21.9596c-0.5197333333333333 -0.4398666666666667 -0.5197333333333333 -0.7598666666666666 -1.9859733333333331 -0.7598666666666666 -0.5438 0.07266666666666666 -1.0519466666666666 0.31133333333333335 -1.45508 0.6834666666666666 -0.40313333333333334 0.3721333333333333 -0.6816399999999999 0.8596 -0.7975066666666667 1.3958666666666666 -0.13344 0.40426666666666666 -0.13707999999999998 0.84 -0.010386666666666666 1.2464 0.12668 0.40626666666666666 0.3773333333333333 0.7628 0.7168133333333333 1.0196 0.45777333333333337 0.26813333333333333 0.98516 0.3937333333333333 1.5146666666666664 0.36039999999999994 0.5295066666666666 -0.03319999999999999 1.0370666666666666 -0.22373333333333334 1.457733333333333 -0.5470666666666666 0.4536 -0.258 0.8069333333333333 -0.6616 1.0029333333333332 -1.1453333333333333 0.19586666666666666 -0.48373333333333335 0.22293333333333332 -1.0194666666666665 0.07666666666666666 -1.5204 -0.10693333333333332 -0.2853333333333333 -0.286 -0.5378666666666666 -0.5198666666666667 -0.7330666666666665Zm-1.3328533333333332 2.2792c-0.20302666666666663 0.15146666666666667 -0.44499999999999995 0.24186666666666667 -0.6975866666666667 0.2608 -0.2525866666666666 0.018799999999999997 -0.50532 -0.034666666666666665 -0.7286133333333332 -0.15413333333333332 -0.3465466666666666 -0.21333333333333332 -0.27990666666666664 -0.6798666666666666 -0.14661333333333332 -1.0797333333333332 0.13327999999999998 -0.39986666666666665 0.47983999999999993 -1.0395999999999999 0.9463466666666666 -1.1062666666666665 0.20804 -0.025066666666666668 0.41903999999999997 -0.0006666666666666666 0.61588 0.0712 0.19685333333333332 0.07173333333333333 0.3739733333333333 0.18893333333333331 0.5170399999999999 0.34199999999999997 0.13626666666666665 0.1144 0.23399999999999999 0.268 0.27999999999999997 0.4398666666666667 0.17319999999999997 0.5331999999999999 -0.2533333333333333 1.0129333333333332 -0.7331466666666666 1.2262666666666666h-0.05330666666666667Z"
         />
    <path
        d="M28.394399999999997 15.1084c-0.5198666666666667 -0.4530666666666666 -0.5331999999999999 -0.7597333333333333 -1.986 -0.7597333333333333 -0.5438666666666666 0.07266666666666666 -1.052 0.31133333333333335 -1.4551999999999998 0.6834666666666666 -0.4030666666666667 0.3721333333333333 -0.6816 0.8596 -0.7974666666666665 1.3958666666666666 -0.13346666666666665 0.40426666666666666 -0.13706666666666667 0.84 -0.0104 1.2464 0.12666666666666665 0.40626666666666666 0.3773333333333333 0.7628 0.7167999999999999 1.0196 0.4565333333333333 0.27 0.9832000000000001 0.39786666666666665 1.5126666666666666 0.36693333333333333 0.5294666666666666 -0.030799999999999998 1.0377333333333332 -0.21893333333333334 1.4597333333333333 -0.5402666666666667 0.4536 -0.258 0.8070666666666666 -0.6616 1.0029333333333332 -1.1453333333333333 0.19586666666666666 -0.48373333333333335 0.22293333333333332 -1.0194666666666665 0.07666666666666666 -1.5204 -0.1048 -0.2901333333333333 -0.28413333333333335 -0.5474666666666667 -0.5197333333333333 -0.7465333333333333Zm-1.3329333333333333 2.279333333333333c-0.20306666666666665 0.15146666666666667 -0.4450666666666666 0.24186666666666667 -0.6976 0.2608 -0.25253333333333333 0.018799999999999997 -0.5053333333333333 -0.034666666666666665 -0.7286666666666666 -0.15413333333333332 -0.34653333333333336 -0.21333333333333332 -0.27986666666666665 -0.6798666666666666 -0.14653333333333332 -1.0797333333333332 0.13319999999999999 -0.39986666666666665 0.47986666666666666 -1.0395999999999999 0.9462666666666666 -1.1062666666666665 0.29719999999999996 -0.0372 0.5981333333333333 0.026799999999999997 0.8544 0.18159999999999998 0.25626666666666664 0.15466666666666667 0.4530666666666666 0.3912 0.5585333333333333 0.6714666666666667 0.14666666666666667 0.5331999999999999 -0.2532 0.9463999999999999 -0.7330666666666665 1.1996l-0.05333333333333333 0.026666666666666665Z"
         />
    <path
        d="M19.397333333333332 21.35973333333333c-0.538 0.0824 -1.0393333333333332 0.3228 -1.4404 0.6905333333333333 -0.4010666666666667 0.3678666666666666 -0.6837333333333333 0.8466666666666667 -0.8121333333333333 1.3754666666666666 -0.13253333333333334 0.40626666666666666 -0.13573333333333332 0.8437333333333333 -0.0092 1.2518666666666665 0.12653333333333333 0.40826666666666667 0.3765333333333333 0.7672 0.7155999999999999 1.0273333333333332 0.4605333333333333 0.2568 0.9849333333333333 0.37693333333333334 1.5113333333333332 0.3462666666666666 0.5265333333333333 -0.030666666666666665 1.0333333333333332 -0.21093333333333333 1.4609333333333332 -0.5194666666666666 0.4537333333333333 -0.2581333333333333 0.8070666666666666 -0.6616 1.0029333333333332 -1.1453333333333333 0.19599999999999998 -0.48373333333333335 0.22306666666666666 -1.0194666666666665 0.0768 -1.5205333333333333 -0.2076 -0.48173333333333335 -0.5609333333333333 -0.8861333333333332 -1.0105333333333333 -1.1563999999999999 -0.4496 -0.27013333333333334 -0.9725333333333334 -0.3925333333333333 -1.4953333333333332 -0.3497333333333333Zm0.7064 3.025733333333333c-0.20306666666666665 0.15133333333333332 -0.4449333333333333 0.24186666666666667 -0.6976 0.2608 -0.25253333333333333 0.018799999999999997 -0.5053333333333333 -0.034666666666666665 -0.7285333333333333 -0.15426666666666666 -0.3332 -0.21319999999999997 -0.27999999999999997 -0.6664 -0.14666666666666667 -1.0796 0.13333333333333333 -0.4132 0.49319999999999997 -1.0262666666666667 0.9463999999999999 -1.1062666666666665 0.208 -0.025066666666666668 0.41893333333333327 -0.0006666666666666666 0.6158666666666666 0.07106666666666667 0.1968 0.07186666666666666 0.374 0.18906666666666666 0.5170666666666666 0.3421333333333333 0.13373333333333332 0.11653333333333334 0.23093333333333332 0.2693333333333333 0.27986666666666665 0.4398666666666667 0.13333333333333333 0.49306666666666665 -0.3065333333333333 0.8664000000000001 -0.7864 1.1862666666666666v0.039999999999999994Z"
         />
    <path
        d="M21.010133333333332 5.191746666666667c-0.15053333333333332 1.0106 -0.04053333333333333 2.0429066666666666 0.31986666666666663 2.9989999999999997 0.24093333333333333 0.4687866666666667 0.6449333333333334 0.8332666666666666 1.136 1.0247733333333333 0.49093333333333333 0.19149333333333332 1.0350666666666666 0.1968 1.5297333333333332 0.014893333333333331 0.33653333333333335 -0.08152 0.6472 -0.24630666666666667 0.9033333333333333 -0.4792133333333333 0.25626666666666664 -0.2328933333333333 0.4497333333333333 -0.5264533333333333 0.5629333333333333 -0.85368 0.21786666666666665 -0.74796 0.29919999999999997 -1.5290933333333332 0.23986666666666667 -2.3059066666666665V3.6455866666666665c0.019866666666666664 -0.29512 -0.024666666666666663 -0.5910266666666666 -0.13053333333333333 -0.8672266666666666 -0.10586666666666666 -0.27618666666666664 -0.2705333333333333 -0.5260533333333333 -0.4825333333333333 -0.73224 -0.7106666666666667 -0.48204 -1.5773333333333333 -0.6772799999999999 -2.4258666666666664 -0.54648 -0.0572 -0.0017866666666666667 -0.11413333333333332 0.00792 -0.16733333333333333 0.028560000000000002 -0.05333333333333333 0.020626666666666665 -0.102 0.05176 -0.14293333333333333 0.09154666666666667 -0.04106666666666667 0.039786666666666665 -0.07373333333333333 0.08741333333333332 -0.09599999999999999 0.1400533333333333 -0.022266666666666664 0.05264 -0.03373333333333333 0.10921333333333333 -0.0336 0.16636 -0.032799999999999996 -0.08218666666666666 -0.09359999999999999 -0.15009333333333333 -0.17173333333333332 -0.19158666666666668 -0.07813333333333333 -0.041506666666666664 -0.1684 -0.053906666666666665 -0.25479999999999997 -0.034999999999999996 -0.0872 0.024399999999999998 -0.16693333333333332 0.07005333333333333 -0.23199999999999998 0.13286666666666666 -0.0652 0.06281333333333333 -0.11373333333333333 0.14081333333333332 -0.1412 0.22701333333333332 -0.07946666666666666 0.4665066666666667 -0.11079999999999998 0.9399599999999999 -0.09333333333333334 1.4128666666666665l-0.18666666666666668 0.8130666666666666c-0.06946666666666666 0.29789333333333334 -0.114 0.6010666666666666 -0.13319999999999999 0.9063599999999999Zm1.1062666666666665 -0.54648s0.21319999999999997 -2.4791866666666666 0.21319999999999997 -2.572493333333333c0.0336 0.07844 0.08933333333333333 0.14539999999999997 0.1604 0.19273333333333334 0.07093333333333332 0.047333333333333324 0.15413333333333332 0.07298666666666666 0.23946666666666666 0.07385333333333333 1.1996 0 1.7061333333333333 0.22658666666666666 1.8394666666666666 0.6931066666666666 0.043199999999999995 0.8480533333333333 -0.014933333333333333 1.6982399999999997 -0.17333333333333334 2.532493333333333 0.0036 0.5160266666666666 -0.05453333333333333 1.0306266666666666 -0.17319999999999997 1.5328266666666668 -0.09333333333333334 0.3198933333333333 -0.21333333333333332 0.6397866666666666 -0.5465333333333333 0.71976 -0.13 0.05890666666666666 -0.27159999999999995 0.08805333333333333 -0.4144 0.08532000000000001 -0.14266666666666666 -0.002746666666666667 -0.28306666666666663 -0.03729333333333333 -0.41079999999999994 -0.10114666666666666 -0.1276 -0.06385333333333333 -0.23946666666666666 -0.15538666666666667 -0.3273333333333333 -0.26794666666666667 -0.08786666666666666 -0.11254666666666666 -0.14946666666666666 -0.2432933333333333 -0.1804 -0.38267999999999996 -0.21186666666666668 -0.8172933333333333 -0.2884 -1.6637866666666667 -0.2265333333333333 -2.5058266666666666Z"
         />
    <path
        d="M11.39996 4.7785866666666665c0 0.13329333333333332 0.09329333333333334 0.26658666666666664 0.61312 0.3198933333333333 0.7464266666666666 0 1.06632 0.23991999999999997 2.0926533333333333 0.29323999999999995h3.3455999999999997c0.9196 0 1.4794666666666665 -0.07997333333333333 2.412533333333333 -0.14661333333333332 0.4398666666666667 0 0.7864 -0.8530533333333332 0.19986666666666666 -0.9996666666666667 -1.0129333333333332 -0.03998666666666666 -1.7061333333333333 -0.21326666666666666 -2.7324 -0.21326666666666666h-2.6657333333333333c-0.8242666666666666 -0.00272 -1.64784 0.04624 -2.4659066666666662 0.14661333333333332 -0.5598133333333333 0.03998666666666666 -0.8130666666666666 0.39986666666666665 -0.7997333333333333 0.5998Z"
         />
    <path
        d="M30.660266666666665 5.4584399999999995c-0.4497333333333333 -0.48932 -1.0418666666666665 -0.8250133333333333 -1.6928 -0.9596799999999999 -0.6168 -0.16314666666666666 -1.2558666666666665 -0.22614666666666666 -1.8926666666666665 -0.1866 -0.9463999999999999 0.13327999999999998 -0.6930666666666667 0.7864 -0.19999999999999998 0.7864 0.44666666666666666 -0.0044666666666666665 0.8927999999999999 0.031213333333333333 1.3329333333333333 0.10663999999999998 0.6649333333333333 0.047466666666666664 1.2878666666666665 0.34230666666666665 1.7461333333333333 0.8263866666666666 0.31053333333333333 0.6229733333333333 0.48760000000000003 1.30396 0.5197333333333333 1.9993333333333334 0.13333333333333333 1.0396666666666667 0.24 2.38588 0.30666666666666664 3.8653866666666663 -1.9593333333333334 0 -5.891466666666666 -0.15994666666666665 -10.303333333333333 -0.23991999999999997H11.43996c-4.771746666666666 0.03998666666666666 -8.91704 0.19993333333333332 -10.223275999999998 0.25325333333333333 -0.008459999999999999 -2.011 0.19707599999999997 -4.0171866666666665 0.6131293333333333 -5.984679999999999 0.13112 -0.24070666666666665 0.3233733333333333 -0.4426133333333333 0.5573733333333333 -0.5853466666666667 0.23399999999999999 -0.14274666666666666 0.5014933333333333 -0.22129333333333334 0.77552 -0.22771999999999998 0.5535866666666667 -0.13470666666666664 1.1237466666666664 -0.18857333333333332 1.6927733333333332 -0.15994666666666665 0.07534666666666666 -0.012973333333333333 0.1446 -0.04958666666666667 0.19773333333333332 -0.10456 0.053133333333333324 -0.05497333333333333 0.08737333333333333 -0.12542666666666666 0.09777333333333334 -0.20117333333333332 0.010386666666666666 -0.07574666666666666 -0.0036 -0.15282666666666667 -0.039959999999999996 -0.22008 -0.036359999999999996 -0.06725333333333333 -0.09318666666666665 -0.12117333333333333 -0.16224 -0.15395999999999999 -0.8257066666666667 -0.17886666666666665 -1.6801333333333333 -0.17886666666666665 -2.50584 0 -0.3270666666666666 0.07868 -0.63172 0.23134666666666664 -0.89052 0.4462533333333333 -0.25880533333333333 0.21489333333333333 -0.464864 0.48630666666666666 -0.6023213333333333 0.7933333333333332 -0.519828 1.2262533333333332 -1.0529841333333332 7.997306666666667 -0.9330238666666666 13.995306666666666 0.09330240000000001 4.358666666666666 0.6131305333333332 8.264 1.5728118666666666 9.436933333333332 0.7064266666666665 0.8530666666666666 2.5458266666666667 1.3329333333333333 4.865053333333333 1.5194666666666665 3.612133333333333 0.24 8.41052 -0.15986666666666666 10.889719999999999 -0.15986666666666666 3.1134666666666666 0.09853333333333332 6.23 -0.0038666666666666663 9.330266666666667 -0.30666666666666664 1.3976 -0.12133333333333332 2.756933333333333 -0.5201333333333333 3.998666666666667 -1.1729333333333334 0.3616 -0.3065333333333333 0.6025333333333334 -0.7317333333333332 0.6797333333333333 -1.1996 0.4746666666666666 -2.7370666666666663 0.6887999999999999 -5.513066666666667 0.6398666666666666 -8.290533333333332 0 -5.971333333333334 -0.49319999999999997 -12.88908 -1.3329333333333333 -13.875426666666666Zm-0.3332 20.606493333333333c-0.07426666666666666 0.5849333333333333 -0.22213333333333332 1.1581333333333332 -0.4398666666666667 1.7061333333333333 -1.4916 0.6242666666666666 -3.0884 0.9590666666666667 -4.705066666666666 0.9862666666666666 -3.119066666666667 0.2533333333333333 -6.5578666666666665 0.13333333333333333 -7.837466666666666 0.13333333333333333 -2.4525333333333332 0 -7.210933333333333 0.4132 -10.796413333333334 0.19999999999999998 -1.8394 -0.10666666666666666 -3.358893333333333 -0.29333333333333333 -3.918706666666666 -0.9597333333333333 -0.9063599999999999 -1.0529333333333333 -1.2929066666666666 -4.6384 -1.4128626666666666 -8.597199999999999C1.128072 17.2556 1.11918 14.974933333333333 1.1900266666666666 12.69604c1.3328933333333333 0 5.398213333333333 0.21326666666666666 10.249933333333333 0.3065733333333333h9.036973333333332c4.438533333333333 -0.07997333333333333 8.383866666666666 -0.19993333333333332 10.329999999999998 -0.25325333333333333 0 1.3329066666666667 0.06653333333333333 2.83904 0 4.305306666666667 0.026666666666666665 3.0103999999999997 -0.1336 6.0196000000000005 -0.47986666666666666 9.010266666666666Z"
         />
    <path
        d="M5.975133333333333 5.151719999999999c-0.10258666666666666 1.0673066666666666 0.001493333333333333 2.1443733333333332 0.30656 3.1722799999999998 0.24089333333333332 0.4687733333333333 0.6449333333333334 0.8332533333333334 1.1359599999999999 1.02476 0.49104 0.19150666666666666 1.0351599999999999 0.1968 1.5298266666666667 0.014893333333333331 0.3394533333333333 -0.07836 0.6533733333333334 -0.24182666666666666 0.9122133333333333 -0.47501333333333334 0.25882666666666665 -0.23318666666666665 0.4540533333333333 -0.5284133333333333 0.5672933333333333 -0.85788 0.22670666666666664 -0.75536 0.30811999999999995 -1.5468666666666666 0.23991999999999997 -2.33256V3.752186666666667c0.01813333333333333 -0.29494666666666663 -0.027213333333333332 -0.59036 -0.13298666666666664 -0.8662799999999999s-0.26950666666666667 -0.5259466666666666 -0.4801466666666666 -0.7332000000000001c-0.7081733333333333 -0.48793333333333333 -1.5754933333333332 -0.6880799999999999 -2.4258666666666664 -0.5598133333333333 -0.11665333333333333 0 -0.2285333333333333 0.04634666666666666 -0.3110133333333333 0.12883999999999998 -0.08249333333333334 0.08248 -0.12883999999999998 0.19436 -0.12883999999999998 0.3110133333333333 -0.03270666666666666 -0.08218666666666666 -0.09354666666666667 -0.15008 -0.17166666666666666 -0.19158666666666668 -0.07812 -0.041506666666666664 -0.16843999999999998 -0.053906666666666665 -0.2548533333333333 -0.034999999999999996 -0.08714666666666666 0.024399999999999998 -0.16685333333333333 0.07005333333333333 -0.23199999999999998 0.13286666666666666 -0.06513333333333332 0.06281333333333333 -0.11366666666666667 0.14081333333333332 -0.14121333333333333 0.22701333333333332 -0.10006666666666666 0.43777333333333335 -0.1580933333333333 0.8840933333333334 -0.17326666666666668 1.3328933333333333l-0.14662666666666666 0.7064266666666665v0.34656l-0.09329333333333334 0.5998Zm1.09296 -0.38654666666666665s0.21326666666666666 -2.46584 0.21326666666666666 -2.5724799999999997c0.03 0.08197333333333333 0.08442666666666666 0.15276 0.1559333333333333 0.20281333333333332 0.07150666666666666 0.050053333333333325 0.1566533333333333 0.07696 0.24393333333333334 0.07709333333333333 1.1996 0 1.7061066666666664 0.22659999999999997 1.8393866666666665 0.6931066666666666 0.038906666666666666 0.8485866666666666 -0.023746666666666666 1.6987733333333335 -0.1866 2.532493333333333 0.0011733333333333333 0.5158933333333333 -0.05697333333333333 1.0302133333333332 -0.17328 1.5328266666666668 -0.07997333333333333 0.3065733333333333 -0.19993333333333332 0.6264666666666666 -0.5331466666666667 0.70644 -0.13006666666666666 0.05890666666666666 -0.2716133333333333 0.08805333333333333 -0.4143733333333333 0.08532000000000001 -0.14274666666666666 -0.002746666666666667 -0.28308 -0.03729333333333333 -0.4107733333333333 -0.10114666666666666 -0.12770666666666666 -0.06385333333333333 -0.23954666666666663 -0.15538666666666667 -0.32738666666666666 -0.26794666666666667 -0.08783999999999999 -0.11254666666666666 -0.14945333333333333 -0.2432933333333333 -0.18036 -0.38267999999999996 -0.21427999999999997 -0.8168799999999999 -0.29086666666666666 -1.66376 -0.22659999999999997 -2.50584Z"
         />
</svg>