<svg xmlns="http://www.w3.org/2000/svg" viewBox="0 0 32 32" id="Home-Chimney-2--Streamline-Freehand" fill="currentColor" stroke="none">
    <desc>{"Conversation Chat Streamline Icon: https://streamlinehq.com"}</desc>
    <path
        d="M3.4506533333333334 13.190626666666667c0.9528399999999999 0.05862666666666667 1.9084933333333334 -0.054066666666666666 2.82156 -0.3327333333333333 0.06498666666666666 -0.006586666666666666 0.12778666666666666 -0.027159999999999997 0.18407999999999997 -0.06032 0.05628 -0.033159999999999995 0.10472 -0.07810666666666666 0.14198666666666665 -0.13177333333333333 0.03726666666666666 -0.05365333333333333 0.06246666666666667 -0.11474666666666666 0.07388 -0.17906666666666665 0.011413333333333333 -0.06431999999999999 0.00876 -0.13034666666666667 -0.0077599999999999995 -0.19354666666666667 -0.01653333333333333 -0.06319999999999999 -0.04654666666666666 -0.12208 -0.088 -0.1725733333333333 -0.04144 -0.05050666666666666 -0.09331999999999999 -0.09142666666666667 -0.15208 -0.11997333333333333 -0.05877333333333333 -0.02853333333333333 -0.12301333333333332 -0.04401333333333333 -0.18832 -0.04537333333333333 -0.06531999999999999 -0.00136 -0.13014666666666666 0.01144 -0.19004 0.03752 -0.80868 0.2284 -1.6501466666666667 0.3184 -2.4888399999999997 0.2661866666666667 -0.50112 -0.010679999999999999 -0.97844 -0.21592 -1.3309199999999999 -0.5722933333333333 -0.7571999999999999 -1.4316666666666666 -1.1157466666666667 -3.04052 -1.0381186666666666 -4.658239999999999 -0.06943333333333333 -1.1453866666666666 0.038307999999999995 -2.294626666666667 0.31942533333333334 -3.4071599999999997 0.08418666666666666 -0.3683333333333333 0.28487999999999997 -0.6997066666666667 0.5722933333333333 -0.94496 1.2111466666666666 -0.7586266666666666 7.559653333333333 -0.98488 13.881533333333332 -0.8784000000000001 3.7746666666666666 0.0033733333333333332 7.545066666666667 0.2568 11.286266666666666 0.7586266666666666 0.7924 0.041666666666666664 1.5653333333333332 0.25993333333333335 2.2625333333333333 0.63884 0.8051999999999999 1.2338933333333333 1.1009333333333333 2.7317733333333334 0.8251999999999999 4.179093333333333 -0.006666666666666666 1.49252 -0.5022666666666666 2.941746666666667 -1.4108 4.125866666666666 -0.5722666666666667 0.49244 -2.2892 0.49244 -4.3388 0.49244 -4.6316 0 -10.833733333333331 -0.49244 -11.59236 -0.19962666666666665 -0.6657733333333333 0.3015733333333333 -1.2773066666666666 0.7107600000000001 -1.8100533333333333 1.2111333333333332 -0.9582666666666666 0.8518399999999999 -1.9564533333333334 1.9565066666666664 -2.661853333333333 2.6618399999999998 -0.11977333333333331 0.10653333333333333 -0.21294666666666665 0.1996 -0.30610666666666664 0.26613333333333333 -0.034559999999999994 -0.058399999999999994 -0.061399999999999996 -0.12093333333333334 -0.07985333333333333 -0.18626666666666664 -0.24491999999999997 -1.0209333333333332 -0.42276 -2.0568 -0.5323733333333334 -3.101053333333333 -0.07985333333333333 -0.7187066666666666 -0.8384799999999999 -0.5456799999999999 -0.8384799999999999 -0.17302666666666666 0 0.3726666666666667 0.09315999999999999 0.9316800000000001 0.18633333333333335 1.61048 0.07569333333333333 0.8493333333333333 0.2590533333333333 1.6856 0.5456799999999999 2.4888 0.04546666666666666 0.13466666666666666 0.13738666666666666 0.24879999999999997 0.25930666666666663 0.32199999999999995 0.12191999999999999 0.07306666666666667 0.26588 0.10053333333333332 0.40614666666666666 0.07719999999999999 0.41490666666666665 -0.15866666666666665 0.7914133333333333 -0.4036 1.1046666666666667 -0.7186666666666667 0.8251733333333333 -0.7453333333333334 2.03632 -2.0229333333333335 3.11436 -2.8348 0.3025333333333333 -0.24269333333333332 0.6387866666666666 -0.4399733333333333 0.9981866666666666 -0.5856533333333334 0.8385333333333334 -0.2928133333333333 8.384799999999998 0.67872 12.896666666666665 0.5323199999999999 1.2401333333333333 0.056799999999999996 2.473733333333333 -0.20914666666666665 3.580133333333333 -0.7718933333333333 1.2462666666666666 -1.413533333333333 1.9655999999999998 -3.2143333333333333 2.0364 -5.09744 0.16199999999999998 -0.9216799999999999 0.14079999999999998 -1.8662666666666665 -0.0624 -2.7797466666666666 -0.2032 -0.9134933333333333 -0.5845333333333333 -1.7779466666666668 -1.1221333333333332 -2.543946666666667 -0.7647999999999999 -0.5754266666666666 -1.6705333333333332 -0.9340506666666666 -2.622 -1.03812 -3.0544 -0.49581866666666663 -6.142266666666666 -0.7583253333333333 -9.236533333333332 -0.7852453333333332C11.409573333333334 0.16087866666666667 2.87836 0.7198666666666667 1.4409599999999998 1.6781333333333333 0.5758559999999999 2.223813333333333 0.09672399999999999 4.007253333333333 0.08341466666666666 6.003639999999999c0 2.542053333333333 0.6122253333333333 5.430159999999999 1.4640119999999999 6.335186666666666 0.5054533333333333 0.5121066666666666 1.1845733333333333 0.8160533333333333 1.9032266666666664 0.8518Z"
         />
    <path
        d="M24.119733333333333 26.885866666666665v0.3992c-0.12919999999999998 1.0821333333333332 -0.3337333333333333 2.154 -0.6121333333333333 3.2076l-0.26626666666666665 -0.25293333333333334c-0.7053333333333334 -0.6521333333333332 -1.6902666666666666 -1.7701333333333331 -2.6618666666666666 -2.6618666666666666 -0.5304 -0.5233333333333333 -1.1472 -0.9510666666666667 -1.8233333333333333 -1.2644 -1.3888 -0.1529333333333333 -2.7902666666666662 -0.1529333333333333 -4.1790666666666665 0 -2.7683199999999997 0.13319999999999999 -6.415053333333333 0.3726666666666667 -9.050279999999999 0.26626666666666665 -0.9398 0.0652 -1.8820799999999998 -0.08506666666666665 -2.7550133333333333 -0.43920000000000003 -0.7586266666666666 -0.5855999999999999 -1.3309333333333333 -2.4756 -1.5438746666666667 -4.392133333333333 -0.347012 -1.5942666666666665 -0.07081599999999999 -3.260933333333333 0.7719413333333334 -4.658133333333333 0.23065333333333332 -0.19199999999999998 0.5048266666666666 -0.32453333333333334 0.7985466666666667 -0.38599999999999995 0.5368266666666666 -0.16373333333333334 1.08364 -0.2925333333333333 1.63704 -0.38599999999999995 0.12166666666666666 -0.0196 0.23061333333333334 -0.08666666666666667 0.30294666666666664 -0.1864 0.07234666666666667 -0.09986666666666666 0.10219999999999999 -0.22413333333333332 0.08301333333333333 -0.346 -0.025666666666666664 -0.1176 -0.09469333333333332 -0.22119999999999998 -0.19334666666666667 -0.2902666666666667 -0.09865333333333333 -0.06906666666666667 -0.21968 -0.09853333333333332 -0.3390133333333333 -0.0824 -0.6988 0.09466666666666665 -1.3887333333333332 0.246 -2.062933333333333 0.4525333333333333 -0.36009333333333327 0.10133333333333333 -0.69236 0.28346666666666664 -0.971576 0.5324 -1.0514306666666666 1.0913333333333333 -1.3309242666666665 3.3006666666666664 -1.2377596 5.456799999999999C0.1897773333333333 24.223999999999997 1.0016413333333332 26.499866666666666 1.89336 27.2452c0.89172 0.7453333333333334 2.7417066666666665 0.8650666666666667 5.230533333333333 0.8784000000000001 2.4888266666666663 0.013333333333333332 5.696346666666667 -0.1996 7.985573333333333 -0.35933333333333334 1.0452 -0.13986666666666664 2.100533333333333 -0.18893333333333331 3.1542666666666666 -0.14639999999999997 0.35559999999999997 0.13346666666666665 0.688 0.3221333333333333 0.9849333333333333 0.5589333333333333 1.0646666666666667 0.7853333333333332 2.3023999999999996 2.0364 3.1275999999999997 2.7815999999999996 0.3184 0.30866666666666664 0.6934666666666667 0.5528 1.1046666666666667 0.7188 0.1424 0.027066666666666662 0.28986666666666666 0.004933333333333333 0.418 -0.06266666666666666 0.12826666666666664 -0.06773333333333333 0.22959999999999997 -0.17706666666666665 0.28733333333333333 -0.31 0.254 -0.6806666666666665 0.4152 -1.3925333333333332 0.47919999999999996 -2.1162666666666663 0.10653333333333333 -0.8118666666666666 0.1996 -1.6369333333333334 0.22626666666666664 -2.0096v-0.21293333333333334c0.1064 -0.3328 -0.7186666666666667 -0.47919999999999996 -0.7719999999999999 -0.07986666666666667Z"
         />
    <path
        d="M30.3352 15.572933333333333c-1.5335999999999999 -0.5915999999999999 -3.160933333333333 -0.9026666666666667 -4.804666666666666 -0.9182666666666666 -3.546666666666667 -0.18386666666666665 -7.100666666666666 -0.18386666666666665 -10.647333333333332 0 -0.10586666666666666 0 -0.20746666666666663 0.041999999999999996 -0.2824 0.11693333333333333 -0.07479999999999999 0.07493333333333332 -0.11693333333333333 0.1764 -0.11693333333333333 0.28226666666666667 0 0.106 0.042133333333333335 0.20746666666666663 0.11693333333333333 0.2824 0.07493333333333332 0.07493333333333332 0.17653333333333332 0.11693333333333333 0.2824 0.11693333333333333 3.1676 0 6.388399999999999 0.22626666666666664 9.036933333333334 0.4525333333333333 1.3309333333333333 0.11973333333333333 2.582 0.26613333333333333 3.566933333333333 0.4125333333333333 0.6957333333333333 0.04959999999999999 1.3788 0.21146666666666664 2.0229333333333335 0.47919999999999996 0.2685333333333333 0.26106666666666667 0.44586666666666663 0.6017333333333332 0.5057333333333334 0.9716 0.31479999999999997 1.1663999999999999 0.45826666666666666 2.3724 0.42586666666666667 3.580133333333333 0.023999999999999997 1.2205333333333332 -0.11933333333333332 2.438533333333333 -0.42586666666666667 3.6201333333333334 -0.06973333333333333 0.4309333333333333 -0.2693333333333333 0.8302666666666667 -0.5722666666666667 1.1445333333333334 -0.3914666666666667 0.2693333333333333 -0.8557333333333333 0.41333333333333333 -1.3309333333333333 0.4126666666666666 -0.8954666666666666 0.0021333333333333334 -1.7882666666666664 -0.09599999999999999 -2.6618666666666666 -0.29279999999999995 -0.12 0.019333333333333334 -0.22733333333333333 0.08559999999999998 -0.2985333333333333 0.18426666666666663 -0.07106666666666667 0.09853333333333332 -0.10013333333333332 0.22133333333333333 -0.0808 0.3413333333333333 0.019466666666666667 0.12013333333333333 0.08573333333333333 0.22746666666666665 0.1844 0.29866666666666664 0.09853333333333332 0.07106666666666667 0.22133333333333333 0.10013333333333332 0.3413333333333333 0.08066666666666666 0.8185333333333333 0.222 1.6563999999999999 0.3646666666666667 2.502133333333333 0.426 0.6913333333333332 0.012266666666666665 1.3713333333333333 -0.17733333333333334 1.9565333333333332 -0.5457333333333333 0.9182666666666666 -0.6255999999999999 1.6237333333333333 -3.1144 1.7301333333333333 -5.643066666666667 0.07893333333333333 -1.3414666666666666 -0.04226666666666666 -2.6870666666666665 -0.35933333333333334 -3.9928 -0.14479999999999998 -0.7109333333333333 -0.5302666666666667 -1.3501333333333332 -1.0913333333333333 -1.8101333333333331Z"
         />
</svg>