<svg xmlns="http://www.w3.org/2000/svg" viewBox="0 0 32 32" id="Home-Chimney-2--Streamline-Freehand" fill="currentColor" stroke="none">
    <desc>{"Settings Cog Streamline Icon: https://streamlinehq.com"}</desc>
    <path
        d="M13.538133333333334 9.253226666666666c-1.4404533333333334 0.41375999999999996 -2.7020533333333328 1.2954666666666665 -3.5856666666666666 2.50596 -0.49748 0.7688666666666666 -0.8291199999999999 1.6330799999999999 -0.9737066666666667 2.5373466666666666 -0.1446 0.9042666666666667 -0.09897333333333333 1.8287999999999998 0.13394666666666666 2.714533333333333 0.22037333333333334 0.9208 0.6639333333333333 1.7733333333333334 1.29156 2.4823999999999997 0.62764 0.7089333333333332 1.4200666666666666 1.2526666666666666 2.3074133333333333 1.5830666666666666 1.2072533333333333 0.416 2.4987199999999996 0.5258666666666666 3.758986666666667 0.31986666666666663 1.2288 -0.216 2.3970666666666665 -0.6932 3.4255999999999998 -1.3996 0.4122666666666666 -0.2770666666666667 0.7961333333333332 -0.5941333333333333 1.1463999999999999 -0.9463999999999999 0.2573333333333333 -0.2648 0.48119999999999996 -0.5602666666666667 0.6664 -0.8797333333333334 0.2136 -0.4182666666666666 0.3576 -0.8684 0.42666666666666664 -1.3329333333333333 0.09986666666666666 -0.6493333333333333 0.09986666666666666 -1.3101333333333334 0 -1.9594666666666667 -0.19839999999999997 -1.2321333333333333 -0.6822666666666667 -2.400693333333333 -1.4129333333333334 -3.412333333333333 -0.8082666666666666 -1.0830533333333332 -1.9397333333333333 -1.8811200000000001 -3.2313333333333336 -2.2788666666666666 -1.2914666666666665 -0.3977466666666667 -2.6758666666666664 -0.3745733333333333 -3.953333333333333 0.06616Zm6.278133333333333 2.745893333333333c0.5965333333333334 0.8881600000000001 0.9672000000000001 1.90848 1.0797333333333332 2.9724799999999996 0.061200000000000004 0.44226666666666664 0.061200000000000004 0.8908 0 1.3329333333333333 -0.03813333333333333 0.4073333333333333 -0.16066666666666665 0.8022666666666667 -0.3598666666666666 1.1597333333333333 -0.16373333333333334 0.26026666666666665 -0.37106666666666666 0.4902666666666667 -0.6132 0.6797333333333333 -0.2612 0.22893333333333332 -0.5421333333333334 0.4341333333333333 -0.8397333333333333 0.6132 -0.8625333333333334 0.5745333333333333 -1.8409333333333333 0.9522666666666666 -2.8658666666666663 1.1063999999999998 -1.0061333333333333 0.16519999999999999 -2.0378666666666665 0.07346666666666667 -2.9991333333333334 -0.26666666666666666 -0.6521066666666666 -0.2497333333333333 -1.2346666666666666 -0.6525333333333333 -1.6985999999999999 -1.1745333333333332 -0.4639466666666666 -0.5218666666666667 -0.7956933333333334 -1.1477333333333333 -0.9673066666666666 -1.8245333333333333 -0.21627999999999997 -0.6958666666666666 -0.2876533333333333 -1.4286666666666665 -0.20970666666666665 -2.1530666666666667 0.07796 -0.7243999999999999 0.30356 -1.4252666666666667 0.6629066666666666 -2.059133333333333 0.6768133333333333 -1.0213466666666666 1.6764666666666665 -1.7863466666666667 2.839173333333333 -2.1727066666666666 1.0450666666666666 -0.46197333333333335 2.2206666666666663 -0.5359066666666666 3.3153333333333332 -0.20848s2.0365333333333333 1.0347066666666667 2.6562666666666663 1.99464Z"
        />
    <path
        d="M31.9728 13.958533333333332c0.0076 -0.34959999999999997 -0.028266666666666666 -0.6988266666666667 -0.10653333333333333 -1.0396666666666667 -0.0456 -0.21090666666666663 -0.1416 -0.40758666666666665 -0.27999999999999997 -0.5731733333333333 -0.20879999999999999 -0.23990666666666666 -0.48160000000000003 -0.41557333333333335 -0.7864 -0.50652 -0.33066666666666666 -0.09317333333333333 -0.6702666666666667 -0.15125333333333332 -1.0130666666666666 -0.17329333333333333 -0.568 0.030666666666666665 -1.136 -0.060226666666666664 -1.6661333333333332 -0.26658666666666664 -0.13226666666666664 -0.07701333333333332 -0.24533333333333332 -0.18298666666666666 -0.3308 -0.30996 -0.08546666666666666 -0.12697333333333333 -0.14093333333333333 -0.2716533333333333 -0.1624 -0.42316l-0.29333333333333333 -1.33296 -0.21319999999999997 -0.8264266666666666c0.12 -0.4265466666666667 0.6797333333333333 -0.7064666666666667 0.9330666666666666 -1.0930266666666666 0.11159999999999999 -0.16138666666666665 0.18613333333333332 -0.34543999999999997 0.21839999999999998 -0.5389866666666666s0.021466666666666665 -0.39182666666666666 -0.03186666666666667 -0.5806933333333333c-0.13093333333333332 -0.36445333333333335 -0.34546666666666664 -0.6931466666666666 -0.6264 -0.9597333333333333 -0.5331999999999999 -0.5598399999999999 -1.3329333333333333 -0.9730533333333333 -1.8261333333333332 -1.4262533333333334 -0.29333333333333333 -0.25326666666666664 -0.6265333333333333 -0.6531466666666667 -0.9863999999999999 -0.9463999999999999 -0.18786666666666665 -0.16014666666666666 -0.3992 -0.29050666666666664 -0.6265333333333333 -0.38656 -0.19826666666666665 -0.08302666666666667 -0.41279999999999994 -0.12016 -0.6274666666666666 -0.10862666666666666 -0.21466666666666667 0.011546666666666665 -0.42386666666666667 0.07146666666666666 -0.6121333333333333 0.17528 -0.5598666666666666 0.3065733333333333 -0.9863999999999999 1.0530266666666666 -1.4262666666666668 1.3329466666666665 -0.1416 0.05441333333333333 -0.2982666666666667 0.05441333333333333 -0.4398666666666667 0 -0.23933333333333331 -0.03476 -0.4756 -0.08824 -0.7065333333333333 -0.15994666666666665 -0.40186666666666665 -0.09513333333333332 -0.7879999999999999 -0.24777333333333332 -1.1462666666666665 -0.4532133333333333 -0.1829333333333333 -0.10506666666666666 -0.32399999999999995 -0.2697733333333333 -0.39986666666666665 -0.4665333333333333l-0.41333333333333333 -1.5195599999999998c-0.0132 -0.19017333333333333 -0.04906666666666666 -0.37809866666666664 -0.10653333333333333 -0.5598426666666666 -0.04186666666666666 -0.12694266666666665 -0.12079999999999999 -0.23840266666666665 -0.22666666666666668 -0.3199093333333333 -0.16666666666666666 -0.10858533333333333 -0.35186666666666666 -0.18541199999999997 -0.5465333333333333 -0.22660266666666665 -0.25493333333333335 -0.074824 -0.5216 -0.10193733333333332 -0.7864 -0.07997733333333333 -0.05946666666666667 0.005252 -0.11746666666666666 0.02217333333333333 -0.1704 0.049801333333333336 -0.05293333333333333 0.027626666666666664 -0.09999999999999999 0.06541866666666667 -0.1384 0.111216 -0.07746666666666666 0.09249066666666667 -0.11506666666666666 0.21197866666666665 -0.10439999999999999 0.33217599999999997 0.010533333333333334 0.12019733333333334 0.06853333333333333 0.23125866666666664 0.16093333333333332 0.30875199999999997 0.09253333333333333 0.07749199999999999 0.212 0.11506933333333333 0.33226666666666665 0.104464 0.13266666666666665 -0.017773333333333332 0.2672 -0.017773333333333332 0.39986666666666665 0h0.2265333333333333V1.4288l0.4398666666666667 1.6928533333333333c0.14493333333333333 0.3816 0.40599999999999997 0.7080133333333333 0.7465333333333333 0.9330666666666666 0.43520000000000003 0.26308 0.9068 0.4606933333333333 1.3996 0.5864933333333333 0.34986666666666666 0.11998666666666666 0.712 0.20046666666666668 1.0797333333333332 0.23993333333333333 0.32266666666666666 0.021653333333333333 0.6439999999999999 -0.05753333333333333 0.9197333333333333 -0.22659999999999997 0.3732 -0.23993333333333333 0.7464 -0.8264266666666666 1.1996 -1.173 0.06573333333333332 -0.06395999999999999 0.14746666666666666 -0.10890666666666667 0.23666666666666664 -0.13002666666666665 0.0892 -0.02113333333333333 0.18253333333333333 -0.017653333333333333 0.26986666666666664 0.010053333333333333 0.17719999999999997 0.08965333333333332 0.3390666666666667 0.2066 0.47986666666666666 0.3465733333333333 0.2932 0.27991999999999995 0.5731999999999999 0.6131599999999999 0.8397333333333333 0.8397600000000001 0.26666666666666666 0.22659999999999997 1.0397333333333334 0.7331333333333332 1.5195999999999998 1.173 0.25826666666666664 0.20018666666666665 0.4489333333333333 0.47464 0.5465333333333333 0.7864399999999999 0 0.18661333333333333 -0.12 0.2932533333333333 -0.2533333333333333 0.4265466666666667 -0.13319999999999999 0.13329333333333332 -0.3865333333333333 0.35990666666666665 -0.5597333333333333 0.5598399999999999 -0.14653333333333332 0.17814666666666668 -0.2594666666666666 0.38137333333333334 -0.3333333333333333 0.5998399999999999 -0.040266666666666666 0.19342666666666666 -0.040266666666666666 0.3930666666666667 0 0.5864933333333333 0.05639999999999999 0.29347999999999996 0.13213333333333332 0.5829066666666667 0.22666666666666668 0.8664266666666666l0.27986666666666665 1.3329466666666665c0.05906666666666666 0.29056 0.1756 0.5664 0.3426666666666667 0.8113199999999999 0.16706666666666664 0.24491999999999997 0.3814666666666667 0.45398666666666665 0.6304 0.6149466666666666 0.6845333333333332 0.30302666666666667 1.4241333333333333 0.46184000000000003 2.1726666666666663 0.4665333333333333 0.21613333333333332 0.0067466666666666664 0.43079999999999996 0.03805333333333333 0.6398666666666666 0.09330666666666666 0.11666666666666665 0.00984 0.22573333333333334 0.06198666666666666 0.3065333333333333 0.14662666666666666l0.07999999999999999 0.7998266666666667c0.049466666666666666 0.728 0.04493333333333333 1.4586666666666668 -0.013333333333333332 2.186 -0.008533333333333334 0.29946666666666666 -0.11106666666666666 0.5885333333333334 -0.2932 0.8264l-0.5331999999999999 0.10666666666666666c-0.3250666666666666 0.09186666666666667 -0.6382666666666666 0.22159999999999996 -0.9330666666666666 0.3865333333333333 -0.22466666666666668 0.12626666666666667 -0.42733333333333334 0.2884 -0.5998666666666667 0.47986666666666666 -0.30679999999999996 0.34453333333333336 -0.5709333333333333 0.7250666666666665 -0.7864 1.1330666666666667 -0.3197333333333333 0.5594666666666666 -0.6045333333333334 1.1382666666666665 -0.8530666666666666 1.7328000000000001 -0.22173333333333334 0.518 -0.3352 1.076 -0.3332 1.6394666666666666 0.027200000000000002 0.5938666666666667 0.1913333333333333 1.1732 0.47973333333333334 1.6929333333333334 0.14666666666666667 0.2932 0.41333333333333333 0.6664 0.5598666666666666 1.0397333333333334 0 0.11986666666666665 0.12 0.2265333333333333 0 0.31986666666666663l-2.0393333333333334 1.5195999999999998 -0.5731999999999999 0.3732 -1.1197333333333332 -0.7597333333333333c-0.4945333333333333 -0.25493333333333335 -1.0430666666666666 -0.3876 -1.5994666666666666 -0.3866666666666666 -0.7567999999999999 0.04466666666666667 -1.4964 0.24426666666666666 -2.1727999999999996 0.5865333333333334 -0.4236 0.17893333333333333 -0.8224 0.41186666666666666 -1.1862666666666666 0.6932 -0.2397333333333333 0.19519999999999998 -0.41986666666666667 0.45386666666666664 -0.5198666666666667 0.7464l-0.34653333333333336 1.9327999999999999 -0.07999999999999999 0.15999999999999998c-0.2614666666666666 0.026533333333333332 -0.5249333333333333 0.026533333333333332 -0.7864 0 -0.5731999999999999 -0.07999999999999999 -1.1463999999999999 -0.21333333333333332 -1.6796 -0.27999999999999997l-0.5998666666666667 -0.12c-0.09626666666666667 -0.0027999999999999995 -0.18946666666666667 -0.03533333333333333 -0.2665333333333333 -0.0932 -0.4265333333333333 -0.37333333333333335 -0.4665333333333333 -0.9597333333333333 -0.7730666666666666 -1.3330666666666666 -0.23586666666666667 -0.3209333333333333 -0.5601333333333333 -0.5664 -0.93312 -0.7064l-2.0260933333333333 -0.6532c-0.33324 -0.11986666666666665 -0.6931333333333334 -0.3065333333333333 -1.0530266666666666 -0.4132 -0.21554666666666666 -0.0688 -0.44022666666666666 -0.10466666666666666 -0.66648 -0.10666666666666666 -0.24886666666666668 -0.0010666666666666667 -0.49482666666666664 0.053599999999999995 -0.7198 0.15999999999999998 -0.26732 0.12186666666666665 -0.5145333333333333 0.28359999999999996 -0.73312 0.47986666666666666 -0.11856 0.13293333333333332 -0.25815999999999995 0.24559999999999998 -0.4132133333333333 0.3332 -0.15841333333333332 -0.1404 -0.32297333333333333 -0.27386666666666665 -0.49319999999999997 -0.39986666666666665 -0.49318666666666666 -0.3732 -1.0530266666666666 -0.7197333333333332 -1.5328933333333332 -1.1329333333333333 -0.26683999999999997 -0.2156 -0.49261333333333335 -0.4774666666666666 -0.66648 -0.7731999999999999 -0.05278666666666666 -0.10546666666666667 -0.08026666666666665 -0.22186666666666666 -0.08026666666666665 -0.33986666666666665 0 -0.118 0.027479999999999997 -0.2344 0.08026666666666665 -0.33986666666666665 0.26658666666666664 -0.6532 0.7864399999999999 -1.3329333333333333 0.9597333333333333 -1.8927999999999998 0.06757333333333333 -0.30733333333333335 0.06757333333333333 -0.6257333333333333 0 -0.9330666666666666 -0.12966666666666665 -0.49879999999999997 -0.30363999999999997 -0.9850666666666666 -0.5198533333333333 -1.4529333333333332l-0.3465733333333333 -0.7065333333333333c-0.21049333333333334 -0.33759999999999996 -0.5234133333333333 -0.5992 -0.89308 -0.7464 -0.2992933333333333 -0.08253333333333332 -0.6095066666666666 -0.11853333333333334 -0.9197333333333333 -0.10666666666666666 -0.21208 0.005066666666666666 -0.4222933333333333 -0.04066666666666666 -0.6131599999999999 -0.13333333333333333 0 -0.0932 -0.09330666666666666 -0.4265333333333333 -0.14662666666666666 -0.5730666666666666 -0.14662666666666666 -0.6265333333333333 -0.37322666666666665 -1.1597333333333333 -0.5731706666666666 -1.7196 -0.04721466666666666 -0.33146666666666663 -0.04721466666666666 -0.6681333333333332 0 -0.9996 -0.002765333333333333 -0.1084 0.01851733333333333 -0.216 0.062304 -0.31506666666666666 0.04379999999999999 -0.09906666666666666 0.10901333333333332 -0.18733333333333335 0.19095999999999996 -0.2581333333333333 0.5773999999999999 -0.27 1.13428 -0.5818666666666666 1.6661866666666667 -0.9330666666666666 0.12709333333333334 -0.1156 0.23506666666666667 -0.25053333333333333 0.3199066666666667 -0.39991999999999994 0.14662666666666666 -0.22659999999999997 0.25326666666666664 -0.49319999999999997 0.37322666666666665 -0.7064666666666667 0.11997333333333333 -0.21327999999999997 0.47986666666666666 -0.7997733333333332 0.6931466666666666 -1.1996666666666667 0.16171999999999997 -0.3010133333333333 0.2912933333333333 -0.6182266666666667 0.38654666666666665 -0.9463866666666667 0.13781333333333332 -0.46943999999999997 0.09502666666666666 -0.9734533333333333 -0.11995999999999998 -1.4129333333333334 -0.29079999999999995 -0.46786666666666665 -0.6160533333333333 -0.9134266666666666 -0.9730533333333333 -1.33296 -0.08654666666666666 -0.11010666666666666 -0.15825333333333333 -0.23110666666666668 -0.21327999999999997 -0.3598933333333333 0 -0.09330666666666666 -0.09330666666666666 -0.19994666666666666 0 -0.2932533333333333 0.20524 -0.30811999999999995 0.442 -0.5940266666666667 0.7064666666666667 -0.8530933333333334 0.41942666666666667 -0.41014666666666666 0.8646533333333333 -0.79304 1.33296 -1.1463333333333332 0.1764 -0.14558666666666664 0.36867999999999995 -0.2707866666666666 0.5731733333333333 -0.37322666666666665 0.1640933333333333 -0.08752 0.3472 -0.13329333333333332 0.5331733333333333 -0.13329333333333332l0.4665333333333333 0.37322666666666665c0.2315333333333333 0.2086 0.48136 0.39597333333333334 0.7464533333333333 0.5598399999999999 0.19704 0.11771999999999999 0.40734666666666663 0.21168 0.6264933333333333 0.27991999999999995 0.30872 0.09224 0.63768 0.09224 0.9463999999999999 0 0.49890666666666666 -0.22568 0.9801333333333333 -0.48856 1.4395866666666666 -0.7864399999999999l0.6264933333333333 -0.35990666666666665 0.49318666666666666 -0.34656c0.12686666666666666 -0.10054666666666667 0.23232 -0.22546666666666665 0.31016 -0.3674 0.07783999999999999 -0.14193333333333333 0.12646666666666667 -0.2980133333333333 0.1430533333333333 -0.45903999999999995 0.017773333333333332 -0.27003999999999995 -0.013853333333333332 -0.5410666666666666 -0.09330666666666666 -0.7997733333333332 -0.06036 -0.20446666666666663 -0.06036 -0.42201333333333335 0 -0.6264799999999999l0.4132133333333333 -0.19994666666666666c0.32839999999999997 -0.1406133333333333 0.6732 -0.23914666666666665 1.0264 -0.2932533333333333 0.5511999999999999 -0.10069333333333333 1.1073333333333333 -0.17187999999999998 1.6661333333333332 -0.21326666666666666 0.10613333333333333 0 0.20786666666666667 -0.04213466666666666 0.2828 -0.11712799999999998 0.07493333333333332 -0.07499333333333333 0.11706666666666667 -0.17670666666666668 0.11706666666666667 -0.28276266666666666s-0.042133333333333335 -0.2077693333333333 -0.11706666666666667 -0.28276266666666666c-0.07493333333333332 -0.07499333333333333 -0.17666666666666667 -0.117124 -0.2828 -0.117124 -0.6097333333333332 0.039142666666666666 -1.2157333333333333 0.12379866666666667 -1.8127999999999997 0.25326133333333334 -0.4230666666666667 0.07027466666666667 -0.8383066666666666 0.18188933333333335 -1.2396399999999999 0.3332386666666667 -0.21514666666666665 0.050943999999999996 -0.4249333333333333 0.12236 -0.6264799999999999 0.21327733333333332 -0.12669333333333332 0.09546666666666666 -0.22374666666666665 0.22486666666666666 -0.27991999999999995 0.37322666666666665 -0.19994666666666666 0.5598399999999999 0.11995999999999998 1.06636 0 1.5462266666666666 -0.00632 0.04801333333333333 -0.022639999999999997 0.09417333333333333 -0.04789333333333333 0.13550666666666666 -0.02525333333333333 0.041319999999999996 -0.058879999999999995 0.07689333333333333 -0.09873333333333334 0.10442666666666667l-0.37322666666666665 0.25325333333333333 -0.5331866666666667 0.35990666666666665c-0.3065733333333333 0.14661333333333332 -0.7197866666666666 0.45319999999999994 -1.1463333333333332 0.6264799999999999 -0.16233333333333333 0.09010666666666667 -0.3486933333333333 0.12737333333333334 -0.5331866666666667 0.10663999999999998 -0.17792 -0.07042666666666667 -0.3477333333333333 -0.1598133333333333 -0.50652 -0.26658666666666664 -0.17328 -0.11997333333333333 -0.3465733333333333 -0.26659999999999995 -0.50652 -0.3998933333333333 -0.1720533333333333 -0.18528 -0.3643066666666666 -0.3507066666666666 -0.5731733333333333 -0.49318666666666666 -0.1420533333333333 -0.08436 -0.30176 -0.13455999999999999 -0.4665333333333333 -0.14662666666666666 -0.2874 -0.015146666666666666 -0.5745066666666666 0.03497333333333333 -0.8397600000000001 0.14662666666666666 -0.3441066666666666 0.13594666666666666 -0.6672266666666666 0.31994666666666666 -0.9597333333333333 0.5465066666666667 -0.5100666666666667 0.3731066666666667 -0.9995333333333334 0.7735733333333333 -1.4662533333333334 1.1996533333333332 -0.3240133333333333 0.30102666666666666 -0.6145066666666666 0.6362133333333333 -0.8664133333333333 0.9997199999999999 -0.08227999999999999 0.13673333333333332 -0.13644 0.28850666666666663 -0.15933333333333333 0.44644 -0.02288 0.15793333333333331 -0.014039999999999999 0.31884 0.026039999999999997 0.47329333333333334 0.06153333333333333 0.35809333333333326 0.2077733333333333 0.6962933333333333 0.4265466666666667 0.9863866666666665 0.31865333333333334 0.37909333333333334 0.60408 0.7849200000000001 0.85308 1.2129999999999999 0.07446666666666665 0.20218666666666665 0.07446666666666665 0.4242933333333333 0 0.6264799999999999 -0.08369333333333334 0.25168 -0.19548 0.4931333333333333 -0.33322666666666667 0.7198 -0.21327999999999997 0.39988 -0.4665333333333333 0.7731066666666666 -0.6931466666666666 1.1463333333333332l-0.45319999999999994 0.7997733333333332c-0.5864933333333333 0.5065866666666666 -1.4129306666666666 0.61312 -1.8927946666666666 1.0929866666666666 -0.32931733333333335 0.32053333333333334 -0.5246544 0.754 -0.5465114666666666 1.2130666666666667 -0.028024933333333335 0.4477333333333333 0.012429066666666665 0.8973333333333333 0.11996586666666666 1.3329333333333333 0.1332949333333333 0.5998666666666667 0.35989759999999993 1.1862666666666666 0.5465109333333333 1.7727999999999997 0.044768 0.24853333333333333 0.10712933333333333 0.4934666666666666 0.18661466666666665 0.7332000000000001 0.077688 0.2096 0.21711066666666667 0.39093333333333335 0.3998853333333333 0.5197333333333333 0.3233693333333333 0.26 0.7095826666666666 0.4301333333333333 1.119676 0.49319999999999997 0.22578666666666664 0.0072 0.4497333333333333 0.04306666666666667 0.66648 0.10666666666666666 0.09657333333333332 0.04479999999999999 0.17606666666666665 0.1196 0.22659999999999997 0.21333333333333332l0.22661333333333333 0.47986666666666666c0.12634666666666666 0.2917333333333333 0.23757333333333333 0.5898666666666667 0.33322666666666667 0.8930666666666666 0.08601333333333333 0.18266666666666667 0.11837333333333333 0.38613333333333333 0.09330666666666666 0.5865333333333334 -0.21326666666666666 0.6930666666666667 -0.8797466666666667 1.3329333333333333 -1.07968 2.146 -0.14014666666666664 0.5098666666666667 -0.07806666666666666 1.0542666666666665 0.17328 1.5195999999999998 0.25781333333333334 0.4570666666666666 0.59656 0.8636 0.9997066666666666 1.1996 0.49319999999999997 0.4265333333333333 1.0796933333333332 0.7864 1.5862266666666667 1.1864 0.23668 0.22173333333333334 0.4957733333333333 0.4182666666666666 0.7731066666666666 0.5864 0.25250666666666666 0.13666666666666666 0.54236 0.18813333333333332 0.82644 0.14666666666666667 0.22517333333333334 -0.05053333333333333 0.4410533333333333 -0.13599999999999998 0.6398133333333333 -0.2532 0.2206533333333333 -0.144 0.43008 -0.3044 0.6264933333333333 -0.47986666666666666 0.11995999999999998 -0.09333333333333334 0.23991999999999997 -0.24 0.39988 -0.24 0.12342666666666666 0.0076 0.24489333333333332 0.03453333333333333 0.3598933333333333 0.07999999999999999 0.2932533333333333 0.10666666666666666 0.5865066666666666 0.2532 0.8664266666666666 0.3598666666666666l2.0260933333333333 0.5865333333333334c0.09498666666666666 0.039999999999999994 0.17773333333333333 0.10439999999999999 0.23993333333333333 0.18666666666666668 0.3598933333333333 0.5064 0.4798533333333333 1.1862666666666666 0.98636 1.6261333333333332 0.1848 0.15773333333333334 0.3972 0.27986666666666665 0.6265333333333333 0.3598666666666666 0.36693333333333333 0.09773333333333334 0.7414666666666667 0.16466666666666666 1.1196 0.19999999999999998 0.6265333333333333 0.07999999999999999 1.3330666666666666 0.2532 1.9861333333333333 0.3065333333333333 0.3413333333333333 0.03306666666666666 0.6850666666666667 0.03306666666666666 1.0264 0 0.22733333333333333 -0.03133333333333333 0.44053333333333333 -0.12866666666666665 0.6132 -0.27986666666666665 0.2288 -0.21839999999999998 0.4102666666666666 -0.48160000000000003 0.5331999999999999 -0.7731999999999999 0.10346666666666667 -0.2476 0.17506666666666665 -0.5073333333333333 0.21319999999999997 -0.7730666666666666 0.03546666666666666 -0.4476 0.09786666666666667 -0.8927999999999999 0.18666666666666668 -1.3329333333333333 0 -0.12 0.19986666666666666 -0.15999999999999998 0.3332 -0.24 0.13333333333333333 -0.07986666666666667 0.39986666666666665 -0.18653333333333333 0.5465333333333333 -0.2532 0.41866666666666663 -0.21519999999999997 0.8684 -0.3636 1.3329333333333333 -0.4398666666666667 0.38786666666666664 -0.0532 0.7826666666666666 0.011866666666666666 1.1330666666666667 0.18666666666666668 0.3065333333333333 0.15986666666666666 0.7330666666666665 0.5730666666666666 1.1196 0.7464 0.18853333333333333 0.10186666666666666 0.39893333333333336 0.15666666666666665 0.6132 0.15999999999999998 0.22413333333333332 0.011866666666666666 0.44786666666666664 -0.029199999999999997 0.6530666666666667 -0.12 0.3004 -0.13799999999999998 0.5824 -0.31253333333333333 0.8398666666666667 -0.5198666666666667l2.1326666666666663 -1.6928c0.1784 -0.1509333333333333 0.31853333333333333 -0.34199999999999997 0.40879999999999994 -0.5574666666666667 0.0904 -0.21546666666666664 0.1284 -0.44919999999999993 0.11106666666666666 -0.6822666666666667 -0.15053333333333332 -0.6592 -0.41679999999999995 -1.2865333333333333 -0.7864 -1.8527999999999998 -0.18733333333333335 -0.3156 -0.29279999999999995 -0.6729333333333334 -0.30666666666666664 -1.0397333333333334 -0.0022666666666666664 -0.3805333333333333 0.07493333333333332 -0.7573333333333332 0.22666666666666668 -1.1062666666666665 0.19946666666666668 -0.5506666666666666 0.4309333333333333 -1.0892 0.6930666666666667 -1.6129333333333333 0.16106666666666666 -0.33853333333333335 0.36239999999999994 -0.6562666666666667 0.5998666666666667 -0.9463999999999999 0.10213333333333333 -0.11066666666666666 0.22426666666666664 -0.20106666666666664 0.3598666666666666 -0.2665333333333333 0.16693333333333332 -0.08586666666666666 0.3408 -0.1572 0.5198666666666667 -0.21333333333333332 0.17333333333333334 0 0.39986666666666665 -0.06666666666666667 0.5865333333333334 -0.13319999999999999 0.16066666666666665 -0.0572 0.3097333333333333 -0.14306666666666668 0.4398666666666667 -0.2533333333333333 0.3637333333333333 -0.3598666666666666 0.602 -0.8271999999999999 0.6798666666666666 -1.3329333333333333 0.10719999999999999 -0.8308 0.134 -1.67 0.07986666666666667 -2.506Z"
        />
</svg>