<svg xmlns="http://www.w3.org/2000/svg" viewBox="0 0 32 32" id="Home-Chimney-2--Streamline-Freehand" fill="currentColor" stroke="none">
    <desc>{"Content Paper Edit Streamline Icon: https://streamlinehq.com"}</desc>
    <path fillRule="evenodd"
        d="M28.22653333333333 8.330986666666666c-0.716 0.15517333333333333 -1.3530666666666664 0.5609999999999999 -1.7962666666666665 1.1443333333333332 -0.040266666666666666 0.03408 -0.07333333333333333 0.07573333333333333 -0.09746666666666666 0.1226 -0.023999999999999997 0.04685333333333333 -0.03866666666666667 0.09799999999999999 -0.04306666666666667 0.15052 -0.008666666666666666 0.10605333333333333 0.025066666666666668 0.21122666666666667 0.09386666666666667 0.2924 0.0688 0.08117333333333332 0.16706666666666664 0.13168 0.2732 0.14041333333333333 0.106 0.008733333333333333 0.2112 -0.025026666666666662 0.2924 -0.09383999999999999 0.6918666666666666 -0.4790266666666666 0.7850666666666666 -0.5588666666666666 1.4237333333333333 -0.5721733333333333 0.6386666666666666 -0.013306666666666665 2.1555999999999997 0.9979733333333334 2.1822666666666666 1.7032 0.06586666666666666 0.74444 -0.1529333333333333 1.4861999999999997 -0.6121333333333333 2.0757733333333332 -0.8914666666666666 -0.6919199999999999 -3.087066666666667 -2.2487466666666664 -3.6592000000000002 -2.66124 -0.0848 -0.08450666666666667 -0.19973333333333332 -0.13196 -0.3193333333333333 -0.13196 -0.11973333333333333 0 -0.23466666666666663 0.04745333333333333 -0.3193333333333333 0.13196 -0.5190666666666666 0.5854666666666666 0.5055999999999999 0.89152 3.5393333333333334 3.486226666666666 -0.3990666666666667 0.6786666666666666 -0.5588 0.7850666666666666 -4.989733333333334 5.947866666666666 -0.30933333333333335 -0.6015999999999999 -0.736 -1.1352 -1.2548 -1.5694666666666666 -0.5186666666666666 -0.4341333333333333 -1.1190666666666667 -0.7601333333333333 -1.7657333333333334 -0.9586666666666666 3.8056 -5.32252 4.484133333333333 -5.468893333333334 3.9918666666666667 -5.894693333333334 -0.4924 -0.4258 -0.6653333333333333 0.1996 -1.1310666666666667 0.7318533333333332 -3.3 3.845506666666666 -5.122933333333333 5.9479066666666665 -5.1628 6.653106666666667 -0.14639999999999997 2.914133333333333 -0.27946666666666664 4.324533333333333 0.1596 4.737066666666666 0.8649333333333333 0.8249333333333333 3.992 -0.35933333333333334 4.710533333333333 -0.8250666666666666 2.8262666666666663 -3.1533333333333333 5.427333333333333 -6.501333333333333 7.784133333333333 -10.019559999999998 0.3254666666666667 -0.5134533333333333 0.4898666666666667 -1.11252 0.47213333333333335 -1.7201733333333333 -0.01773333333333333 -0.6076533333333333 -0.2168 -1.19612 -0.5716 -1.6897333333333333 -0.3548 -0.4936133333333333 -0.8492 -0.8698133333333333 -1.4196 -1.0802266666666664 -0.5702666666666667 -0.21041333333333334 -1.1905333333333332 -0.24541333333333332 -1.7809333333333335 -0.10052Zm-5.4155999999999995 13.306213333333334c-0.8313333333333334 0.43533333333333335 -1.7317333333333331 0.7234666666666666 -2.6613333333333333 0.8516 -0.18626666666666664 -4.084933333333333 -0.1064 -3.326533333333333 0.43920000000000003 -4.124933333333333 0.8817333333333333 0.9250666666666666 1.8585333333333331 1.7545333333333333 2.914 2.4749333333333334 -0.37253333333333327 0.4525333333333333 -0.6253333333333333 0.7451999999999999 -0.6918666666666666 0.7984Z"
        clipRule="evenodd"  />
    <path fillRule="evenodd"
        d="M22.8508 25.7888c-0.33266666666666667 1.4370666666666667 -0.7317333333333332 1.9161333333333332 -2.4882666666666666 2.1955999999999998 -4.8264 0.42866666666666664 -9.68524 0.33053333333333335 -14.490453333333331 -0.29279999999999995 -0.9048266666666667 -0.1596 -1.7564266666666666 -0.1996 -2.6612533333333332 -0.33266666666666667s-0.7318533333333332 -0.17293333333333333 -1.6898933333333332 -0.38586666666666664c-0.17298666666666665 -0.8116 0.81168 -2.8076 1.0245733333333331 -3.7523999999999997 0 0 2.9007733333333334 -13.79852 3.113666666666666 -15.049306666666666 0.28013333333333335 -1.5519999999999998 0.45352 -3.1213866666666665 0.5189466666666667 -4.6971066666666665 1.6366666666666667 0 4.1515466666666665 0.31934666666666667 5.668466666666667 0.49233333333333335 4.750346666666666 0.5322399999999999 9.886479999999999 -0.825 13.119946666666666 1.0245733333333331 0.1953333333333333 0.6916666666666667 0.25839999999999996 1.413933333333333 0.18626666666666664 2.1289999999999996 0 0.10587999999999999 0.042133333333333335 0.20741333333333334 0.11693333333333333 0.28226666666666667 0.07493333333333332 0.07486666666666666 0.1764 0.11692 0.28226666666666667 0.11692s0.20746666666666663 -0.04205333333333333 0.28226666666666667 -0.11692c0.07493333333333332 -0.07485333333333333 0.11693333333333333 -0.17638666666666664 0.11693333333333333 -0.28226666666666667 0.1064 -0.89152 0.25279999999999997 -2.3685066666666668 -0.37253333333333327 -3.02052 -1.4370666666666667 -1.46368 -5.615333333333333 -1.6898933333333332 -7.797466666666666 -1.6898933333333332 -1.9428 0.07984 -3.8854666666666664 0.31934666666666667 -5.801559999999999 0.21290666666666663 -0.8516 0 -5.322493333333333 -0.18629333333333334 -6.1740933333333325 -0.13306666666666667 -0.6254 0 -0.38588 0.89152 -0.41249333333333327 1.01128 -0.45241333333333333 3.9918666666666667 -0.14637333333333333 2.00924 -4.297924 19.320733333333333 -0.2927373333333333 1.2773333333333332 -1.5169119999999998 3.3132 -0.944744 4.869999999999999 0.306044 0.7984 1.2241746666666666 0.8250666666666666 1.6632813333333332 0.9581333333333333 1.2557866666666666 0.2617333333333333 2.52684 0.44386666666666663 3.8055866666666667 0.5454666666666667 3.975293333333333 0.47773333333333334 7.990746666666666 0.5224 11.975679999999999 0.13306666666666667 1.5301333333333331 -0.1064 3.6458666666666666 -0.11973333333333333 4.9632 -1.0245333333333333 0.6685333333333332 -0.5811999999999999 1.0917333333333332 -1.3944 1.1842666666666666 -2.275333333333333 0.015733333333333332 -0.05853333333333333 0.019733333333333332 -0.1196 0.011866666666666666 -0.17973333333333333 -0.007866666666666666 -0.06013333333333333 -0.027466666666666667 -0.11813333333333333 -0.05773333333333333 -0.17053333333333334 -0.030266666666666667 -0.05253333333333333 -0.07066666666666666 -0.09866666666666665 -0.11866666666666666 -0.1356 -0.048133333333333334 -0.03693333333333333 -0.10293333333333334 -0.064 -0.16146666666666665 -0.07973333333333332 -0.05853333333333333 -0.015733333333333332 -0.1196 -0.019733333333333332 -0.17973333333333333 -0.011866666666666666 -0.06013333333333333 0.007866666666666666 -0.118 0.027466666666666667 -0.17053333333333334 0.05773333333333333 -0.05253333333333333 0.030266666666666667 -0.09853333333333332 0.07066666666666666 -0.13546666666666665 0.11866666666666666 -0.03693333333333333 0.048133333333333334 -0.06413333333333332 0.10293333333333334 -0.07986666666666667 0.16146666666666665Z"
        clipRule="evenodd"  />
    <path fillRule="evenodd"
        d="M20.80173333333333 9.062919999999998c-1.4770666666666665 0 -3.5926666666666667 -0.19958666666666663 -5.602 -0.27942666666666666 -3.5660399999999997 -0.14637333333333333 -2.5680666666666667 0.27942666666666666 -5.734959999999999 -0.10645333333333332 -0.2927333333333333 0 -1.4237733333333333 -0.4258 -1.6366666666666667 0.21290666666666663 -0.21290666666666663 0.6386933333333333 0.7052266666666666 0.39918666666666663 1.46368 0.73184 0.7584666666666666 0.3326533333333333 1.9693333333333334 0.77176 6.826079999999999 0.6786133333333333 1.7431999999999999 0 3.4729333333333328 -0.18628 4.737066666666666 -0.31934666666666667 0.06026666666666666 -0.003493333333333333 0.11933333333333332 -0.018826666666666665 0.1736 -0.04513333333333333 0.054400000000000004 -0.026293333333333335 0.10306666666666665 -0.06304 0.1432 -0.10814666666666667 0.040133333333333326 -0.04509333333333333 0.07106666666666667 -0.09766666666666665 0.09093333333333332 -0.15469333333333332 0.019733333333333332 -0.057039999999999993 0.028266666666666666 -0.11741333333333333 0.024666666666666663 -0.17770666666666668 -0.0034666666666666665 -0.06028 -0.018799999999999997 -0.11929333333333332 -0.04506666666666666 -0.17365333333333333 -0.026266666666666664 -0.05436 -0.06306666666666666 -0.103 -0.10813333333333333 -0.14315999999999998 -0.04506666666666666 -0.04016 -0.09773333333333334 -0.07103999999999999 -0.15466666666666667 -0.09087999999999999 -0.05706666666666666 -0.01984 -0.11746666666666666 -0.02825333333333333 -0.17773333333333333 -0.024759999999999997Z"
        clipRule="evenodd"  />
    <path fillRule="evenodd"
        d="M17.30213333333333 14.624933333333333c-7.531333333333333 -0.42586666666666667 -8.755506666666665 -0.5456 -9.926453333333333 -1.1576 -0.08998666666666666 -0.05653333333333333 -0.19872 -0.07493333333333332 -0.30228 -0.051199999999999996 -0.10356 0.023733333333333332 -0.19346666666666668 0.08759999999999998 -0.24993333333333334 0.1776 -0.056466666666666665 0.09 -0.07486666666666666 0.19866666666666666 -0.05116 0.3022666666666667 0.023706666666666668 0.10346666666666667 0.08758666666666666 0.19346666666666668 0.1775733333333333 0.24986666666666668 1.2152533333333333 0.8542666666666667 2.6233999999999997 1.393733333333333 4.098319999999999 1.5701333333333332 2.08516 0.16786666666666666 4.1824666666666666 0.10533333333333333 6.253933333333333 -0.18626666666666664 0.12 0 0.23506666666666667 -0.0476 0.31986666666666663 -0.13253333333333334 0.08493333333333333 -0.0848 0.13253333333333334 -0.19986666666666666 0.13253333333333334 -0.31986666666666663s-0.0476 -0.23506666666666667 -0.13253333333333334 -0.31986666666666663c-0.0848 -0.08493333333333333 -0.19986666666666666 -0.13253333333333334 -0.31986666666666663 -0.13253333333333334Z"
        clipRule="evenodd"  />
    <path fillRule="evenodd"
        d="M13.084 20.865466666666666c-2.9539866666666663 -0.1596 -5.748306666666666 -0.34586666666666666 -7.251906666666667 -1.5568 -0.41249333333333327 -0.33266666666666667 -1.1576533333333332 0.346 -0.27943999999999997 1.0912 0.6459733333333333 0.4557333333333333 1.3425333333333331 0.8353333333333333 2.0757866666666667 1.1309333333333331 3.04712 1.0778666666666665 5.655146666666667 0.7451999999999999 9.021693333333332 0.3726666666666667 0.11986666666666665 0 0.23493333333333333 -0.04773333333333333 0.31986666666666663 -0.13253333333333334 0.0848 -0.08493333333333333 0.13253333333333334 -0.19999999999999998 0.13253333333333334 -0.31999999999999995 0 -0.11986666666666665 -0.04773333333333333 -0.23493333333333333 -0.13253333333333334 -0.31986666666666663 -0.08493333333333333 -0.0848 -0.19999999999999998 -0.13253333333333334 -0.31986666666666663 -0.13253333333333334 -1.1842666666666666 0.039999999999999994 -2.368533333333333 -0.06653333333333333 -3.566133333333333 -0.13306666666666667Z"
        clipRule="evenodd"  />
</svg>