<svg xmlns="http://www.w3.org/2000/svg" viewBox="0 0 32 32" id="Home-Chimney-2--Streamline-Freehand" fill="currentColor" stroke="none">
    <desc>{"Alert Alarm Bell Streamline Icon: https://streamlinehq.com"}</desc>
    <path fill="#000000"
        d="M28.899199999999997 22.970666666666666c-0.19973333333333332 -0.4528 -0.5593333333333332 -0.9454666666666666 -0.7590666666666667 -1.4382666666666666 -0.09159999999999999 -0.17119999999999996 -0.11986666666666665 -0.36933333333333335 -0.07999999999999999 -0.5593333333333332 0.29533333333333334 -0.9277333333333333 0.5222666666666667 -1.8757333333333333 0.6791999999999999 -2.8366666666666664 0.24080000000000001 -1.4098666666666664 0.3965333333333333 -2.832933333333333 0.46613333333333334 -4.2616 0.06746666666666666 -0.8865066666666667 0.06746666666666666 -1.7769066666666666 0 -2.6634666666666664 -0.03373333333333333 -0.61768 -0.13653333333333334 -1.2296533333333333 -0.30626666666666663 -1.8244933333333333 -0.4381333333333333 -1.528493333333333 -1.1761333333333333 -2.9545199999999996 -2.1708 -4.195026666666666 0.1324 -0.17066666666666666 0.24839999999999998 -0.3534933333333333 0.3462666666666666 -0.5460133333333332 0.10386666666666666 -0.26946666666666663 0.17106666666666664 -0.5516533333333333 0.19973333333333332 -0.8390133333333334 0.10986666666666667 -0.75776 -0.020533333333333334 -1.5309066666666666 -0.3728 -2.2107066666666664 -0.4033333333333333 -0.710552 -1.0594666666666666 -1.2431013333333332 -1.8378666666666668 -1.4915623999999998 -0.4550666666666666 -0.1220156 -0.9319999999999999 -0.13742693333333333 -1.3940000000000001 -0.04503546666666666 -0.46199999999999997 0.0923912 -0.8964 0.2900952 -1.2694666666666665 0.5777365333333333 -0.26866666666666666 0.21835866666666665 -0.4898666666666667 0.48926000000000003 -0.6502666666666667 0.7961146666666666 -0.16026666666666667 0.3068533333333333 -0.25626666666666664 0.6432 -0.282 0.98844 -0.32813333333333333 -0.01988 -0.6573333333333333 -0.01988 -0.9854666666666666 0 -0.7053333333333334 0.09575999999999998 -1.3976 0.26996 -2.0642666666666667 0.5193733333333332 -1.7494666666666667 0.68784 -3.340133333333333 1.7256 -4.6743999999999994 3.0497199999999998 -1.3099333333333334 1.2479333333333331 -2.4555866666666666 2.657613333333333 -3.4093066666666663 4.195026666666666 -0.5992933333333332 0.9455333333333332 -1.0254533333333333 2.09084 -1.5847866666666666 3.1296133333333334 -0.21541333333333335 0.40342666666666666 -0.47928 0.7791599999999999 -0.7857333333333334 1.1186266666666667 -0.32794666666666666 0.35853333333333326 -0.6941333333333333 0.6801333333333333 -1.09204 0.9589333333333332 -0.9988133333333333 0.7190666666666666 -2.1041733333333332 1.2385333333333333 -3.102986666666667 1.9842666666666666 -0.36317333333333335 0.24839999999999998 -0.7101333333333333 0.5197333333333333 -1.0387733333333333 0.8123999999999999 -0.2557733333333333 0.22986666666666666 -0.4600133333333333 0.5112 -0.59928 0.8257333333333332 -0.02624 0.0556 -0.040826666666666664 0.11613333333333332 -0.042893333333333325 0.1776 -0.0020666666666666663 0.061599999999999995 0.00844 0.12293333333333334 0.030879999999999998 0.18026666666666663 0.022426666666666668 0.057333333333333326 0.05633333333333333 0.10946666666666667 0.09961333333333333 0.15333333333333332 0.04328 0.04373333333333333 0.09503999999999999 0.07826666666666666 0.15211999999999998 0.10133333333333333 0.58596 0.25306666666666666 0.7058266666666666 -0.8123999999999999 2.8499466666666664 -1.5314666666666668 1.07484 -0.32586666666666664 2.1825466666666666 -0.5313333333333333 3.3027466666666663 -0.6126666666666667 1.4004666666666665 -0.14439999999999997 2.813133333333333 -0.122 4.208333333333333 0.06666666666666667 2.126293333333333 0.2561333333333333 4.225493333333333 0.7018666666666666 6.2725599999999995 1.3317333333333332 1.0253333333333332 0.2805333333333333 2.01 0.6923999999999999 2.9298666666666664 1.2252 0.9221333333333332 0.5365333333333333 1.7573333333333334 1.2101333333333333 2.4770666666666665 1.9975999999999998 0.07946666666666666 0.09186666666666667 0.19213333333333332 0.14839999999999998 0.3133333333333333 0.15706666666666666 0.12106666666666667 0.008799999999999999 0.24066666666666664 -0.03093333333333333 0.33253333333333335 -0.1104 0.09186666666666667 -0.07946666666666666 0.14839999999999998 -0.19226666666666664 0.15706666666666666 -0.3133333333333333 0.008799999999999999 -0.12119999999999999 -0.03093333333333333 -0.24080000000000001 -0.1104 -0.33266666666666667 -0.7362666666666666 -0.9077333333333333 -1.6023999999999998 -1.702 -2.5702666666666665 -2.3571999999999997 -0.9661333333333333 -0.6536 -2.0138666666666665 -1.1774666666666667 -3.1163999999999996 -1.5581333333333334 -1.7570666666666668 -0.6289333333333333 -3.566533333333333 -1.1013333333333333 -5.406933333333333 -1.4116 -1.87916 -0.2996 -3.793986666666666 -0.2996 -5.6732 0 -0.39953333333333335 0.07986666666666667 -0.8390133333333334 0.17306666666666665 -1.33176 0.2929333333333333l0.41284 -0.26626666666666665c0.4833733333333333 -0.31306666666666666 0.9300933333333333 -0.6794666666666667 1.33176 -1.0921333333333334 0.36185333333333336 -0.40586666666666665 0.6747333333333333 -0.8527999999999999 0.9322266666666665 -1.3317333333333332 0.5726533333333332 -0.9455199999999999 0.9588533333333333 -2.0641999999999996 1.5981066666666666 -2.9831066666666666 0.94564 -1.4440133333333334 2.0736266666666667 -2.759986666666667 3.3560266666666667 -3.9153599999999997 1.2213333333333334 -1.1594533333333332 2.6609333333333334 -2.0648133333333334 4.234933333333333 -2.6634933333333333 0.5788 -0.19699999999999998 1.1770666666666667 -0.3309466666666666 1.7845333333333333 -0.39953333333333335 0.5813333333333333 -0.07152 1.1703999999999999 -0.04904 1.7446666666666666 0.06658666666666666 1.2784 0.37473333333333336 2.397333333333333 1.1612533333333332 3.1828000000000003 2.2373466666666664 0.8692 1.0938133333333333 1.5161333333333333 2.3469599999999997 1.9043999999999999 3.68896 0.12733333333333333 0.49744 0.2076 1.0057466666666666 0.2397333333333333 1.5181999999999998 0.053599999999999995 0.81148 0.053599999999999995 1.6256133333333331 0 2.4370666666666665 -0.07986666666666667 1.1453333333333333 -0.17306666666666665 2.2906666666666666 -0.3462666666666666 3.436 -0.16573333333333332 1.1190666666666667 -0.41946666666666665 2.2234666666666665 -0.7590666666666667 3.302666666666666 -0.1404 0.43279999999999996 -0.1404 0.8989333333333334 0 1.3317333333333332 0.26426666666666665 0.6261333333333333 0.5666666666666667 1.2354666666666665 0.9056 1.8245333333333333 0.48760000000000003 0.9721333333333333 0.7771999999999999 2.0313333333333334 0.8523999999999999 3.1162666666666667 0.025866666666666666 0.6275999999999999 -0.17773333333333333 1.2430666666666665 -0.5726666666666667 1.7313333333333332 -0.5493333333333332 0.6041333333333333 -1.2404 1.0617333333333332 -2.010933333333333 1.3317333333333332 -1.2410666666666665 0.47719999999999996 -2.5482666666666667 0.7602666666666666 -3.8754666666666666 0.8390666666666666 -1.3163999999999998 0.010133333333333333 -2.6311999999999998 -0.0968 -3.9286666666666665 -0.3196 -1.3175999999999999 -0.1696 -2.6214666666666666 -0.4321333333333333 -3.9019999999999997 -0.7857333333333334 -1.3317866666666665 -0.4528 -2.7833999999999994 -0.9189333333333334 -4.128466666666666 -1.5049333333333332 -0.8823333333333332 -0.3748 -1.7329733333333333 -0.8201333333333333 -2.5436533333333333 -1.3317333333333332 -1.2727466666666665 -0.7246666666666666 -2.4122666666666666 -1.6614666666666666 -3.3693333333333335 -2.770133333333333 -0.5657333333333333 -0.7491999999999999 -0.9487866666666666 -1.6202666666666667 -1.1186666666666665 -2.5435999999999996 -0.03417333333333333 -0.0904 -0.09899999999999999 -0.16599999999999998 -0.18317333333333333 -0.2136 -0.08418666666666666 -0.047466666666666664 -0.18238666666666664 -0.064 -0.27747999999999995 -0.04653333333333333 -0.09510666666666667 0.017333333333333333 -0.18106666666666665 0.0676 -0.24290666666666666 0.142 -0.06183999999999999 0.07426666666666666 -0.09564 0.16799999999999998 -0.09549333333333333 0.26466666666666666 0.1815733333333333 1.0525333333333333 0.6005866666666666 2.05 1.2252133333333333 2.9165333333333328 0.9856533333333333 1.2009333333333332 2.1704133333333333 2.2234666666666665 3.502506666666666 3.023066666666667 0.84856 0.5604 1.7390400000000001 1.0546666666666666 2.6635066666666667 1.4782666666666666 1.3317466666666666 0.6258666666666666 2.7966800000000003 1.1453333333333333 4.18168 1.638 1.3384 0.40973333333333334 2.7047999999999996 0.7213333333333334 4.0885333333333325 0.9322666666666667 1.3878666666666666 0.2649333333333333 2.7955999999999994 0.412 4.208266666666667 0.43946666666666667 1.4678666666666667 -0.072 2.9172 -0.35919999999999996 4.3016 -0.8522666666666666 1.0161333333333333 -0.3372 1.9317333333333333 -0.9232 2.6634666666666664 -1.7046666666666666 0.6292 -0.7430666666666667 0.9654666666666666 -1.6901333333333333 0.9456 -2.6635999999999997 -0.0716 -1.3257333333333332 -0.4161333333333333 -2.6224 -1.0121333333333333 -3.8087999999999997ZM22.626666666666665 2.5416266666666667h-0.2797333333333333c0.13066666666666665 -0.36063999999999996 0.3856 -0.6628666666666666 0.7192 -0.85232 0.23359999999999997 -0.12542666666666666 0.492 -0.19762666666666664 0.7567999999999999 -0.21144 0.2648 -0.013813333333333332 0.5293333333333333 0.031093333333333334 0.7746666666666666 0.13153333333333334 0.43666666666666665 0.12053333333333333 0.8150666666666666 0.39485333333333333 1.0654666666666666 0.7724133333333333 0.2909333333333333 0.41531999999999997 0.45719999999999994 0.9050666666666666 0.4793333333333333 1.4116533333333332 0.027200000000000002 0.181 0.027200000000000002 0.36504000000000003 0 0.5460266666666667 0 0 0 0.11985333333333333 -0.06653333333333333 0.17312 -0.9358666666666666 -0.9754666666666667 -2.1336 -1.6598933333333332 -3.4492 -1.9709866666666667Z"
         />
    <path fill="#000000"
        d="M23.838533333333334 27.778399999999998c-0.5658666666666666 0.2576 -1.1765333333333332 0.4024 -1.7978666666666667 0.4261333333333333 -0.0952 0.017333333333333333 -0.18119999999999997 0.06746666666666666 -0.2432 0.14173333333333332 -0.06186666666666666 0.07413333333333333 -0.09586666666666667 0.16786666666666666 -0.09586666666666667 0.2645333333333333 0 0.09666666666666665 0.033999999999999996 0.19026666666666664 0.09586666666666667 0.2645333333333333 0.062 0.07413333333333333 0.148 0.12426666666666666 0.2432 0.1416 0.8972 0.016266666666666665 1.7816 -0.214 2.5569333333333333 -0.6658666666666666 0.20186666666666667 -0.15133333333333332 0.35653333333333337 -0.3568 0.4461333333333333 -0.5925333333333334 0.08959999999999999 -0.23573333333333335 0.1104 -0.4921333333333333 0.06 -0.7392 -0.08586666666666666 -0.48693333333333333 -0.29186666666666666 -0.9446666666666667 -0.5993333333333333 -1.3317333333333332 -0.3813333333333333 -0.5024 -0.8293333333333333 -0.9503999999999999 -1.3317333333333332 -1.3317333333333332 -1.0154666666666667 -0.7693333333333332 -2.0884 -1.4594666666666667 -3.2096 -2.0642666666666667 -1.1106666666666665 -0.5846666666666667 -2.2585333333333333 -1.0962666666666667 -3.4358666666666666 -1.5314666666666668 -1.6362666666666668 -0.6033333333333333 -3.3264266666666664 -1.0492 -5.047359999999999 -1.3318666666666665 -1.1568933333333333 -0.19319999999999998 -2.332813333333333 -0.24693333333333334 -3.502506666666666 -0.15973333333333334 -0.72328 0.08066666666666666 -1.4194133333333332 0.3217333333333333 -2.0375866666666664 0.7058666666666666 -0.2496 0.1356 -0.4654133333333333 0.32586666666666664 -0.6314133333333333 0.5564s-0.27791999999999994 0.49559999999999993 -0.32743999999999995 0.7753333333333333c-0.016919999999999998 0.5645333333333333 0.16714666666666667 1.1166666666666667 0.5193733333333332 1.5581333333333334 0.42751999999999996 0.5496 0.9454133333333333 1.0224 1.53152 1.3982666666666665l2.7434133333333333 1.8112c0.050719999999999994 0.031466666666666664 0.10713333333333333 0.05266666666666667 0.16604 0.0624 0.05890666666666666 0.0096 0.11913333333333333 0.0076 0.17725333333333332 -0.005999999999999999 0.05813333333333333 -0.013600000000000001 0.113 -0.03853333333333333 0.16149333333333332 -0.07333333333333333s0.08965333333333332 -0.0788 0.12113333333333333 -0.12946666666666667c0.031479999999999994 -0.0508 0.05266666666666667 -0.10719999999999999 0.06233333333333333 -0.16613333333333333 0.00968 -0.05893333333333334 0.007653333333333333 -0.11906666666666667 -0.005946666666666667 -0.17719999999999997 -0.013600000000000001 -0.05813333333333333 -0.03852 -0.11306666666666666 -0.07333333333333333 -0.16146666666666665 -0.0348 -0.04853333333333333 -0.07882666666666666 -0.08973333333333333 -0.12954666666666664 -0.12119999999999999l-2.6635066666666667 -1.917733333333333c-0.35074666666666665 -0.2724 -0.66812 -0.5853333333333333 -0.9455466666666666 -0.9321333333333334 -0.25458666666666663 -0.26626666666666665 -0.40164 -0.6173333333333333 -0.41284 -0.9855999999999999 0 -0.2929333333333333 0.3329466666666666 -0.43946666666666667 0.6126133333333332 -0.5593333333333332 0.3983333333333333 -0.16186666666666666 0.8221333333333334 -0.252 1.25184 -0.26626666666666665 1.0720933333333331 -0.03386666666666666 2.14452 0.055466666666666664 3.196213333333333 0.26626666666666665 0.5060666666666667 0.07999999999999999 1.0121333333333333 0.19973333333333332 1.5181999999999998 0.3196 -0.4833333333333333 0.5658666666666666 -0.8140933333333332 1.2457333333333334 -0.96092 1.9753333333333334 -0.14684 0.7294666666666667 -0.10487999999999999 1.4844 0.12190666666666666 2.1930666666666667 0.26802666666666664 0.7042666666666666 0.7297066666666666 1.3182666666666667 1.33176 1.7713333333333332 0.8568533333333332 0.6498666666666666 1.8740533333333333 1.0549333333333333 2.9431199999999995 1.1718666666666666 1.3042666666666665 0.086 2.5930666666666666 -0.3229333333333333 3.609066666666666 -1.1453333333333333 0.7717333333333333 -0.6648 1.3165333333333333 -1.5541333333333331 1.5581333333333334 -2.5435999999999996 0.3596 0.21306666666666665 0.7325333333333333 0.4261333333333333 1.0921333333333334 0.6658666666666666 0.4557333333333333 0.29679999999999995 0.8718666666666667 0.6504 1.2385333333333333 1.0521333333333334 0.21306666666666665 0.23106666666666667 0.36826666666666663 0.5094666666666666 0.4528 0.8122666666666666 0.03986666666666666 0.29306666666666664 -0.13319999999999999 0.46613333333333334 -0.3596 0.5993333333333333Zm-4.781066666666666 -1.5714666666666668c-0.7774666666666665 0.5361333333333334 -1.7285333333333333 0.7595999999999999 -2.6634666666666664 0.6258666666666666 -0.7941333333333334 -0.10573333333333332 -1.5493333333333332 -0.40786666666666666 -2.197333333333333 -0.8789333333333333 -0.4145333333333333 -0.27599999999999997 -0.7533333333333332 -0.6514666666666666 -0.9855466666666667 -1.0919999999999999 -0.2165733333333333 -0.5621333333333333 -0.2862 -1.1702666666666666 -0.20230666666666666 -1.7668 0.08389333333333333 -0.5965333333333334 0.31853333333333333 -1.1618666666666666 0.68172 -1.6425333333333332 0.8257333333333332 0.2264 1.6247999999999998 0.4794666666666666 2.3438666666666665 0.7458666666666667 1.1354666666666666 0.37706666666666666 2.2472 0.8217333333333332 3.329466666666667 1.3317333333333332 0.39946666666666664 0.1864 0.7724 0.39946666666666664 1.1585333333333332 0.5993333333333333 -0.23786666666666667 0.8388 -0.7546666666666666 1.5716 -1.4649333333333332 2.0774666666666666Z"
         />
</svg>