<svg xmlns="http://www.w3.org/2000/svg" viewBox="0 0 32 32" id="Home-Chimney-2--Streamline-Freehand" fill="currentColor" stroke="none">
    <desc>{"Business Deal Handshake Streamline Icon: https://streamlinehq.com"}</desc>
    <path fillRule="evenodd"
        d="M3.0766533333333332 16.2152c1.3328 1.0129333333333332 2.27908 0.06666666666666667 1.2528266666666665 -1.0528l-0.10662666666666666 -0.10666666666666666c-0.2186533333333333 -0.2096 -0.45010666666666665 -0.40546666666666664 -0.69304 -0.5864 -0.25323999999999997 -0.18666666666666668 -0.5197999999999999 -0.34653333333333336 -0.78636 -0.5065333333333333 -0.64476 -0.36253333333333326 -1.32324 -0.6615866666666667 -2.025837333333333 -0.8929466666666667C0.5992 13.011533333333333 0.46246666666666664 13.00264 0.33749199999999996 13.045133333333332c-0.12497333333333333 0.04248 -0.2279484 0.13288 -0.2862724 0.2512933333333333 -0.05832390666666666 0.11837333333333333 -0.0672188 0.2551733333333333 -0.024727733333333335 0.38010666666666665 0.04249093333333333 0.12493333333333334 0.1328868 0.228 0.2513028 0.28626666666666667 0.5730999999999999 0.3865333333333333 1.0529053333333334 0.8797333333333334 1.5993519999999999 1.3328 0.3503733333333333 0.31146666666666667 0.7198266666666666 0.6008 1.1062133333333333 0.8664000000000001l0.09329333333333334 0.0532Z"
        clipRule="evenodd"  />
    <path fillRule="evenodd"
        d="M15.991333333333332 23.478933333333334c-0.04413333333333333 -0.12373333333333332 -0.1356 -0.2248 -0.25439999999999996 -0.28106666666666663 -0.11866666666666666 -0.05613333333333333 -0.25493333333333335 -0.06293333333333333 -0.3786666666666666 -0.018799999999999997 -0.12373333333333332 0.04426666666666666 -0.2248 0.13573333333333332 -0.28106666666666663 0.25439999999999996 -0.05613333333333333 0.11879999999999999 -0.06293333333333333 0.25493333333333335 -0.018799999999999997 0.3786666666666666 0.07426666666666666 0.38880000000000003 -0.009066666666666666 0.7912 -0.23146666666666665 1.1186666666666665 -0.2225333333333333 0.3273333333333333 -0.5658666666666666 0.5530666666666666 -0.9546666666666666 0.6273333333333333 -0.23506666666666667 0.0063999999999999994 -0.46826666666666666 -0.044 -0.6797333333333333 -0.14666666666666667 -0.22782666666666665 -0.0872 -0.4361733333333333 -0.2185333333333333 -0.6130933333333333 -0.38639999999999997 -0.11809333333333333 -0.12266666666666666 -0.2293333333333333 -0.2517333333333333 -0.3332 -0.3865333333333333 -0.06088 -0.09426666666666667 -0.10589333333333334 -0.19786666666666666 -0.13327999999999998 -0.3065333333333333 -0.054106666666666664 -0.2536 -0.016319999999999998 -0.5181333333333333 0.10662666666666666 -0.7464 0.09329333333333334 -0.09333333333333334 0.15993333333333332 -0.18666666666666668 0.23990666666666666 -0.27986666666666665 0.11052000000000001 -0.1552 0.2510133333333333 -0.2865333333333333 0.41315999999999997 -0.3865333333333333 0.29308 -0.19213333333333332 0.63588 -0.2944 0.9862799999999999 -0.2944s0.6932 0.10226666666666667 0.9862666666666666 0.2944c0.08493333333333333 0.07013333333333333 0.19319999999999998 0.10586666666666666 0.30333333333333334 0.09999999999999999 0.11 -0.005866666666666667 0.21386666666666665 -0.0528 0.29106666666666664 -0.13146666666666665 0.07706666666666666 -0.0788 0.12173333333333333 -0.18373333333333333 0.12519999999999998 -0.29386666666666666 0.0034666666666666665 -0.11013333333333333 -0.03453333333333333 -0.21760000000000002 -0.10653333333333333 -0.30106666666666665 -0.3276 -0.33573333333333333 -0.7378666666666667 -0.5789333333333333 -1.1894666666666667 -0.7053333333333334 -0.4516 -0.12639999999999998 -0.9286666666666666 -0.13133333333333333 -1.3828133333333332 -0.0144 -0.002853333333333333 -0.20773333333333333 -0.03424 -0.414 -0.09329333333333334 -0.6130666666666666 -0.045253333333333326 -0.12466666666666666 -0.1376133333333333 -0.22666666666666668 -0.25723999999999997 -0.284 -0.11962666666666666 -0.057333333333333326 -0.25697333333333333 -0.06546666666666666 -0.38250666666666666 -0.02253333333333333 -0.06281333333333333 0.02093333333333333 -0.12077333333333332 0.054266666666666664 -0.17042666666666664 0.09799999999999999 -0.049653333333333334 0.04373333333333333 -0.09 0.09706666666666666 -0.1186 0.1568 -0.0286 0.05973333333333333 -0.04489333333333333 0.12453333333333333 -0.04790666666666666 0.19066666666666665 -0.003013333333333333 0.06613333333333332 0.007333333333333332 0.13226666666666664 0.0304 0.19426666666666664 0.07329333333333332 0.22519999999999998 0.07329333333333332 0.46786666666666665 0 0.6930666666666667 -0.41046666666666665 0.2353333333333333 -0.75088 0.5757333333333333 -0.9862666666666666 0.9862666666666666 -0.05316 0.005733333333333333 -0.10678666666666665 0.005733333333333333 -0.15994666666666665 0 -0.23107999999999998 0.009733333333333333 -0.46074666666666664 -0.040799999999999996 -0.6663866666666667 -0.14666666666666667 -0.2564666666666666 -0.05959999999999999 -0.49728 -0.17319999999999997 -0.7063866666666666 -0.3332 -0.12013333333333333 -0.11693333333333333 -0.22737333333333332 -0.24653333333333333 -0.31986666666666663 -0.3865333333333333 -0.06992 -0.09066666666666667 -0.11988 -0.19506666666666667 -0.14661333333333332 -0.3065333333333333 -0.04298666666666666 -0.2809333333333333 0.00496 -0.5682666666666667 0.13682666666666665 -0.82 0.13188 -0.2517333333333333 0.3407866666666666 -0.4548 0.5962133333333333 -0.5793333333333333 0.2918133333333333 -0.19546666666666668 0.63508 -0.2997333333333333 0.9862666666666666 -0.2997333333333333s0.6944533333333333 0.10426666666666667 0.9862666666666666 0.2997333333333333c0.08484 0.0812 0.19849333333333333 0.12546666666666667 0.31597333333333333 0.12306666666666666 0.11746666666666666 -0.002533333333333333 0.22913333333333333 -0.05159999999999999 0.31044 -0.1364 0.08129333333333333 -0.08493333333333333 0.12557333333333331 -0.19853333333333334 0.12306666666666666 -0.31599999999999995 -0.002493333333333333 -0.11746666666666666 -0.05156 -0.2292 -0.1364 -0.3104 -0.27024 -0.2866666666666666 -0.6039466666666666 -0.5058666666666667 -0.9742933333333333 -0.6401333333333333 -0.37036 -0.13426666666666665 -0.7670266666666665 -0.17986666666666665 -1.1581733333333333 -0.13293333333333332 0.04756 -0.3721333333333333 -0.0077599999999999995 -0.75 -0.15993333333333332 -1.0929333333333333 -0.044186666666666666 -0.12373333333333332 -0.13570666666666664 -0.2248 -0.25442666666666663 -0.28106666666666663 -0.11873333333333333 -0.05613333333333333 -0.25493333333333335 -0.06293333333333333 -0.37865333333333334 -0.018799999999999997 -0.12370666666666666 0.04426666666666666 -0.22481333333333334 0.13573333333333332 -0.2810533333333333 0.25439999999999996 -0.05622666666666666 0.11879999999999999 -0.063 0.25493333333333335 -0.01881333333333333 0.3786666666666666 0.04596 0.19573333333333334 0.047053333333333336 0.3993333333333333 0.0031999999999999997 0.5954666666666666 -0.043853333333333334 0.19626666666666664 -0.13152 0.37986666666666663 -0.25644 0.5374666666666666 -0.2594533333333333 0.13799999999999998 -0.4974133333333333 0.31306666666666666 -0.7063733333333333 0.5197333333333333 -0.07677333333333333 0.0388 -0.15711999999999998 0.06999999999999999 -0.23990666666666666 0.09333333333333334 -0.23013333333333333 0 -0.45753333333333335 -0.049999999999999996 -0.6664 -0.14666666666666667 -0.22781333333333334 -0.0872 -0.43616 -0.2185333333333333 -0.61308 -0.38639999999999997 -0.12179999999999999 -0.11919999999999999 -0.23326666666666665 -0.24853333333333333 -0.3332 -0.3865333333333333 -0.06890666666666666 -0.09466666666666665 -0.11456 -0.20426666666666665 -0.13327999999999998 -0.31986666666666663 -0.05522666666666666 -0.2852 -0.009653333333333333 -0.5806666666666667 0.12891999999999998 -0.836 0.13857333333333333 -0.2552 0.3615466666666667 -0.45439999999999997 0.6307733333333333 -0.5634666666666666 0.29308 -0.19213333333333332 0.6358533333333333 -0.2944 0.9862666666666666 -0.2944 0.3504133333333333 0 0.6931866666666666 0.10226666666666667 0.9862666666666666 0.2944 0.08610666666666666 0.05053333333333333 0.18682666666666664 0.07026666666666666 0.28562666666666664 0.05586666666666666 0.09878666666666666 -0.014266666666666665 0.18977333333333335 -0.061733333333333335 0.258 -0.13466666666666666 0.06822666666666666 -0.0728 0.10962666666666666 -0.16679999999999998 0.11741333333333333 -0.26626666666666665 0.0077733333333333335 -0.0996 -0.018533333333333332 -0.1988 -0.07461333333333334 -0.2813333333333333 -0.42096 -0.3753333333333333 -0.9365333333333333 -0.6284 -1.4909466666666664 -0.7317333333333332 -0.5544 -0.10333333333333333 -1.12652 -0.053066666666666665 -1.6544400000000001 0.14533333333333331 -0.5560666666666666 0.17986666666666665 -1.0290266666666665 0.5536 -1.3327866666666666 1.0528 -0.3837466666666667 0.5369333333333333 -0.5547066666666667 1.1970666666666667 -0.4798133333333333 1.8526666666666665 0.046973333333333325 0.2805333333333333 0.14164 0.5510666666666666 0.2798933333333333 0.7996 0.18902666666666668 0.2965333333333333 0.41274666666666665 0.5694666666666666 0.6663866666666667 0.8130666666666666 0.3879333333333333 0.3337333333333333 0.8491466666666666 0.5711999999999999 1.34612 0.6930666666666667 0.2033333333333333 0.0624 0.4138933333333333 0.09826666666666667 0.6264133333333333 0.10653333333333333 -0.02676 0.21693333333333334 -0.02676 0.43626666666666664 0 0.6530666666666667 0.04938666666666666 0.27773333333333333 0.14873333333333333 0.5441333333333334 0.2932133333333333 0.7864 0.18038666666666664 0.30666666666666664 0.40492 0.5850666666666666 0.6664 0.8264 0.38649333333333336 0.32826666666666665 0.8420666666666665 0.5650666666666666 1.3327866666666666 0.6929333333333334 0.31667999999999996 0.08653333333333332 0.64504 0.12253333333333333 0.9729466666666666 0.10666666666666666 0.00652 0.035199999999999995 0.00652 0.07133333333333333 0 0.10666666666666666 0.04566666666666667 0.2828 0.14521333333333333 0.5542666666666667 0.2932133333333333 0.7996 0.18065333333333333 0.3025333333333333 0.40523999999999993 0.5765333333333333 0.6664 0.8130666666666666 0.38116 0.3361333333333333 0.8386933333333333 0.574 1.3327866666666666 0.6930666666666667 0.48786666666666667 0.13853333333333334 1.0048 0.13853333333333334 1.4926666666666666 0 0.35706666666666664 -0.11026666666666665 0.6885333333333332 -0.2909333333333333 0.9746666666666666 -0.5311999999999999 0.28613333333333335 -0.24039999999999997 0.5212 -0.5356 0.6913333333333332 -0.8682666666666666 0.14679999999999999 -0.32026666666666664 0.22173333333333334 -0.6688000000000001 0.21946666666666664 -1.0210666666666666 -0.0022666666666666664 -0.3522666666666666 -0.08173333333333332 -0.6997333333333333 -0.2328 -1.0181333333333331Z"
        clipRule="evenodd"  />
    <path fillRule="evenodd"
        d="M14.392 8.471879999999999c0.18133333333333335 0.03470666666666666 0.3596 0.08373333333333333 0.5331999999999999 0.14661333333333332 0.9196 0.37318666666666667 1.4259999999999997 -0.59976 0.7595999999999999 -1.0262533333333332 -0.3317333333333333 -0.19839999999999997 -0.6910666666666666 -0.34661333333333333 -1.0661333333333332 -0.4398133333333333 -0.8323999999999999 -0.17934666666666665 -1.69036 -0.20643999999999998 -2.5323599999999997 -0.07997333333333333 -0.74356 0.05029333333333333 -1.4904266666666666 0.014506666666666668 -2.2257599999999997 -0.10662666666666666l-2.7322266666666666 -1.0262533333333332c-0.6311599999999999 -0.2655333333333333 -1.2875733333333332 -0.46648 -1.9592133333333335 -0.5997466666666667 -0.05692 0.004746666666666666 -0.11224 0.02124 -0.16246666666666665 0.04845333333333333 -0.05021333333333333 0.027200000000000002 -0.09425333333333333 0.06453333333333333 -0.12932 0.10962666666666666 -0.03506666666666666 0.045079999999999995 -0.06041333333333333 0.09694666666666665 -0.07441333333333333 0.15233333333333332 -0.014013333333333333 0.05537333333333333 -0.016386666666666667 0.11305333333333334 -0.006973333333333333 0.16938666666666663 0.00896 0.09949333333333334 0.052559999999999996 0.19268 0.12318666666666667 0.26332 0.07064 0.07062666666666667 0.16382666666666665 0.11422666666666666 0.26332 0.12318666666666667 0 0 0.15993333333333332 0.07997333333333333 0.30654666666666663 0.15994666666666665 0.8263199999999999 0.4264933333333333 2.57228 1.5193733333333332 3.758466666666666 2.119133333333333 0.48728 0.27824 1.0276666666666667 0.4508 1.5860266666666665 0.5064666666666666l1.5060533333333332 -0.30654666666666663c0.67008 -0.17098666666666665 1.3615333333333333 -0.24282666666666666 2.0524666666666667 -0.21325333333333332Z"
        clipRule="evenodd"  />
    <path fillRule="evenodd"
        d="M31.878266666666665 5.166399999999999c-0.0692 -0.11461333333333332 -0.1809333333333333 -0.19717333333333334 -0.31079999999999997 -0.22963999999999998 -0.12986666666666666 -0.032466666666666665 -0.2672 -0.012199999999999999 -0.38226666666666664 0.05637333333333333l-2.3722666666666665 1.3327866666666666c-0.4250666666666666 0.2437333333333333 -0.8712 0.4489066666666666 -1.3328 0.6130933333333333 -0.2712 0.08714666666666666 -0.5550666666666666 0.12770666666666666 -0.8397333333333333 0.11994666666666666 -0.4461333333333333 -0.0068000000000000005 -0.8912 -0.04241333333333333 -1.3328 -0.10662666666666666 -0.39226666666666665 -0.06761333333333333 -0.7796 -0.16111999999999999 -1.1594666666666666 -0.27988 -0.5597333333333333 -0.1866 -1.0929333333333333 -0.4264933333333333 -1.6526666666666667 -0.5864266666666667 -0.432 -0.13083999999999998 -0.8815999999999999 -0.19378666666666666 -1.3328 -0.1866 -0.3598666666666666 0.01677333333333333 -0.7149333333333333 0.08869333333333332 -1.0529333333333333 0.21325333333333332 -0.4716 0.15682666666666667 -0.9198666666666666 0.37649333333333335 -1.3328 0.6530666666666667 -0.3332 0.19992 -3.3986666666666663 3.03876 -3.6918666666666664 3.3453066666666667 -0.5134666666666666 0.48635999999999996 -0.9614666666666666 1.0374266666666667 -1.3328 1.6393333333333333 -0.2561333333333333 0.45288 -0.40226666666666666 0.9596533333333334 -0.42644 1.4794 -0.02989333333333333 0.30394666666666664 0.009773333333333332 0.6107466666666667 0.11603999999999999 0.8970133333333333 0.10613333333333333 0.2864 0.27613333333333334 0.5448 0.49706666666666666 0.7555999999999999 0.31346666666666667 0.24786666666666668 0.6786666666666666 0.4221333333333333 1.0685333333333333 0.5097333333333333 0.38986666666666664 0.08773333333333333 0.7945333333333333 0.08653333333333332 1.1838666666666666 -0.0031999999999999997 0.6881333333333333 -0.13773333333333332 1.3328 -0.43946666666666667 1.8792 -0.8795999999999999 0.5445333333333333 -0.43320000000000003 1.0526666666666666 -0.9101333333333332 1.5194666666666665 -1.4261466666666665 0.6786666666666666 0.2852133333333333 1.3985333333333332 0.46068 2.1323999999999996 0.5197466666666666 0.34546666666666664 0.03986666666666666 0.6942666666666667 0.03986666666666666 1.0395999999999999 0 0.3423999999999999 -0.04959999999999999 0.6778666666666666 -0.13906666666666667 0.9996 -0.2665333333333333 0.7353333333333333 -0.30922666666666665 1.4014666666666664 -0.7623733333333332 1.9592 -1.3327866666666666 0.048799999999999996 -0.032 0.0904 -0.07366666666666666 0.12240000000000001 -0.12242666666666666 0.032 -0.04874666666666667 0.053733333333333334 -0.10354666666666668 0.06373333333333334 -0.16101333333333334s0.008133333333333333 -0.11635999999999999 -0.005599999999999999 -0.1730533333333333c-0.013600000000000001 -0.05670666666666666 -0.0388 -0.11 -0.07386666666666666 -0.15658666666666665 -0.03333333333333333 -0.047279999999999996 -0.07546666666666665 -0.08754666666666666 -0.12426666666666666 -0.11849333333333334 -0.048799999999999996 -0.030946666666666667 -0.10333333333333333 -0.05197333333333333 -0.16026666666666667 -0.06188 -0.056933333333333336 -0.009893333333333334 -0.1152 -0.00848 -0.1716 0.004173333333333333 -0.05639999999999999 0.012653333333333332 -0.10973333333333332 0.03629333333333333 -0.1569333333333333 0.06957333333333332 -0.6130666666666666 0.25994666666666666 -1.2588 0.4348266666666667 -1.9193333333333333 0.5197999999999999l-1.1594666666666666 0.19990666666666668c-0.2665333333333333 0 -0.5065333333333333 0.09330666666666666 -0.7730666666666666 0.10662666666666666 -0.41693333333333327 0.03337333333333333 -0.8358666666666666 0.03337333333333333 -1.2528 0 0.013066666666666666 -0.047999999999999994 0.013066666666666666 -0.0986 0 -0.1466 -0.03973333333333333 -0.04112 -0.08733333333333333 -0.07381333333333333 -0.13999999999999999 -0.09613333333333332 -0.05266666666666667 -0.022333333333333334 -0.10933333333333334 -0.033839999999999995 -0.1665333333333333 -0.033839999999999995 -0.0572 0 -0.11386666666666667 0.011506666666666667 -0.1665333333333333 0.033839999999999995 -0.05266666666666667 0.02232 -0.10026666666666667 0.05501333333333333 -0.13999999999999999 0.09613333333333332 -0.6294666666666666 0.6250533333333332 -1.3068 1.1999066666666667 -2.0258666666666665 1.7192933333333331 -0.4297333333333333 0.2958666666666666 -0.9226666666666665 0.48760000000000003 -1.4393333333333331 0.5597333333333333 -0.3577333333333333 0.058399999999999994 -0.7246666666666666 -0.007466666666666667 -1.0395999999999999 -0.18653333333333333 -0.12533333333333332 -0.06839999999999999 -0.22533333333333333 -0.17533333333333334 -0.2853333333333333 -0.3049333333333333 -0.06 -0.1296 -0.0768 -0.2749333333333333 -0.04786666666666667 -0.41479999999999995 0.05586666666666666 -0.30504 0.17386666666666664 -0.5953599999999999 0.34653333333333336 -0.8529733333333334 0.33186666666666664 -0.46489333333333327 0.7165333333333332 -0.8897733333333333 1.1461333333333332 -1.26616 0.6530666666666667 -0.6530666666666667 1.3328 -1.3327866666666666 2.0258666666666665 -1.9858533333333332 0.43626666666666664 -0.40147999999999995 0.9042666666666667 -0.7669599999999999 1.3994666666666666 -1.0928933333333333 0.2576 -0.17394666666666664 0.5296 -0.32554666666666665 0.8129333333333333 -0.45314666666666664 0.5250666666666666 -0.2304133333333333 1.1134666666666666 -0.2727866666666666 1.666 -0.11994666666666666 0.5464 0.11994666666666666 1.0662666666666665 0.31986666666666663 1.6126666666666667 0.4798 0.4776 0.11890666666666666 0.9630666666666667 0.20353333333333334 1.4527999999999999 0.25322666666666666 0.4794666666666666 0.026520000000000002 0.96 0.026520000000000002 1.4393333333333331 0 0.4278666666666667 -0.012399999999999998 0.8508 -0.0934 1.2529333333333332 -0.23989333333333332 0.5289333333333333 -0.22152 1.0373333333333332 -0.48910666666666663 1.5193333333333332 -0.79968l2.3057333333333334 -1.4527466666666666c0.11479999999999999 -0.05501333333333333 0.204 -0.15234666666666666 0.24866666666666665 -0.27158666666666664 0.04479999999999999 -0.11925333333333334 0.0416 -0.2511733333333333 -0.008799999999999999 -0.3681466666666667Z"
        clipRule="evenodd"  />
    <path fillRule="evenodd"
        d="M24.747866666666667 18.6676c-0.08146666666666666 -0.2332 -0.17946666666666666 -0.4604 -0.2932 -0.6797333333333333 -0.37693333333333334 -0.6467999999999999 -0.8238666666666666 -1.2502666666666666 -1.3328 -1.7993333333333332l-1.4259999999999997 -1.626c-0.07239999999999999 -0.08386666666666666 -0.17373333333333332 -0.1373333333333333 -0.2837333333333333 -0.14973333333333333 -0.11013333333333333 -0.012399999999999998 -0.2208 0.0172 -0.31 0.0828 -0.0892 0.06559999999999999 -0.15039999999999998 0.1625333333333333 -0.17133333333333334 0.2713333333333333 -0.0208 0.10880000000000001 0.00013333333333333334 0.22146666666666665 0.05866666666666666 0.3154666666666667l1.0529333333333333 1.8925333333333332c0.34639999999999993 0.5531999999999999 0.6494666666666666 1.1325333333333334 0.9062666666666666 1.7326666666666668 0.16226666666666667 0.3362666666666666 0.27026666666666666 0.6961333333333333 0.31986666666666663 1.0661333333333332 0.0424 0.23306666666666667 0.034666666666666665 0.4725333333333333 -0.0228 0.7024 -0.057466666666666666 0.22986666666666666 -0.16333333333333333 0.4448 -0.3104 0.6304 -0.1868 0.2128 -0.4256 0.37346666666666667 -0.6930666666666667 0.4665333333333333 -0.0196 -0.049999999999999996 -0.04186666666666666 -0.09893333333333333 -0.06666666666666667 -0.14666666666666667 -0.28106666666666663 -0.41786666666666666 -0.5929333333333333 -0.8144 -0.9329333333333333 -1.1861333333333333l-1.9192 -2.1723999999999997c-0.0368 -0.054266666666666664 -0.08386666666666666 -0.1008 -0.13853333333333334 -0.13679999999999998 -0.054799999999999995 -0.03613333333333333 -0.11599999999999999 -0.061066666666666665 -0.1804 -0.07346666666666667 -0.13 -0.024933333333333335 -0.2645333333333333 0.0026666666666666666 -0.3741333333333333 0.07693333333333333 -0.10959999999999999 0.07426666666666666 -0.18519999999999998 0.18893333333333331 -0.2101333333333333 0.3189333333333333 -0.025066666666666668 0.13 0.0026666666666666666 0.2645333333333333 0.0768 0.3741333333333333l1.4928 2.5456c0.2538666666666667 0.3566666666666667 0.48960000000000004 0.7258666666666667 0.7064 1.1062666666666665 0.1152 0.19653333333333334 0.20479999999999998 0.4070666666666667 0.2665333333333333 0.6264 0.074 0.15253333333333333 0.09586666666666667 0.3252 0.06213333333333333 0.4913333333333333 -0.0336 0.16613333333333333 -0.12106666666666667 0.31666666666666665 -0.24866666666666665 0.42826666666666663 -0.19066666666666665 0.15773333333333334 -0.42146666666666666 0.2592 -0.6664 0.2932l0 -0.11986666666666665c-0.1416 -0.3025333333333333 -0.31586666666666663 -0.5886666666666667 -0.5198666666666667 -0.8530666666666666 -0.31986666666666663 -0.3865333333333333 -0.6264 -0.7597333333333333 -0.9729333333333333 -1.1194666666666666 -0.34653333333333336 -0.3598666666666666 -0.6664 -0.7064 -1.0262666666666667 -1.0395999999999999 -0.07306666666666667 -0.08933333333333333 -0.1781333333333333 -0.14639999999999997 -0.2929333333333333 -0.1588 -0.11466666666666665 -0.012533333333333334 -0.22959999999999997 0.020666666666666667 -0.3201333333333333 0.09213333333333332 -0.09013333333333332 0.07533333333333334 -0.14746666666666666 0.1828 -0.15999999999999998 0.2997333333333333 -0.012399999999999998 0.11693333333333333 0.021066666666666668 0.23399999999999999 0.09333333333333334 0.32666666666666666 0.21333333333333332 0.31986666666666663 0.39986666666666665 0.6264 0.5864 0.9596 0.18666666666666668 0.3332 0.5198666666666667 0.9729333333333333 0.7597333333333333 1.4794666666666665l0.3732 0.9062666666666666 -0.18653333333333333 0.31986666666666663c-0.09 0.144 -0.20853333333333335 0.268 -0.34839999999999993 0.3642666666666666 -0.13986666666666664 0.09626666666666667 -0.298 0.1628 -0.4646666666666666 0.19546666666666668 -0.32199999999999995 0.08559999999999998 -0.6642666666666666 0.0476 -0.9596 -0.10666666666666666 -0.05506666666666667 -0.034133333333333335 -0.1164 -0.0572 -0.1804 -0.0676 -0.064 -0.010533333333333334 -0.12946666666666667 -0.008266666666666665 -0.19266666666666665 0.006666666666666666 -0.06306666666666666 0.0148 -0.12266666666666666 0.041999999999999996 -0.17533333333333334 0.07986666666666667 -0.05266666666666667 0.038 -0.09720000000000001 0.08586666666666666 -0.13133333333333333 0.14106666666666667 -0.06973333333333333 0.11333333333333334 -0.09213333333333332 0.2496 -0.06213333333333333 0.3793333333333333 0.029866666666666666 0.1297333333333333 0.10973333333333332 0.24239999999999998 0.22213333333333332 0.3137333333333333 0.42839999999999995 0.37133333333333335 0.9792000000000001 0.5708 1.5459999999999998 0.5597333333333333 0.3692 0.009466666666666667 0.7365333333333333 -0.057866666666666663 1.0783999999999998 -0.19786666666666666 0.3417333333333333 -0.13986666666666664 0.6507999999999999 -0.34933333333333333 0.9074666666666666 -0.6150666666666667 0.19453333333333334 -0.20013333333333333 0.35639999999999994 -0.42946666666666666 0.47973333333333334 -0.6797333333333333 0.04066666666666666 -0.13013333333333332 0.0676 -0.26413333333333333 0.07999999999999999 -0.39986666666666665 0.4586666666666666 0.032 0.9178666666666666 -0.05533333333333333 1.3328 -0.2532 0.39226666666666665 -0.21960000000000002 0.7066666666666667 -0.5554666666666667 0.9001333333333333 -0.9611999999999999 0.1933333333333333 -0.40586666666666665 0.256 -0.8615999999999999 0.17946666666666666 -1.3045333333333333 0.49279999999999996 -0.0924 0.9524 -0.31306666666666666 1.3328 -0.6397333333333333 0.3036 -0.2766666666666666 0.5486666666666666 -0.6115999999999999 0.7203999999999999 -0.9848 0.1716 -0.3732 0.26666666666666666 -0.7770666666666666 0.2792 -1.1877333333333333 -0.030533333333333332 -0.40373333333333333 -0.1112 -0.8022666666666667 -0.24 -1.1861333333333333Z"
        clipRule="evenodd"  />
    <path fillRule="evenodd"
        d="M31.984933333333334 17.028266666666667c-0.015466666666666665 -0.06306666666666666 -0.04346666666666666 -0.12253333333333333 -0.08199999999999999 -0.17479999999999998 -0.03866666666666667 -0.05226666666666666 -0.0872 -0.0964 -0.14293333333333333 -0.12986666666666666 -0.05573333333333333 -0.033466666666666665 -0.1176 -0.0556 -0.18186666666666665 -0.06506666666666666 -0.0644 -0.009466666666666667 -0.12986666666666666 -0.006133333333333333 -0.19293333333333332 0.009866666666666666 -0.8129333333333333 0.09333333333333334 -1.5993333333333333 0.12 -2.385733333333333 0.2532 -0.5350666666666666 0.086 -1.0614666666666666 0.21986666666666665 -1.5726666666666667 0.39986666666666665 -0.5877333333333333 0.22159999999999996 -1.1469333333333331 0.5125333333333333 -1.666 0.8662666666666667 -1.0928 0.45319999999999994 -0.4397333333333333 1.3328 0.5865333333333334 1.0395999999999999l1.2394666666666665 -0.2532 0.9329333333333333 -0.2265333333333333 0.9196 -0.2932c0.7330666666666665 -0.2533333333333333 1.4527999999999999 -0.5331999999999999 2.1857333333333333 -0.8264 0.06319999999999999 -0.0156 0.12253333333333333 -0.04346666666666666 0.17479999999999998 -0.08213333333333334 0.0524 -0.03853333333333333 0.09653333333333333 -0.0872 0.12986666666666666 -0.14293333333333333 0.033466666666666665 -0.05573333333333333 0.0556 -0.11746666666666666 0.06506666666666666 -0.18186666666666665 0.009466666666666667 -0.06426666666666667 0.006133333333333333 -0.12986666666666666 -0.009866666666666666 -0.1928Z"
        clipRule="evenodd"  />
</svg>