<svg xmlns="http://www.w3.org/2000/svg" viewBox="0 0 32 32" id="Home-Chimney-2--Streamline-Freehand" fill="none"
    stroke="currentColor">
    <desc>"Home Chimney 2 Streamline Icon: https://streamlinehq.com"</desc>
    <path
        d="M31.984933333333334 18.799866666666667c-1.1637333333333333 -1.9434666666666667 -2.502 -3.7767999999999997 -3.9982666666666664 -5.477546666666666 -0.4530666666666666 -0.51532 -0.9196 -1.02176 -1.3993333333333333 -1.5193066666666666 0 -0.50644 0 -0.9995599999999999 0.09333333333333334 -1.5059999999999998 0.0932 -1.0528533333333332 0.2265333333333333 -2.10572 0.34653333333333336 -3.1319199999999996 0.03186666666666667 -0.5863066666666666 0.022933333333333333 -1.1741333333333333 -0.026666666666666665 -1.7592133333333333 0.0017333333333333333 -0.5049066666666666 -0.11706666666666667 -1.0029333333333332 -0.34653333333333336 -1.45268 -0.1676 -0.2878133333333333 -0.4252 -0.5125866666666666 -0.7330666666666665 -0.6397066666666666 -0.2997333333333333 -0.09159999999999999 -0.6077333333333332 -0.15408 -0.9196 -0.18658666666666668 -0.5041333333333333 -0.05985333333333333 -1.0116 -0.08656 -1.5191999999999999 -0.07996 -0.5146666666666666 0.007026666666666667 -1.0277333333333334 0.06056 -1.5326666666666666 0.15992 -0.26359999999999995 0.04789333333333333 -0.5222666666666667 0.11925333333333334 -0.7730666666666666 0.21323999999999999 -0.22146666666666665 0.09033333333333333 -0.42133333333333334 0.22659999999999997 -0.5864 0.39982666666666666 -0.21986666666666665 0.29590666666666665 -0.33266666666666667 0.6577599999999999 -0.31986666666666663 1.0261999999999998v0.4664533333333333l-2.3056 -2.572173333333333c-0.2869333333333333 -0.31664 -0.614 -0.5944133333333332 -0.9729333333333333 -0.8262933333333333 -0.3296 -0.20954666666666666 -0.716 -0.31196 -1.1061333333333332 -0.2932 -0.3274666666666667 0.0077733333333333335 -0.6405333333333333 0.13588 -0.8795999999999999 0.35984 -0.28826666666666667 0.28912 -0.5471999999999999 0.60608 -0.7729333333333333 0.94624L11.407493333333331 6.12556c-1.1328266666666666 1.3327333333333333 -2.2923066666666667 2.6654666666666667 -3.4651066666666663 3.9981999999999998 -1.1728133333333333 1.3327333333333333 -2.3722666666666665 2.6654666666666667 -3.6117066666666666 3.87824 -1.01288 1.0529333333333333 -2.1190533333333335 1.9325333333333332 -3.078621333333333 2.985333333333333 -0.434924 0.4696 -0.831568 0.9732 -1.1861328 1.5059999999999998 -0.05748386666666667 0.0892 -0.07847570666666666 0.19693333333333332 -0.05862769333333333 0.30119999999999997 0.019847959999999998 0.10413333333333333 0.07901502666666665 0.1968 0.16524582666666665 0.2585333333333333 0.09073333333333333 0.05613333333333333 0.199676 0.07506666666666667 0.30401599999999995 0.05266666666666667 0.10433866666666666 -0.022266666666666664 0.19598 -0.08413333333333334 0.2557333333333333 -0.17253333333333332 0.4639493333333333 -0.6335999999999999 0.9908399999999999 -1.2185333333333332 1.5726266666666666 -1.746 0.8929333333333332 -0.8396 1.8525066666666667 -1.5725333333333333 2.7720933333333333 -2.4387999999999996 1.3327333333333333 -1.2261333333333333 2.55884 -2.465613333333333 3.811613333333333 -3.7450266666666665 1.2527733333333333 -1.2794266666666667 2.4522266666666663 -2.5721866666666666 3.6383599999999996 -3.9049199999999997 0 0 3.451813333333333 -3.9315599999999997 3.4251466666666666 -3.9315599999999997 -0.026666666666666665 0 3.864933333333333 3.8782533333333333 3.864933333333333 3.8782533333333333 1.9324 1.89248 3.9182666666666663 3.69168 5.810666666666666 5.610813333333333l0.07999999999999999 0.09329333333333334c0.4530666666666666 0.43979999999999997 0.8929333333333332 0.8795466666666667 1.3328 1.3327466666666665 1.5279999999999998 1.6036000000000001 2.9064 3.343333333333333 4.118133333333333 5.1975999999999996 0.031466666666666664 0.0508 0.07266666666666666 0.0948 0.12119999999999999 0.1297333333333333 0.04853333333333333 0.0348 0.10346666666666667 0.05973333333333333 0.1616 0.07333333333333333s0.1184 0.0156 0.17733333333333334 0.005999999999999999c0.05893333333333334 -0.009733333333333333 0.11546666666666666 -0.03093333333333333 0.16626666666666667 -0.0624 0.050666666666666665 -0.031466666666666664 0.0948 -0.07266666666666666 0.1296 -0.12119999999999999 0.0348 -0.04853333333333333 0.05973333333333333 -0.10346666666666667 0.07333333333333333 -0.1616 0.013600000000000001 -0.05826666666666667 0.0156 -0.11853333333333334 0.005999999999999999 -0.17746666666666666 -0.009733333333333333 -0.05893333333333334 -0.03093333333333333 -0.11533333333333332 -0.0624 -0.16613333333333333h0.05333333333333333Zm-10.661866666666667 -12.447746666666667V5.139333333333333c0 -0.42646666666666666 0 -0.4664533333333333 0.13319999999999999 -0.5597466666666666l0.7597333333333333 -0.1466c0.3461333333333333 -0.019973333333333333 0.6933333333333334 -0.019973333333333333 1.0394666666666665 0 0.5369333333333333 0.03213333333333333 1.0710666666666666 0.09890666666666666 1.5993333333333333 0.19990666666666668l0.4664 0.10662666666666666c0.1257333333333333 0.22909333333333332 0.19426666666666664 0.48510666666666663 0.19999999999999998 0.7463333333333333 0.03333333333333333 0.5281199999999999 0.03333333333333333 1.0578266666666667 0 1.5859466666666666v3.6516933333333332c-1.5326666666666666 -1.4660133333333332 -2.8654666666666664 -2.90536 -4.318133333333333 -4.371373333333333h0.12Z"
        strokeWidth=1.3333 />
    <path
        d="M15.245733333333334 14.188666666666666c0.34946666666666665 0.09493333333333333 0.7145333333333334 0.11773333333333333 1.0730666666666666 0.06693333333333333 0.35853333333333326 -0.0508 0.7030666666666666 -0.1741333333333333 1.0122666666666666 -0.36239999999999994 0.30933333333333335 -0.18826666666666664 0.5770666666666666 -0.4377333333333333 0.7867999999999999 -0.7328933333333333 0.2096 -0.2952 0.35706666666666664 -0.6300266666666666 0.4330666666666666 -0.9840666666666666 0.5864 -2.1590266666666666 -1.2261333333333333 -3.9981999999999998 -3.9981333333333335 -2.932013333333333 -0.5558666666666666 0.23570666666666665 -1.0224 0.64168 -1.3327866666666666 1.1594799999999998 -0.20927999999999997 0.3766933333333333 -0.31009333333333333 0.8039999999999999 -0.29128 1.2345066666666666 0.018826666666666665 0.43052 0.15654666666666667 0.8473999999999999 0.3978933333333333 1.2044 0.44830666666666663 0.67352 1.1332399999999998 1.1539199999999998 1.9191066666666665 1.3460533333333333Zm-0.8529333333333333 -3.21188c0.19293333333333332 -0.41014666666666666 0.5366666666666666 -0.7300133333333334 0.9596 -0.8929333333333332 1.3326666666666667 -0.5997333333333332 2.5054666666666665 0.3331733333333333 1.9857333333333334 1.7058933333333333 -0.048266666666666666 0.17558666666666667 -0.13213333333333332 0.3394 -0.24626666666666666 0.4813333333333333 -0.11413333333333332 0.14193333333333333 -0.256 0.25897333333333333 -0.4172 0.34390666666666664 -0.16106666666666666 0.08492 -0.33786666666666665 0.13591999999999999 -0.5194666666666666 0.14985333333333334 -0.18159999999999998 0.013946666666666666 -0.3641333333333333 -0.009493333333333333 -0.5362666666666667 -0.06882666666666666 -0.39226666666666665 -0.11666666666666665 -0.7315999999999999 -0.3664533333333333 -0.9596 -0.7063599999999999 -0.13253333333333334 -0.12850666666666666 -0.22733333333333333 -0.29079999999999995 -0.27426666666666666 -0.46930666666666665 -0.04706666666666666 -0.17852 -0.04426666666666666 -0.36648 0.0077333333333333325 -0.5435599999999999Z"
        strokeWidth=1.3333 />
    <path
        d="M27.4936 18.919866666666664v-2.6654666666666667c0 -0.05946666666666667 -0.011733333333333333 -0.1184 -0.03453333333333333 -0.17346666666666666 -0.0228 -0.054933333333333334 -0.05613333333333333 -0.10493333333333334 -0.09826666666666667 -0.14693333333333333 -0.041999999999999996 -0.042133333333333335 -0.092 -0.07546666666666665 -0.14693333333333333 -0.09826666666666667 -0.054933333333333334 -0.0228 -0.11386666666666667 -0.0344 -0.17346666666666666 -0.0344 -0.05946666666666667 0 -0.1184 0.0116 -0.17333333333333334 0.0344s-0.10493333333333334 0.05613333333333333 -0.14706666666666665 0.09826666666666667c-0.041999999999999996 0.041999999999999996 -0.07546666666666665 0.092 -0.09813333333333332 0.14693333333333333 -0.0228 0.05506666666666667 -0.03453333333333333 0.114 -0.03453333333333333 0.17346666666666666v2.6654666666666667c-0.09333333333333334 2.0923999999999996 -0.2932 4.184799999999999 -0.3332 6.263866666666666 0.05186666666666666 0.8388 0.05186666666666666 1.68 0 2.5187999999999997 -0.03213333333333333 0.4537333333333333 -0.19413333333333332 0.8885333333333333 -0.4664 1.2528 -0.12 0.13333333333333333 -0.3732 0 -0.6130666666666666 0 -0.45319999999999994 0 -0.9196 -0.09333333333333334 -1.1861333333333333 -0.10653333333333333 -0.9329333333333333 0 -5.997333333333334 -0.3598666666666666 -6.757066666666667 -0.3598666666666666H12.380373333333333c-0.8795999999999999 0 -1.772533333333333 0.0932 -2.6654666666666667 0.19986666666666666 -0.65304 0.07999999999999999 -1.4393466666666666 0.2665333333333333 -2.1856799999999996 0.3065333333333333 -0.3903733333333333 0.0336 -0.7831599999999999 -0.025733333333333334 -1.1461466666666666 -0.17319999999999997 -0.19992 -0.09333333333333334 -0.26654666666666665 -0.3598666666666666 -0.33318666666666663 -0.6264 -0.10948 -0.6164 -0.17185333333333333 -1.2401333333333333 -0.18658666666666668 -1.8658666666666666 -0.11994666666666666 -1.3326666666666667 -0.19990666666666668 -2.5721333333333334 -0.2532133333333333 -3.8516 0 -1.9457333333333333 -0.07997333333333333 -3.8782666666666668 -0.09329333333333334 -5.824 0.0017733333333333334 -0.05253333333333333 -0.006813333333333333 -0.10493333333333334 -0.02528 -0.15413333333333332 -0.018466666666666666 -0.0492 -0.046439999999999995 -0.09426666666666667 -0.08233333333333333 -0.13253333333333334 -0.03589333333333333 -0.0384 -0.07899999999999999 -0.06933333333333333 -0.12685333333333332 -0.09106666666666666 -0.04785333333333333 -0.02173333333333333 -0.09952 -0.03373333333333333 -0.15202666666666664 -0.03546666666666666 -0.05361333333333333 -0.0017333333333333333 -0.10704 0.0072 -0.15710666666666667 0.026533333333333332 -0.050053333333333325 0.019333333333333334 -0.09572 0.0484 -0.13426666666666665 0.08573333333333333 -0.03854666666666667 0.03733333333333333 -0.0692 0.08199999999999999 -0.09011999999999999 0.13146666666666665 -0.020919999999999998 0.049333333333333326 -0.03168 0.10239999999999999 -0.03165333333333333 0.15613333333333332 -0.06663999999999999 1.9590666666666667 -0.13327999999999998 3.904933333333333 -0.1466 5.850666666666666 0 1.3326666666666667 0 2.6654666666666667 0.09329333333333334 3.9316 -0.01884 0.8145333333333333 0.0572 1.6285333333333334 0.22655999999999998 2.4255999999999998 0.1264533333333333 0.4918666666666667 0.44275999999999993 0.9136 0.8795999999999999 1.1728 0.4163733333333333 0.206 0.8692 0.32826666666666665 1.3327333333333333 0.3597333333333333 0.9195599999999999 -0.005866666666666667 1.8373466666666665 -0.08159999999999999 2.7454399999999994 -0.2265333333333333 0.95956 -0.09333333333333334 1.9324666666666666 -0.13319999999999999 2.91868 -0.15986666666666666h4.438066666666666l6.6636 0.23986666666666667c0.6073333333333333 0.05533333333333333 1.2185333333333332 0.05533333333333333 1.8258666666666665 0 0.4126666666666666 -0.04066666666666666 0.7964 -0.23013333333333333 1.0794666666666666 -0.5330666666666666 0.33453333333333335 -0.43133333333333335 0.5545333333333333 -0.9402666666666667 0.6397333333333333 -1.4793333333333332 0.0988 -1.0505333333333333 0.0988 -2.108133333333333 0 -3.158666666666667 -0.05333333333333333 -1.9724 0.05333333333333333 -4.0648 0.07999999999999999 -6.143866666666666Z"
        strokeWidth=1.3333 />
    <path
        d="M12.993453333333331 27.889199999999995c0 -0.6930666666666667 -0.18658666666666668 -1.4261333333333335 -0.13327999999999998 -2.1590666666666665 0.08204 -1.1613333333333333 0.4531333333333333 -2.2838666666666665 1.0795599999999999 -3.2652 0.21986666666666665 -0.3408 0.5247999999999999 -0.6185333333333333 0.8846666666666666 -0.8054666666666666 0.36 -0.1869333333333333 0.7624 -0.2768 1.1677333333333333 -0.2608 0.4225333333333333 -0.0092 0.8419999999999999 0.0744 1.2289333333333332 0.24480000000000002 0.38680000000000003 0.17026666666666668 0.7315999999999999 0.42346666666666666 1.0099999999999998 0.7414666666666667 0.5988 0.6871999999999999 0.9670666666666665 1.5448 1.0529333333333333 2.4522666666666666 0.08466666666666667 1.0105333333333333 0.11586666666666667 2.0248 0.0932 3.0386666666666664 0 0.38639999999999997 0.8264 0.5997333333333332 0.9996 0 0.15946666666666665 -1.3502666666666665 0.15946666666666665 -2.7146666666666666 0 -4.064933333333333 -0.14773333333333333 -0.8806666666666666 -0.5144 -1.7101333333333333 -1.0661333333333332 -2.4122666666666666 -0.40426666666666666 -0.48919999999999997 -0.9109333333333334 -0.8835999999999999 -1.4844 -1.1553333333333333 -0.5734666666666666 -0.2717333333333333 -1.1996 -0.4142666666666666 -1.8341333333333332 -0.4172 -0.6597333333333333 -0.0005333333333333334 -1.3079999999999998 0.17133333333333334 -1.8808 0.49866666666666665 -0.5726666666666667 0.3273333333333333 -1.04996 0.7985333333333333 -1.3844266666666665 1.3670666666666667 -0.64368 1.2336 -0.9732533333333333 2.606933333333333 -0.9595733333333333 3.9982666666666664 0.007946666666666666 0.7624 0.12005333333333332 1.5202666666666667 0.33318666666666663 2.2522666666666664 0.15993333333333332 0.3865333333333333 0.8529466666666666 0.3865333333333333 0.8929333333333332 -0.0532Z"
        strokeWidth=1.3333 />
</svg>