<svg xmlns="http://www.w3.org/2000/svg" viewBox="0 0 32 32" id="Home-Chimney-2--Streamline-Freehand" fill="currentColor" stroke="none">
    <desc>{"Envelope Letter Front Streamline Icon: https://streamlinehq.com"}</desc>
    <path fill="#000000"
        d="M31.437199999999997 6.7942800000000005c-0.1184 -0.7153733333333332 -0.448 -1.37904 -0.9462666666666666 -1.9058266666666666 -0.6829333333333333 -0.2914266666666666 -1.4165333333333332 -0.44541333333333333 -2.1590666666666665 -0.45314666666666664 -5.2791999999999994 -0.2864133333333333 -10.570799999999998 -0.25525333333333333 -15.846333333333334 0.09329333333333334 -5.3576533333333325 0.34652 -10.208866666666665 1.05288 -11.741526666666667 2.1457333333333333 -0.25700666666666666 0.238 -0.42212666666666665 0.5588 -0.4664626666666667 0.9062666666666666C0.055904133333333335 9.312746666666666 -0.03320453333333333 11.059280000000001 0.010994359999999998 12.804973333333333 -0.010161199999999999 17.296266666666668 0.21229066666666666 21.78533333333333 0.6773693333333333 26.252399999999998c0.008530666666666666 0.054400000000000004 0.027843999999999997 0.10653333333333333 0.05680533333333333 0.15333333333333332 0.028961333333333332 0.046799999999999994 0.06698533333333333 0.08733333333333333 0.11184 0.11933333333333332 0.04485466666666666 0.03186666666666667 0.09563466666666666 0.05453333333333333 0.14935733333333334 0.06653333333333333 0.05372133333333333 0.011999999999999999 0.10930266666666666 0.0132 0.16347866666666666 0.003333333333333333 0.05417466666666666 -0.009733333333333333 0.105852 -0.030266666666666667 0.15199466666666667 -0.06026666666666666 0.046141333333333326 -0.03 0.08582133333333333 -0.06893333333333333 0.11670133333333334 -0.11453333333333333s0.052346666666666666 -0.0968 0.06313333333333333 -0.1508c0.010786666666666667 -0.054 0.010666666666666666 -0.10959999999999999 -0.0003333333333333333 -0.16346666666666665 -0.19991333333333333 -1.2661333333333333 -0.3864973333333333 -5.331066666666667 -0.41315199999999996 -9.475866666666667 -0.059485333333333335 -2.7172 0.029497333333333334 -5.43564 0.266552 -8.143133333333333 2.1857066666666665 1.4660266666666666 6.5038133333333334 4.33144 10.035599999999999 6.2505999999999995l1.9458133333333332 0.9596c1.0455066666666666 0.5725333333333333 2.189373333333333 0.9432 3.3719066666666664 1.0928 0.5378666666666666 -0.08653333333333332 1.0538666666666665 -0.2766666666666666 1.5193333333333332 -0.5597333333333333 0.36239999999999994 -0.19373333333333334 0.7138666666666666 -0.4072 1.0528 -0.6397333333333333l1.9192 -1.3326666666666667c0.4530666666666666 -0.3332 0.8929333333333332 -0.6530666666666667 1.3326666666666667 -1.0262799999999999 2.5892 -1.9822 5.009733333333333 -4.175413333333333 7.236933333333333 -6.557119999999999 0 0.1466 0.0932 0.3198533333333333 0.13319999999999999 0.50644 0.3885333333333333 2.0872666666666664 0.5716 4.207586666666666 0.5464 6.330559999999999 0.0688 3.6359999999999997 -0.09146666666666665 7.272666666666667 -0.47973333333333334 10.888533333333331 0 0.2932 -0.09333333333333334 0.5997333333333332 -0.13319999999999999 0.7730666666666666h-0.9196c-2.385733333333333 0.23986666666666667 -7.463466666666666 0.6130666666666666 -12.634533333333332 0.9329333333333333 -5.850759999999999 0.3597333333333333 -11.80816 0.6662666666666666 -14.073826666666665 0.7195999999999999 -0.06125333333333333 0 -0.12191999999999999 0.012133333333333333 -0.17850666666666665 0.0356 -0.0566 0.023333333333333334 -0.10801333333333332 0.05773333333333333 -0.15133333333333332 0.10106666666666667 -0.04332 0.043333333333333335 -0.07768 0.09466666666666665 -0.10112 0.15133333333333332 -0.023439999999999996 0.05653333333333333 -0.035506666666666666 0.1172 -0.035506666666666666 0.17853333333333332 0.0034666666666666665 0.12493333333333334 0.05554666666666667 0.24346666666666666 0.14515999999999998 0.33066666666666666 0.08959999999999999 0.08706666666666665 0.2096533333333333 0.13586666666666666 0.3346266666666667 0.13573333333333332 3.0253466666666666 0 12.594506666666668 -0.3865333333333333 19.76464 -0.7729333333333333 3.4118666666666666 -0.17333333333333334 6.277333333333333 -0.3598666666666666 7.636666666666667 -0.49319999999999997 0.3933333333333333 -0.02173333333333333 0.7804 -0.10733333333333334 1.1461333333333332 -0.2532 0.1476 -0.09453333333333333 0.26 -0.23506666666666667 0.31986666666666663 -0.39973333333333333 0.146 -0.40493333333333337 0.24439999999999998 -0.8253333333333333 0.2932 -1.2528 0.44386666666666663 -3.688133333333333 0.6530666666666667 -7.400666666666667 0.6264 -11.115199999999998 0.0296 -2.2385333333333333 -0.15786666666666666 -4.474666666666666 -0.5597333333333333 -6.677053333333333Zm-8.436266666666667 4.371413333333333c-1.6393333333333333 1.2261333333333333 -3.3051999999999997 2.372306666666667 -4.584666666666666 3.14524 -0.5466666666666666 0.4024 -1.1603999999999999 0.7047999999999999 -1.812533333333333 0.8929333333333332 -0.5914666666666666 -0.07519999999999999 -1.1646666666666667 -0.2557333333333333 -1.6925333333333334 -0.5330666666666666 -1.1996 -0.49306666666666665 -2.745533333333333 -1.2528 -4.384813333333333 -2.11904C7.127879999999999 10.805853333333333 3.36952 8.660133333333333 1.517 7.5806000000000004c1.57264 -0.9196 6.090666666666666 -1.3327466666666665 11.048493333333333 -1.5992933333333332 5.21144 -0.28905333333333333 10.435039999999999 -0.28905333333333333 15.646506666666667 0h0.8262666666666667c-1.8765333333333332 1.8803733333333332 -3.894933333333333 3.6136133333333333 -6.037333333333333 5.184386666666667Z"
         />
    <path fill="#000000"
        d="M23.573999999999998 19.215466666666664c0.45319999999999994 0.4398666666666667 0.9196 0.8662666666666667 1.3328 1.2661333333333333 1.3328 1.2394666666666665 2.6654666666666667 2.3190666666666666 3.278533333333333 2.9187999999999996 0.08946666666666667 0.08626666666666666 0.20893333333333333 0.13453333333333334 0.3332 0.13453333333333334s0.2437333333333333 -0.048266666666666666 0.3332 -0.13453333333333334c0.0444 -0.04346666666666666 0.0796 -0.09533333333333333 0.1036 -0.15253333333333333 0.023999999999999997 -0.0572 0.0364 -0.11866666666666666 0.0364 -0.18066666666666667 0 -0.06213333333333333 -0.012399999999999998 -0.1236 -0.0364 -0.1808 -0.023999999999999997 -0.0572 -0.0592 -0.10906666666666666 -0.1036 -0.15239999999999998 -0.5730666666666666 -0.6797333333333333 -1.6393333333333333 -1.9458666666666666 -2.905333333333333 -3.3185333333333333 -0.4265333333333333 -0.45319999999999994 -0.8708 -0.8974666666666666 -1.3328 -1.3328 -0.4530666666666666 -0.4398666666666667 -0.9196 -0.8795999999999999 -1.3328 -1.3328 -0.4130666666666667 -0.4530666666666666 -1.0794666666666666 -0.9062666666666666 -1.5858666666666665 -1.3326666666666667 -0.9196 -0.6264 -1.5993333333333333 0 -0.9462666666666666 0.7862666666666667 0.4530666666666666 0.49319999999999997 0.9462666666666666 1.0395999999999999 1.4926666666666666 1.5993333333333333 0.5464 0.5597333333333333 0.8795999999999999 0.9729333333333333 1.3326666666666667 1.4126666666666667Z"
         />
    <path fill="#000000"
        d="M6.128373333333333 20.468266666666665C4.744 21.839333333333332 3.4359333333333333 23.28533333333333 2.210093333333333 24.79973333333333c-0.040253333333333335 0.0464 -0.07097333333333333 0.10026666666666667 -0.09042666666666667 0.15853333333333333 -0.01944 0.05826666666666667 -0.027213333333333332 0.11973333333333333 -0.02288 0.1809333333333333 0.004333333333333333 0.06133333333333333 0.020679999999999997 0.12106666666666667 0.048133333333333334 0.176 0.02744 0.054933333333333334 0.06544 0.104 0.11182666666666666 0.14426666666666665 0.04637333333333333 0.040266666666666666 0.10022666666666666 0.07093333333333332 0.15847999999999998 0.0904 0.05825333333333333 0.019466666666666667 0.11977333333333331 0.027200000000000002 0.18102666666666667 0.022933333333333333 0.061266666666666664 -0.004399999999999999 0.12106666666666667 -0.0208 0.1760133333333333 -0.048133333333333334 0.054933333333333334 -0.027466666666666667 0.10393333333333334 -0.06546666666666666 0.14418666666666666 -0.11186666666666667 0.78632 -0.7996 2.2523466666666665 -2.0124 3.8516399999999997 -3.438533333333333 0.8396399999999999 -0.7595999999999999 1.719253333333333 -1.5593333333333332 2.5322266666666664 -2.3855999999999997 0.8129733333333333 -0.8262666666666667 1.8925066666666668 -2.025733333333333 2.6655066666666665 -2.945333333333333 0.7729866666666667 -0.9196 -0.18658666666666668 -1.3328 -1.0928666666666667 -0.5197333333333333 -0.6930266666666666 0.6129333333333333 -1.43936 1.2526666666666666 -2.2256799999999997 1.9590666666666667 -0.7863333333333333 0.7064 -1.7059199999999999 1.5859999999999999 -2.5189066666666666 2.3855999999999997Z"
         />
</svg>