<svg viewBox="0 0 32 32" xmlns="http://www.w3.org/2000/svg" id="Tiktok--Streamline-Simple-Icons" fill="currentColor" stroke="none" >
    <desc>{"Tiktok Streamline Icon: https://streamlinehq.com"}</desc>
    <path
        d="M16.7 0.026666666666666665c1.7466666666666666 -0.026666666666666665 3.4799999999999995 -0.013333333333333332 5.213333333333333 -0.026666666666666665 0.10666666666666666 2.04 0.84 4.119999999999999 2.333333333333333 5.56 1.4933333333333334 1.48 3.6 2.16 5.653333333333333 2.3866666666666667v5.373333333333333c-1.92 -0.06666666666666667 -3.8533333333333335 -0.4666666666666666 -5.6 -1.2933333333333332 -0.7599999999999999 -0.3466666666666667 -1.4666666666666668 -0.7866666666666666 -2.16 -1.24 -0.013333333333333332 3.893333333333333 0.013333333333333332 7.786666666666666 -0.026666666666666665 11.666666666666666 -0.10666666666666666 1.8666666666666665 -0.72 3.7199999999999998 -1.8 5.253333333333333 -1.7466666666666666 2.5599999999999996 -4.773333333333333 4.226666666666667 -7.88 4.279999999999999 -1.9066666666666665 0.10666666666666666 -3.813333333333333 -0.41333333333333333 -5.4399999999999995 -1.3733333333333333 -2.6933333333333334 -1.5866666666666664 -4.586666666666666 -4.493333333333333 -4.866666666666666 -7.613333333333333 -0.026666666666666665 -0.6666666666666666 -0.039999999999999994 -1.3333333333333333 -0.013333333333333332 -1.9866666666666666 0.24 -2.533333333333333 1.4933333333333334 -4.96 3.44 -6.613333333333333 2.213333333333333 -1.92 5.306666666666667 -2.84 8.2 -2.293333333333333 0.026666666666666665 1.9733333333333332 -0.05333333333333333 3.9466666666666663 -0.05333333333333333 5.92 -1.3199999999999998 -0.42666666666666664 -2.8666666666666663 -0.30666666666666664 -4.026666666666666 0.4933333333333333 -0.84 0.5466666666666666 -1.48 1.3866666666666667 -1.8133333333333335 2.333333333333333 -0.27999999999999997 0.6799999999999999 -0.19999999999999998 1.4266666666666667 -0.18666666666666668 2.1466666666666665 0.31999999999999995 2.1866666666666665 2.4266666666666667 4.026666666666666 4.666666666666666 3.8266666666666667 1.4933333333333334 -0.013333333333333332 2.92 -0.88 3.6933333333333334 -2.1466666666666665 0.2533333333333333 -0.44 0.5333333333333333 -0.8933333333333333 0.5466666666666666 -1.4133333333333333 0.13333333333333333 -2.3866666666666667 0.07999999999999999 -4.76 0.09333333333333334 -7.1466666666666665 0.013333333333333332 -5.373333333333333 -0.013333333333333332 -10.733333333333334 0.026666666666666665 -16.093333333333334z"
        />
</svg>