<?xml version="1.0" encoding="UTF-8" standalone="no"?>
<!-- Created with Inkscape (http://www.inkscape.org/) -->

<svg
   width="210mm"
   height="210mm"
   viewBox="0 0 210 210"
   version="1.1"
   id="svg135"
   xmlns="http://www.w3.org/2000/svg"
   xmlns:svg="http://www.w3.org/2000/svg">
  <defs
     id="defs132" />
  <g
     id="layer1"
     style="fill:#000000" />
  <path
     d="m 46.684132,76.014973 c -8.72059,-7.367395 -9.472365,-8.269525 -9.472365,-11.72769 0,-4.961715 4.51065,-7.968815 11.878045,-7.968815 6.164555,0 10.22414,1.653905 10.22414,4.20994 0,0.30071 0,0.451065 -0.451065,1.052485 -1.20284,2.10497 -2.10497,4.661005 -2.10497,6.61562 0,5.563135 4.661005,9.62272 10.975914,9.62272 6.765975,0 12.0284,-5.262425 12.0284,-12.0284 0,-10.675205 -12.479465,-17.290825 -32.627034,-17.290825 -22.703604,0 -35.483779,7.21704 -35.483779,19.84686 0,7.51775 3.90923,13.23124 13.83266,19.997214 -15.33621,6.31491 -24.5078647,19.245438 -24.5078647,34.882358 0,21.95183 17.2908247,37.73911 41.0469137,37.73911 23.756089,0 41.347624,-15.93763 41.347624,-37.4384 0,-11.27662 -4.81136,-21.50076 -13.53195,-28.567448 z m -11.12627,18.944729 c 15.93763,10.524848 21.801475,19.095088 21.801475,31.424198 0,6.16455 -1.80426,15.0355 -3.90923,19.09508 -2.556035,4.96172 -6.465265,7.66811 -11.276625,7.66811 -10.073785,0 -15.185854,-10.07379 -15.185854,-30.071 0,-14.43408 3.007099,-24.357513 8.570234,-28.116388 z"
     style="font-weight:bold;font-size:150.355px;font-family:'Century Schoolbook L';-inkscape-font-specification:'Century Schoolbook L Bold';stroke-width:0.264583"
     id="path25449" />
  <path
     d="m 101.69029,118.77217 h 4.91884 q 1.83539,3.59737 4.55176,7.78205 2.71638,4.11127 6.38715,8.22254 3.67078,4.11127 8.36937,7.92888 4.69859,3.74419 10.49842,6.60739 5.79983,2.86321 12.7743,4.62518 6.97448,1.68856 15.27043,1.68856 2.42271,0 5.43275,-0.22025 3.01004,-0.29366 5.653,-1.10123 2.64296,-0.88099 4.40493,-2.42271 1.83539,-1.61515 1.83539,-4.2581 0,-2.78979 -2.3493,-4.91884 -2.27588,-2.20247 -6.97448,-4.18469 -4.69859,-2.05563 -11.89331,-4.11127 -7.12131,-2.05563 -16.81216,-4.62518 -21.58416,-5.57958 -32.00917,-15.56409 -10.35158,-10.05792 -10.35158,-24.520783 0,-9.03011 3.67077,-16.078 3.74419,-7.047891 10.13134,-11.8199 6.46057,-4.845425 15.05019,-7.341553 8.66303,-2.569543 18.42729,-2.569543 4.99226,0 10.42501,0.880986 5.50616,0.880987 10.71867,2.422713 5.2125,1.541726 9.83768,3.744192 4.62517,2.12905 8.0757,4.698593 l 11.08575,-10.718667 h 5.06567 v 31.935754 h -4.62518 q -3.23028,-5.799827 -8.29595,-10.792082 -5.06567,-4.992256 -11.59966,-8.663032 -6.53398,-3.670777 -14.46285,-5.799827 -7.92888,-2.12905 -16.81216,-2.12905 -1.68856,0 -4.33152,0.146831 -2.64295,0.07342 -5.2125,0.734155 -2.49613,0.66074 -4.33151,2.129051 -1.83539,1.394895 -1.83539,3.964438 0,4.184685 7.5618,8.075708 7.63521,3.817607 22.68539,7.782045 6.38715,1.688557 12.33381,3.597361 5.94666,1.835388 11.08575,4.258101 5.2125,2.349296 9.39718,5.432748 4.2581,3.010037 7.26814,7.121311 3.01004,4.11126 4.62518,9.39718 1.68856,5.28592 1.68856,12.18698 0,8.00229 -2.93663,15.1236 -2.93662,7.1213 -8.80986,12.48064 -5.79982,5.35933 -14.46286,8.5162 -8.66303,3.08345 -20.04243,3.08345 -6.24032,0 -11.74649,-0.9544 -5.50616,-0.9544 -10.71867,-2.86321 -5.13908,-1.9088 -10.20475,-4.77201 -5.06567,-2.93662 -10.42501,-6.82764 l -12.48064,14.02237 h -5.50616 z"
     style="font-size:150.355px;font-family:'Gravitas One';-inkscape-font-specification:'Gravitas One';stroke-width:0.264583"
     id="path25451" />
  <g
     id="layer3" />
</svg>
